<svg id="Layer_1" data-name="Layer 1" xmlns="http://www.w3.org/2000/svg" viewBox="0 0 240 179.7"><title>01</title><rect width="240" height="179.7" fill="#c5d2d8"/><path d="M71.6,69.6C77,64.08,83.87,63.37,91,64c8.88.76,16.51,4.74,23.61,9.87s14.07,10.3,21.27,15.21a44.48,44.48,0,0,0,16,6.7,25.19,25.19,0,0,0,28.33-13.54c.08-.15.14-.3.21-.45,2.52-5.21,4.79-10.46,2.38-16.43,3.74,5.06,3.69,10.48,1.47,16C180.14,91.5,169.74,97.85,158,97.67c-8.94-.14-16.93-3.27-24.36-7.85-6.14-3.78-12-8-18-12.12-6.87-4.71-13.88-9.11-22-11.47C86,64,78.76,64.2,72.23,69.46c-.15.12-.45.05-.67.07Z" transform="translate(0 -0.15)" fill="#fff"/><path d="M76.93,52.5c13.54-6.27,27.1-5.93,40.37.6,13.64,6.72,22.07,17.75,25.65,32.4l-.71.58c-1.41-1.78-3.31-3.35-4.15-5.37-6.74-16.2-19.12-24.9-36-28C93.65,51.21,85.32,50.25,76.93,52.5Z" transform="translate(0 -0.15)" fill="#fff"/><path d="M93.18,79.63c5.06,2.63,10.25,5,15.15,7.93,8.5,5,16.69,10.59,25.23,15.54s17.95,8.85,28.11,9.38a40.3,40.3,0,0,0,12.78-1.27c14.54-4.07,20.92-22.32,12.48-34.94-.66-1-1.37-2-2.28-3.25,6.6,4.24,10.13,15.51,7.56,23.17-3.46,10.31-13.35,17.28-25.26,17.79-10,.43-19.3-2.25-28.06-6.68-7.32-3.7-14.41-7.88-21.44-12.12-8.22-5-16.26-10.24-24.38-15.38Z" transform="translate(0 -0.15)" fill="#fff"/><path d="M97.49,90.65a24.35,24.35,0,0,0,1.81,4.6c4.2,6.58,10.22,11.56,17.06,15.65,9,5.4,18.39,10,28.95,10.88,10.9.87,20-2.1,27.3-8.7a1.49,1.49,0,0,0,.51-1,7,7,0,0,0-.86.51c-12.48,10.06-27.11,10.63-43.27,3.52a123.45,123.45,0,0,1-14-7.53,50,50,0,0,1-17.55-18Z" transform="translate(0 -0.15)" fill="#fff"/><path d="M60.68,63.53c-.17,9-6.75,21.64-17.84,34.25Z" transform="translate(0 -0.15)" fill="#fff"/><path d="M84.2,96.89a7,7,0,0,1-.43,1.6c-2.46,4.5-1.85,8.69,1,12.84,4,6,9.78,9,16.69,10.17l2.81.51c-5,2.7-14.2-.33-19.51-6.25-4.64-5.16-4.82-12.42-.47-18.8Z" transform="translate(0 -0.15)" fill="#fff"/><path d="M83.81,70.49c4.75,4,5.45,11.52,1.78,16.95-3.54,5.25-10.14,7.49-15.37,5,5.37-1.13,10.88-1.53,13.93-6.92C87,80.45,87.29,75.51,83.81,70.49Z" transform="translate(0 -0.15)" fill="#fff"/><path d="M58.69,101.4a7.92,7.92,0,0,1-6.5,8.39c-4.4,1-6.83-.6-8.4-5.8a16.39,16.39,0,0,1,1.66,2.18c1.29,2.43,3.3,2.47,5.55,1.82C53.77,107.18,56.3,105,58.69,101.4Z" transform="translate(0 -0.15)" fill="#fff"/><path d="M102.25,108l-9.58-11c1.94,3.64,4,8.41,9.63,10.94Z" transform="translate(0 -0.15)" fill="#fff"/><path d="M71,94.42l-11.31,6.31L59,99.61l11.24-6.42Z" transform="translate(0 -0.15)" fill="#fff"/><path d="M66.49,46.19,76,52.61l-.56,1L66,47.17Z" transform="translate(0 -0.15)" fill="#fff" stroke="#fff" stroke-miterlimit="10" stroke-width="2"/><path d="M60.51,61.69" transform="translate(0 -0.15)" fill="#fff" stroke="#000" stroke-miterlimit="10" stroke-width="2"/><path d="M66,46.19s-4.71,20-5.5,17.46" transform="translate(0 -0.15)" fill="#fff" stroke="#fff" stroke-miterlimit="10" stroke-width="2"/></svg>