<svg id="Layer_1" data-name="Layer 1" xmlns="http://www.w3.org/2000/svg" xmlns:xlink="http://www.w3.org/1999/xlink" viewBox="0 0 240 180.39"><defs><clipPath id="clip-path" transform="translate(0 -0.56)"><rect x="156.11" y="24.33" width="20.9" height="20.9" transform="translate(-2.59 53.21) rotate(-18.01)" fill="none"/></clipPath><clipPath id="clip-path-2" transform="translate(0 -0.56)"><circle cx="161.44" cy="69.24" r="11.32" fill="none"/></clipPath><clipPath id="clip-path-3" transform="translate(0 -0.56)"><circle cx="146.08" cy="81.8" r="11.32" fill="none"/></clipPath><clipPath id="clip-path-4" transform="translate(0 -0.56)"><circle cx="171.11" cy="98.35" r="11.32" fill="none"/></clipPath><clipPath id="clip-path-5" transform="translate(0 -0.56)"><rect x="179.35" y="32.62" width="20.9" height="20.9" transform="translate(70.67 196.97) rotate(-65.04)" fill="none"/></clipPath><clipPath id="clip-path-6" transform="translate(0 -0.56)"><rect x="103.99" y="141.53" width="20.9" height="20.9" transform="translate(-75.4 164.32) rotate(-56.74)" fill="none"/></clipPath><clipPath id="clip-path-7" transform="translate(0 -0.56)"><rect x="44.05" y="97.86" width="20.9" height="20.9" transform="translate(-9.48 5.32) rotate(-5.14)" fill="none"/></clipPath><clipPath id="clip-path-8" transform="translate(0 -0.56)"><rect x="194.74" y="78.11" width="20.9" height="20.9" transform="translate(7.39 192.58) rotate(-51.08)" fill="none"/></clipPath><clipPath id="clip-path-9" transform="translate(0 -0.56)"><rect x="200.12" y="112.36" width="20.9" height="20.9" transform="translate(-19.07 41.03) rotate(-10.65)" fill="none"/></clipPath></defs><title>04</title><rect y="0.34" width="240" height="179.7" fill="#d9d9d9"/><rect x="156.14" y="23.54" width="22.27" height="26.84" transform="translate(-3.23 52.97) rotate(-18.01)" fill="#fff"/><rect x="156.11" y="24.33" width="20.9" height="20.9" transform="translate(-2.59 52.65) rotate(-18.01)" fill="#58595b"/><g opacity="0.1"><g clip-path="url(#clip-path)"><rect x="163.02" y="22.05" width="2.22" height="32.12" transform="translate(78.84 182.87) rotate(-72.66)" fill="#fff"/><rect x="164.21" y="20.15" width="1.02" height="32.12" transform="translate(81.07 182.1) rotate(-72.66)" fill="#fff"/><rect x="166.83" y="11.76" width="1.02" height="32.12" transform="translate(90.92 178.71) rotate(-72.66)" fill="#fff"/><rect x="162.69" y="26.01" width="0.41" height="32.12" transform="matrix(0.3, -0.95, 0.95, 0.3, 74.2, 184.47)" fill="#fff"/><rect x="166.34" y="14.3" width="0.41" height="32.12" transform="translate(87.94 179.74) rotate(-72.66)" fill="#fff"/></g></g><path d="M9.7,35.59s-2.52,1.25-1.26,5.55L22.88,90.6a2.82,2.82,0,0,0,3.72,2l118-34.46s2.2-1.15,1.58-3.31l-14.9-51s-1-3.37-3.45-2.65Z" transform="translate(0 -0.56)" fill="#f1f2f2"/><path d="M10.14,35.15S7.62,36.4,8.88,40.71L23.32,90.16a2.82,2.82,0,0,0,3.72,2l118-34.46s2.2-1.15,1.58-3.31l-14.9-51s-1-3.37-3.45-2.65Z" transform="translate(0 -0.56)" fill="#e6e7e8"/><rect x="12.6" y="43.4" width="7.81" height="4.41" rx="0.47" ry="0.47" transform="translate(-12.12 5.89) rotate(-16.28)" fill="#231f20"/><rect x="14.62" y="48.96" width="7.36" height="7.13" rx="0.47" ry="0.47" transform="translate(-13.99 6.67) rotate(-16.28)" fill="#231f20"/><rect x="16.88" y="56.4" width="11.68" height="7.13" rx="0.47" ry="0.47" transform="translate(-15.89 8.21) rotate(-16.28)" fill="#231f20"/><rect x="22.95" y="46.53" width="7.36" height="7.13" rx="0.47" ry="0.47" transform="translate(-12.97 8.91) rotate(-16.28)" fill="#231f20"/><rect x="29.51" y="53.34" width="7.36" height="7.13" rx="0.47" ry="0.47" transform="translate(-14.62 11.02) rotate(-16.28)" fill="#231f20"/><rect x="37.73" y="50.94" width="7.36" height="7.13" rx="0.47" ry="0.47" transform="translate(-13.61 13.23) rotate(-16.28)" fill="#231f20"/><rect x="46.17" y="48.47" width="7.36" height="7.13" rx="0.47" ry="0.47" transform="translate(-12.59 15.5) rotate(-16.28)" fill="#231f20"/><rect x="54.41" y="46.07" width="7.36" height="7.13" rx="0.47" ry="0.47" transform="translate(-11.58 17.71) rotate(-16.28)" fill="#231f20"/><rect x="62.81" y="43.62" width="7.36" height="7.13" rx="0.47" ry="0.47" transform="translate(-10.56 19.96) rotate(-16.28)" fill="#231f20"/><rect x="71.03" y="41.21" width="7.36" height="7.13" rx="0.47" ry="0.47" transform="translate(-9.56 22.17) rotate(-16.28)" fill="#231f20"/><rect x="79.42" y="38.77" width="7.36" height="7.13" rx="0.47" ry="0.47" transform="translate(-8.53 24.43) rotate(-16.28)" fill="#231f20"/><rect x="87.86" y="36.3" width="7.36" height="7.13" rx="0.47" ry="0.47" transform="translate(-7.5 26.69) rotate(-16.28)" fill="#231f20"/><rect x="96.1" y="33.89" width="7.36" height="7.13" rx="0.47" ry="0.47" transform="translate(-6.5 28.91) rotate(-16.28)" fill="#231f20"/><rect x="104.43" y="31.46" width="7.36" height="7.13" rx="0.47" ry="0.47" transform="translate(-5.48 31.14) rotate(-16.28)" fill="#231f20"/><rect x="112.67" y="29.06" width="7.36" height="7.13" rx="0.47" ry="0.47" transform="translate(-4.48 33.36) rotate(-16.28)" fill="#231f20"/><rect x="117.21" y="36.62" width="7.36" height="7.13" rx="0.47" ry="0.47" transform="translate(-6.42 34.93) rotate(-16.28)" fill="#231f20"/><rect x="109.02" y="39.01" width="7.36" height="7.13" rx="0.47" ry="0.47" transform="translate(-7.41 32.73) rotate(-16.28)" fill="#231f20"/><rect x="100.63" y="41.46" width="7.36" height="7.13" rx="0.47" ry="0.47" transform="translate(-8.44 30.48) rotate(-16.28)" fill="#231f20"/><rect x="92.24" y="43.91" width="7.36" height="7.13" rx="0.47" ry="0.47" transform="translate(-9.46 28.23) rotate(-16.28)" fill="#231f20"/><rect x="84.02" y="46.31" width="7.36" height="7.13" rx="0.47" ry="0.47" transform="translate(-10.46 26.02) rotate(-16.28)" fill="#231f20"/><rect x="75.63" y="48.76" width="7.36" height="7.13" rx="0.47" ry="0.47" transform="translate(-11.48 23.76) rotate(-16.28)" fill="#231f20"/><rect x="67.24" y="51.21" width="7.36" height="7.13" rx="0.47" ry="0.47" transform="translate(-12.51 21.51) rotate(-16.28)" fill="#231f20"/><rect x="59.04" y="53.6" width="7.36" height="7.13" rx="0.47" ry="0.47" transform="translate(-13.51 19.31) rotate(-16.28)" fill="#231f20"/><rect x="50.61" y="56.06" width="7.36" height="7.13" rx="0.47" ry="0.47" transform="translate(-14.54 17.05) rotate(-16.28)" fill="#231f20"/><rect x="42.32" y="58.48" width="7.36" height="7.13" rx="0.47" ry="0.47" transform="translate(-15.55 14.82) rotate(-16.28)" fill="#231f20"/><rect x="33.93" y="60.93" width="7.36" height="7.13" rx="0.47" ry="0.47" transform="translate(-16.57 12.57) rotate(-16.28)" fill="#231f20"/><rect x="40.49" y="67.8" width="7.36" height="7.13" rx="0.47" ry="0.47" transform="translate(-18.23 14.68) rotate(-16.28)" fill="#231f20"/><rect x="24.23" y="81.39" width="7.36" height="8.11" rx="0.47" ry="0.47" transform="translate(-22.83 10.69) rotate(-16.28)" fill="#231f20"/><rect x="32.63" y="78.94" width="7.36" height="8.11" rx="0.47" ry="0.47" transform="translate(-21.81 12.94) rotate(-16.28)" fill="#231f20"/><rect x="40.87" y="76.54" width="7.36" height="8.11" rx="0.47" ry="0.47" transform="translate(-20.8 15.16) rotate(-16.28)" fill="#231f20"/><rect x="49.25" y="73.76" width="9.63" height="8.11" rx="0.47" ry="0.47" transform="translate(-19.64 17.71) rotate(-16.28)" fill="#231f20"/><rect x="58.94" y="66.16" width="42.32" height="8.11" rx="0.47" ry="0.47" transform="translate(-16.47 24.7) rotate(-16.28)" fill="#231f20"/><rect x="48.73" y="65.39" width="7.36" height="7.13" rx="0.47" ry="0.47" transform="translate(-17.23 16.89) rotate(-16.28)" fill="#231f20"/><rect x="57.12" y="62.94" width="7.36" height="7.13" rx="0.47" ry="0.47" transform="translate(-16.2 19.15) rotate(-16.28)" fill="#231f20"/><rect x="65.36" y="60.53" width="7.36" height="7.13" rx="0.47" ry="0.47" transform="translate(-15.2 21.36) rotate(-16.28)" fill="#231f20"/><rect x="73.8" y="58.07" width="7.36" height="7.13" rx="0.47" ry="0.47" transform="translate(-14.17 23.63) rotate(-16.28)" fill="#231f20"/><rect x="82.12" y="55.64" width="7.36" height="7.13" rx="0.47" ry="0.47" transform="matrix(0.96, -0.28, 0.28, 0.96, -13.15, 25.86)" fill="#231f20"/><rect x="90.45" y="53.21" width="7.36" height="7.13" rx="0.47" ry="0.47" transform="translate(-12.14 28.1) rotate(-16.28)" fill="#231f20"/><rect x="98.78" y="50.78" width="7.36" height="7.13" rx="0.47" ry="0.47" transform="translate(-11.12 30.33) rotate(-16.28)" fill="#231f20"/><rect x="101.28" y="58.58" width="9.57" height="8.35" rx="0.47" ry="0.47" transform="translate(-13.34 31.68) rotate(-16.28)" fill="#231f20"/><rect x="111.81" y="55.83" width="7.33" height="8.35" rx="0.47" ry="0.47" transform="translate(-12.19 34.21) rotate(-16.28)" fill="#231f20"/><rect x="107.1" y="48.35" width="7.36" height="7.13" rx="0.47" ry="0.47" transform="translate(-10.11 32.57) rotate(-16.28)" fill="#231f20"/><rect x="115.43" y="45.91" width="7.36" height="7.13" rx="0.47" ry="0.47" transform="translate(-9.09 34.81) rotate(-16.28)" fill="#231f20"/><rect x="123.53" y="41.92" width="18.49" height="7.13" rx="0.47" ry="0.47" transform="translate(-7.43 38.48) rotate(-16.28)" fill="#231f20"/><rect x="19.23" y="64.29" width="13.76" height="7.13" rx="0.47" ry="0.47" transform="translate(-17.97 9.48) rotate(-16.28)" fill="#231f20"/><rect x="21.5" y="71.76" width="18.18" height="7.13" rx="0.47" ry="0.47" transform="translate(-19.88 11.03) rotate(-16.28)" fill="#231f20"/><rect x="121.03" y="26.62" width="7.36" height="7.13" rx="0.47" ry="0.47" transform="translate(-3.46 35.6) rotate(-16.28)" fill="#231f20"/><rect x="129.46" y="24.16" width="7.36" height="7.13" rx="0.47" ry="0.47" transform="translate(-2.43 37.86) rotate(-16.28)" fill="#231f20"/><rect x="31.29" y="44.09" width="7.36" height="7.13" rx="0.47" ry="0.47" transform="translate(-11.96 11.15) rotate(-16.28)" fill="#231f20"/><rect x="39.63" y="41.66" width="7.36" height="7.13" rx="0.47" ry="0.47" transform="translate(-10.94 13.39) rotate(-16.28)" fill="#231f20"/><rect x="47.97" y="39.23" width="7.36" height="7.13" rx="0.47" ry="0.47" transform="translate(-9.92 15.63) rotate(-16.28)" fill="#231f20"/><rect x="56.3" y="36.79" width="7.36" height="7.13" rx="0.47" ry="0.47" transform="translate(-8.91 17.87) rotate(-16.28)" fill="#231f20"/><rect x="64.64" y="34.36" width="7.36" height="7.13" rx="0.47" ry="0.47" transform="translate(-7.89 20.11) rotate(-16.28)" fill="#231f20"/><rect x="72.98" y="31.92" width="7.36" height="7.13" rx="0.47" ry="0.47" transform="translate(-6.87 22.35) rotate(-16.28)" fill="#231f20"/><rect x="81.32" y="29.49" width="7.36" height="7.13" rx="0.47" ry="0.47" transform="translate(-5.86 24.59) rotate(-16.28)" fill="#231f20"/><rect x="89.65" y="27.05" width="7.36" height="7.13" rx="0.47" ry="0.47" transform="translate(-4.84 26.83) rotate(-16.28)" fill="#231f20"/><rect x="97.99" y="24.62" width="7.36" height="7.13" rx="0.47" ry="0.47" transform="translate(-3.82 29.06) rotate(-16.28)" fill="#231f20"/><rect x="106.33" y="22.19" width="7.36" height="7.13" rx="0.47" ry="0.47" transform="translate(-2.81 31.31) rotate(-16.28)" fill="#231f20"/><rect x="114.67" y="19.75" width="7.36" height="7.13" rx="0.47" ry="0.47" transform="matrix(0.96, -0.28, 0.28, 0.96, -1.79, 33.54)" fill="#231f20"/><rect x="122.91" y="16.69" width="11.86" height="7.13" rx="0.47" ry="0.47" transform="translate(-0.51 36.36) rotate(-16.28)" fill="#231f20"/><rect x="125.44" y="33.23" width="14.12" height="7.13" rx="0.47" ry="0.47" transform="translate(-5 38.05) rotate(-16.28)" fill="#231f20"/><rect x="21.24" y="40.87" width="7.81" height="4.41" rx="0.47" ry="0.47" transform="translate(-11.07 8.21) rotate(-16.28)" fill="#231f20"/><rect x="29.88" y="38.35" width="7.81" height="4.41" rx="0.47" ry="0.47" transform="translate(-10.01 10.53) rotate(-16.28)" fill="#231f20"/><rect x="38.51" y="35.83" width="7.81" height="4.41" rx="0.47" ry="0.47" transform="translate(-8.96 12.85) rotate(-16.28)" fill="#231f20"/><rect x="47.15" y="33.31" width="7.81" height="4.41" rx="0.47" ry="0.47" transform="translate(-7.91 15.17) rotate(-16.28)" fill="#231f20"/><rect x="55.79" y="30.79" width="7.81" height="4.41" rx="0.47" ry="0.47" transform="translate(-6.85 17.49) rotate(-16.28)" fill="#231f20"/><rect x="64.43" y="28.27" width="7.81" height="4.41" rx="0.47" ry="0.47" transform="translate(-5.8 19.81) rotate(-16.28)" fill="#231f20"/><rect x="73.06" y="25.74" width="7.81" height="4.41" rx="0.47" ry="0.47" transform="translate(-4.75 22.13) rotate(-16.28)" fill="#231f20"/><rect x="81.7" y="23.22" width="7.81" height="4.41" rx="0.47" ry="0.47" transform="matrix(0.96, -0.28, 0.28, 0.96, -3.69, 24.45)" fill="#231f20"/><rect x="90.34" y="20.7" width="7.81" height="4.41" rx="0.47" ry="0.47" transform="translate(-2.64 26.77) rotate(-16.28)" fill="#231f20"/><rect x="98.97" y="18.18" width="7.81" height="4.41" rx="0.47" ry="0.47" transform="translate(-1.59 29.09) rotate(-16.28)" fill="#231f20"/><rect x="107.61" y="15.66" width="7.81" height="4.41" rx="0.47" ry="0.47" transform="translate(-0.54 31.41) rotate(-16.28)" fill="#231f20"/><rect x="116.25" y="13.13" width="7.81" height="4.41" rx="0.47" ry="0.47" transform="translate(0.52 33.73) rotate(-16.28)" fill="#231f20"/><rect x="124.88" y="10.61" width="7.81" height="4.41" rx="0.47" ry="0.47" transform="translate(1.57 36.05) rotate(-16.28)" fill="#231f20"/><rect x="120.63" y="57.5" width="7.49" height="4.13" rx="0.47" ry="0.47" transform="translate(-11.71 36.68) rotate(-16.28)" fill="#231f20"/><rect x="128.39" y="50.92" width="7.49" height="8.3" rx="0.47" ry="0.47" transform="translate(-10.14 38.68) rotate(-16.28)" fill="#231f20"/><rect x="137.15" y="52.67" width="7.49" height="4.13" rx="0.47" ry="0.47" transform="translate(-9.69 41.12) rotate(-16.28)" fill="#231f20"/><rect x="12.75" y="43.13" width="7.81" height="4.41" rx="0.47" ry="0.47" transform="translate(-12.04 5.92) rotate(-16.28)" fill="#58595b"/><rect x="14.77" y="48.69" width="7.36" height="7.13" rx="0.47" ry="0.47" transform="translate(-13.91 6.7) rotate(-16.28)" fill="#58595b"/><rect x="17.03" y="56.13" width="11.68" height="7.13" rx="0.47" ry="0.47" transform="matrix(0.96, -0.28, 0.28, 0.96, -15.81, 8.24)" fill="#58595b"/><rect x="23.1" y="46.26" width="7.36" height="7.13" rx="0.47" ry="0.47" transform="translate(-12.89 8.94) rotate(-16.28)" fill="#58595b"/><rect x="29.66" y="53.07" width="7.36" height="7.13" rx="0.47" ry="0.47" transform="translate(-14.54 11.05) rotate(-16.28)" fill="#58595b"/><rect x="37.88" y="50.67" width="7.36" height="7.13" rx="0.47" ry="0.47" transform="translate(-13.53 13.26) rotate(-16.28)" fill="#58595b"/><rect x="46.32" y="48.2" width="7.36" height="7.13" rx="0.47" ry="0.47" transform="translate(-12.5 15.53) rotate(-16.28)" fill="#58595b"/><rect x="54.56" y="45.8" width="7.36" height="7.13" rx="0.47" ry="0.47" transform="translate(-11.5 17.74) rotate(-16.28)" fill="#58595b"/><rect x="62.95" y="43.35" width="7.36" height="7.13" rx="0.47" ry="0.47" transform="translate(-10.48 20) rotate(-16.28)" fill="#58595b"/><rect x="71.18" y="40.94" width="7.36" height="7.13" rx="0.47" ry="0.47" transform="translate(-9.47 22.2) rotate(-16.28)" fill="#58595b"/><rect x="79.57" y="38.5" width="7.36" height="7.13" rx="0.47" ry="0.47" transform="translate(-8.45 24.46) rotate(-16.28)" fill="#58595b"/><rect x="88.01" y="36.03" width="7.36" height="7.13" rx="0.47" ry="0.47" transform="translate(-7.42 26.72) rotate(-16.28)" fill="#58595b"/><rect x="96.25" y="33.62" width="7.36" height="7.13" rx="0.47" ry="0.47" transform="matrix(0.96, -0.28, 0.28, 0.96, -6.42, 28.94)" fill="#58595b"/><rect x="104.58" y="31.19" width="7.36" height="7.13" rx="0.47" ry="0.47" transform="translate(-5.4 31.17) rotate(-16.28)" fill="#58595b"/><rect x="112.82" y="28.79" width="7.36" height="7.13" rx="0.47" ry="0.47" transform="translate(-4.4 33.39) rotate(-16.28)" fill="#58595b"/><rect x="117.35" y="36.35" width="7.36" height="7.13" rx="0.47" ry="0.47" transform="translate(-6.33 34.96) rotate(-16.28)" fill="#58595b"/><rect x="109.17" y="38.74" width="7.36" height="7.13" rx="0.47" ry="0.47" transform="translate(-7.33 32.76) rotate(-16.28)" fill="#58595b"/><rect x="100.78" y="41.19" width="7.36" height="7.13" rx="0.47" ry="0.47" transform="matrix(0.96, -0.28, 0.28, 0.96, -8.36, 30.51)" fill="#58595b"/><rect x="92.39" y="43.64" width="7.36" height="7.13" rx="0.47" ry="0.47" transform="translate(-9.38 28.26) rotate(-16.28)" fill="#58595b"/><rect x="84.17" y="46.04" width="7.36" height="7.13" rx="0.47" ry="0.47" transform="translate(-10.38 26.05) rotate(-16.28)" fill="#58595b"/><rect x="75.78" y="48.49" width="7.36" height="7.13" rx="0.47" ry="0.47" transform="translate(-11.4 23.8) rotate(-16.28)" fill="#58595b"/><rect x="67.39" y="50.94" width="7.36" height="7.13" rx="0.47" ry="0.47" transform="translate(-12.43 21.54) rotate(-16.28)" fill="#58595b"/><rect x="59.19" y="53.33" width="7.36" height="7.13" rx="0.47" ry="0.47" transform="translate(-13.43 19.34) rotate(-16.28)" fill="#58595b"/><rect x="50.76" y="55.79" width="7.36" height="7.13" rx="0.47" ry="0.47" transform="translate(-14.45 17.07) rotate(-16.28)" fill="#58595b"/><rect x="42.47" y="58.21" width="7.36" height="7.13" rx="0.47" ry="0.47" transform="translate(-15.46 14.85) rotate(-16.28)" fill="#58595b"/><rect x="34.08" y="60.66" width="7.36" height="7.13" rx="0.47" ry="0.47" transform="matrix(0.96, -0.28, 0.28, 0.96, -16.49, 12.6)" fill="#58595b"/><rect x="40.64" y="67.53" width="7.36" height="7.13" rx="0.47" ry="0.47" transform="translate(-18.15 14.71) rotate(-16.28)" fill="#58595b"/><rect x="24.38" y="81.12" width="7.36" height="8.11" rx="0.47" ry="0.47" transform="translate(-22.75 10.72) rotate(-16.28)" fill="#58595b"/><rect x="32.78" y="78.67" width="7.36" height="8.11" rx="0.47" ry="0.47" transform="translate(-21.73 12.97) rotate(-16.28)" fill="#58595b"/><rect x="41.01" y="76.27" width="7.36" height="8.11" rx="0.47" ry="0.47" transform="translate(-20.72 15.18) rotate(-16.28)" fill="#58595b"/><rect x="49.4" y="73.49" width="9.63" height="8.11" rx="0.47" ry="0.47" transform="translate(-19.56 17.74) rotate(-16.28)" fill="#58595b"/><rect x="59.09" y="65.89" width="42.32" height="8.11" rx="0.47" ry="0.47" transform="translate(-16.39 24.73) rotate(-16.28)" fill="#58595b"/><rect x="48.87" y="65.12" width="7.36" height="7.13" rx="0.47" ry="0.47" transform="translate(-17.14 16.92) rotate(-16.28)" fill="#58595b"/><rect x="57.27" y="62.67" width="7.36" height="7.13" rx="0.47" ry="0.47" transform="translate(-16.12 19.18) rotate(-16.28)" fill="#58595b"/><rect x="65.51" y="60.26" width="7.36" height="7.13" rx="0.47" ry="0.47" transform="matrix(0.96, -0.28, 0.28, 0.96, -15.12, 21.39)" fill="#58595b"/><rect x="73.95" y="57.8" width="7.36" height="7.13" rx="0.47" ry="0.47" transform="matrix(0.96, -0.28, 0.28, 0.96, -14.09, 23.66)" fill="#58595b"/><rect x="82.27" y="55.37" width="7.36" height="7.13" rx="0.47" ry="0.47" transform="translate(-13.07 25.89) rotate(-16.28)" fill="#58595b"/><rect x="90.6" y="52.94" width="7.36" height="7.13" rx="0.47" ry="0.47" transform="translate(-12.06 28.13) rotate(-16.28)" fill="#58595b"/><rect x="98.93" y="50.51" width="7.36" height="7.13" rx="0.47" ry="0.47" transform="translate(-11.04 30.37) rotate(-16.28)" fill="#58595b"/><rect x="101.43" y="58.31" width="9.57" height="8.35" rx="0.47" ry="0.47" transform="translate(-13.26 31.71) rotate(-16.28)" fill="#58595b"/><rect x="111.96" y="55.56" width="7.33" height="8.35" rx="0.47" ry="0.47" transform="translate(-12.11 34.24) rotate(-16.28)" fill="#58595b"/><rect x="107.25" y="48.08" width="7.36" height="7.13" rx="0.47" ry="0.47" transform="translate(-10.03 32.6) rotate(-16.28)" fill="#58595b"/><rect x="115.58" y="45.64" width="7.36" height="7.13" rx="0.47" ry="0.47" transform="translate(-9.01 34.84) rotate(-16.28)" fill="#58595b"/><rect x="123.68" y="41.65" width="18.49" height="7.13" rx="0.47" ry="0.47" transform="translate(-7.35 38.51) rotate(-16.28)" fill="#58595b"/><rect x="19.37" y="64.02" width="13.76" height="7.13" rx="0.47" ry="0.47" transform="translate(-17.89 9.51) rotate(-16.28)" fill="#58595b"/><rect x="21.65" y="71.49" width="18.18" height="7.13" rx="0.47" ry="0.47" transform="translate(-19.8 11.06) rotate(-16.28)" fill="#58595b"/><rect x="121.18" y="26.35" width="7.36" height="7.13" rx="0.47" ry="0.47" transform="matrix(0.96, -0.28, 0.28, 0.96, -3.38, 35.63)" fill="#58595b"/><rect x="129.61" y="23.89" width="7.36" height="7.13" rx="0.47" ry="0.47" transform="translate(-2.35 37.9) rotate(-16.28)" fill="#58595b"/><rect x="31.44" y="43.82" width="7.36" height="7.13" rx="0.47" ry="0.47" transform="translate(-11.87 11.18) rotate(-16.28)" fill="#58595b"/><rect x="39.78" y="41.39" width="7.36" height="7.13" rx="0.47" ry="0.47" transform="translate(-10.86 13.42) rotate(-16.28)" fill="#58595b"/><rect x="48.12" y="38.96" width="7.36" height="7.13" rx="0.47" ry="0.47" transform="translate(-9.84 15.66) rotate(-16.28)" fill="#58595b"/><rect x="56.45" y="36.52" width="7.36" height="7.13" rx="0.47" ry="0.47" transform="translate(-8.82 17.9) rotate(-16.28)" fill="#58595b"/><rect x="64.79" y="34.09" width="7.36" height="7.13" rx="0.47" ry="0.47" transform="translate(-7.81 20.14) rotate(-16.28)" fill="#58595b"/><rect x="73.13" y="31.65" width="7.36" height="7.13" rx="0.47" ry="0.47" transform="translate(-6.79 22.38) rotate(-16.28)" fill="#58595b"/><rect x="81.47" y="29.22" width="7.36" height="7.13" rx="0.47" ry="0.47" transform="translate(-5.77 24.62) rotate(-16.28)" fill="#58595b"/><rect x="89.8" y="26.78" width="7.36" height="7.13" rx="0.47" ry="0.47" transform="translate(-4.76 26.86) rotate(-16.28)" fill="#58595b"/><rect x="98.14" y="24.35" width="7.36" height="7.13" rx="0.47" ry="0.47" transform="translate(-3.74 29.1) rotate(-16.28)" fill="#58595b"/><rect x="106.48" y="21.92" width="7.36" height="7.13" rx="0.47" ry="0.47" transform="translate(-2.73 31.34) rotate(-16.28)" fill="#58595b"/><rect x="114.81" y="19.48" width="7.36" height="7.13" rx="0.47" ry="0.47" transform="translate(-1.71 33.57) rotate(-16.28)" fill="#58595b"/><rect x="123.06" y="16.42" width="11.86" height="7.13" rx="0.47" ry="0.47" transform="translate(-0.43 36.39) rotate(-16.28)" fill="#58595b"/><rect x="125.59" y="32.96" width="14.12" height="7.13" rx="0.47" ry="0.47" transform="translate(-4.92 38.08) rotate(-16.28)" fill="#58595b"/><rect x="21.39" y="40.6" width="7.81" height="4.41" rx="0.47" ry="0.47" transform="translate(-10.98 8.24) rotate(-16.28)" fill="#58595b"/><rect x="30.03" y="38.08" width="7.81" height="4.41" rx="0.47" ry="0.47" transform="translate(-9.93 10.56) rotate(-16.28)" fill="#58595b"/><rect x="38.66" y="35.56" width="7.81" height="4.41" rx="0.47" ry="0.47" transform="translate(-8.88 12.88) rotate(-16.28)" fill="#58595b"/><rect x="47.3" y="33.04" width="7.81" height="4.41" rx="0.47" ry="0.47" transform="matrix(0.96, -0.28, 0.28, 0.96, -7.82, 15.2)" fill="#58595b"/><rect x="55.94" y="30.52" width="7.81" height="4.41" rx="0.47" ry="0.47" transform="translate(-6.77 17.52) rotate(-16.28)" fill="#58595b"/><rect x="64.57" y="27.99" width="7.81" height="4.41" rx="0.47" ry="0.47" transform="translate(-5.72 19.84) rotate(-16.28)" fill="#58595b"/><rect x="73.21" y="25.47" width="7.81" height="4.41" rx="0.47" ry="0.47" transform="translate(-4.67 22.16) rotate(-16.28)" fill="#58595b"/><rect x="81.85" y="22.95" width="7.81" height="4.41" rx="0.47" ry="0.47" transform="translate(-3.61 24.48) rotate(-16.28)" fill="#58595b"/><rect x="90.48" y="20.43" width="7.81" height="4.41" rx="0.47" ry="0.47" transform="translate(-2.56 26.8) rotate(-16.28)" fill="#58595b"/><rect x="99.12" y="17.91" width="7.81" height="4.41" rx="0.47" ry="0.47" transform="translate(-1.51 29.12) rotate(-16.28)" fill="#58595b"/><rect x="107.76" y="15.39" width="7.81" height="4.41" rx="0.47" ry="0.47" transform="matrix(0.96, -0.28, 0.28, 0.96, -0.45, 31.44)" fill="#58595b"/><rect x="116.4" y="12.86" width="7.81" height="4.41" rx="0.47" ry="0.47" transform="translate(0.6 33.76) rotate(-16.28)" fill="#58595b"/><rect x="125.03" y="10.34" width="7.81" height="4.41" rx="0.47" ry="0.47" transform="translate(1.65 36.08) rotate(-16.28)" fill="#58595b"/><rect x="120.77" y="57.23" width="7.49" height="4.13" rx="0.47" ry="0.47" transform="translate(-11.63 36.71) rotate(-16.28)" fill="#58595b"/><rect x="128.54" y="50.65" width="7.49" height="8.3" rx="0.47" ry="0.47" transform="translate(-10.06 38.71) rotate(-16.28)" fill="#58595b"/><rect x="137.3" y="52.4" width="7.49" height="4.13" rx="0.47" ry="0.47" transform="translate(-9.61 41.15) rotate(-16.28)" fill="#58595b"/><line x1="128.47" y1="55.58" x2="136.29" y2="53.3" fill="none" stroke="#e6e7e8" stroke-miterlimit="10" stroke-width="2"/><path d="M161.22,57.51a11.94,11.94,0,1,0,11.94,11.94A11.94,11.94,0,0,0,161.22,57.51Zm0,23.26a11.32,11.32,0,1,1,11.32-11.32A11.32,11.32,0,0,1,161.22,80.77Z" transform="translate(0 -0.56)" fill="#231f20"/><path d="M161.44,57.29a11.94,11.94,0,1,0,11.94,11.94A11.94,11.94,0,0,0,161.44,57.29Zm0,23.26a11.32,11.32,0,1,1,11.32-11.32A11.32,11.32,0,0,1,161.44,80.55Z" transform="translate(0 -0.56)" fill="#58595b"/><circle cx="161.44" cy="68.68" r="11.32" fill="#f2695f" opacity="0.5"/><g clip-path="url(#clip-path-2)"><rect x="143.79" y="66.67" width="32.6" height="2.89" transform="translate(-13.89 67.38) rotate(-22.99)" fill="#fff" opacity="0.2"/><rect x="142.83" y="65.35" width="32.6" height="1.01" transform="translate(-13.08 66.83) rotate(-22.99)" fill="#fff" opacity="0.2"/><rect x="145.38" y="71.37" width="32.6" height="1.01" transform="translate(-15.23 68.3) rotate(-22.99)" fill="#fff" opacity="0.2"/><rect x="146.43" y="73.36" width="32.6" height="1.95" transform="translate(-16.11 68.9) rotate(-22.99)" fill="#fff" opacity="0.2"/><rect x="141.41" y="62.25" width="32.6" height="0.5" transform="translate(-11.88 66) rotate(-22.99)" fill="#fff" opacity="0.2"/></g><path d="M145.86,70.07A11.94,11.94,0,1,0,157.8,82,11.94,11.94,0,0,0,145.86,70.07Zm0,23.26A11.32,11.32,0,1,1,157.18,82,11.32,11.32,0,0,1,145.86,93.33Z" transform="translate(0 -0.56)" fill="#231f20"/><path d="M146.08,69.85A11.94,11.94,0,1,0,158,81.8,11.94,11.94,0,0,0,146.08,69.85Zm0,23.26A11.32,11.32,0,1,1,157.39,81.8,11.32,11.32,0,0,1,146.08,93.12Z" transform="translate(0 -0.56)" fill="#58595b"/><circle cx="146.08" cy="81.24" r="11.32" fill="#a3c688" opacity="0.5"/><g clip-path="url(#clip-path-3)"><rect x="128.42" y="79.23" width="32.6" height="2.89" transform="translate(-20.01 62.37) rotate(-22.99)" fill="#fff" opacity="0.2"/><rect x="127.47" y="77.92" width="32.6" height="1.01" transform="translate(-19.21 61.82) rotate(-22.99)" fill="#fff" opacity="0.2"/><rect x="130.02" y="83.93" width="32.6" height="1.01" transform="translate(-21.36 63.3) rotate(-22.99)" fill="#fff" opacity="0.2"/><rect x="131.06" y="85.92" width="32.6" height="1.95" transform="translate(-22.23 63.9) rotate(-22.99)" fill="#fff" opacity="0.2"/><rect x="126.04" y="74.81" width="32.6" height="0.5" transform="translate(-18.01 61) rotate(-22.99)" fill="#fff" opacity="0.2"/></g><path d="M170.89,86.63a11.94,11.94,0,1,0,11.94,11.94A11.94,11.94,0,0,0,170.89,86.63Zm0,23.26a11.32,11.32,0,1,1,11.32-11.32A11.32,11.32,0,0,1,170.89,109.89Z" transform="translate(0 -0.56)" fill="#231f20"/><path d="M171.11,86.41a11.94,11.94,0,1,0,11.94,11.94A11.94,11.94,0,0,0,171.11,86.41Zm0,23.26a11.32,11.32,0,1,1,11.32-11.32A11.32,11.32,0,0,1,171.11,109.67Z" transform="translate(0 -0.56)" fill="#58595b"/><circle cx="171.11" cy="97.79" r="11.32" fill="#b6e5f5" opacity="0.5"/><g clip-path="url(#clip-path-4)"><rect x="153.46" y="95.78" width="32.6" height="2.89" transform="translate(-24.49 73.47) rotate(-22.99)" fill="#fff" opacity="0.2"/><rect x="152.5" y="94.47" width="32.6" height="1.01" transform="translate(-23.69 72.91) rotate(-22.99)" fill="#fff" opacity="0.2"/><rect x="155.05" y="100.49" width="32.6" height="1.01" transform="translate(-25.83 74.39) rotate(-22.99)" fill="#fff" opacity="0.2"/><rect x="156.1" y="102.47" width="32.6" height="1.95" transform="translate(-26.71 74.99) rotate(-22.99)" fill="#fff" opacity="0.2"/><rect x="151.08" y="91.36" width="32.6" height="0.5" transform="translate(-22.49 72.09) rotate(-22.99)" fill="#fff" opacity="0.2"/></g><polygon points="133.91 121.97 132.42 124.59 132.85 124.83 130.87 128.31 130.45 128.07 127.54 133.2 131.26 135.31 131.43 135 132.72 135.73 132.54 136.04 136.21 138.11 139.7 131.95 139.21 131.67 139.94 130.39 140.43 130.67 141.7 128.43 141.23 126.12 133.91 121.97" fill="#414042"/><rect x="131.31" y="126.25" width="1.26" height="0.49" transform="translate(-43.18 178.29) rotate(-60.44)" fill="#a7a9ac"/><rect x="130.47" y="127.25" width="8.81" height="7.67" transform="translate(-45.69 183.16) rotate(-60.43)" fill="#808285"/><rect x="131.78" y="129.02" width="4.95" height="6.32" transform="translate(-46.96 183.18) rotate(-60.44)" fill="#fdd081"/><rect x="133.17" y="130.83" width="0.57" height="5.53" transform="translate(-48.59 183.2) rotate(-60.44)" fill="#f1f2f2"/><circle cx="135.19" cy="124.93" r="0.46" transform="translate(-40.17 180.34) rotate(-60.44)" fill="#f1f2f2"/><polygon points="165.01 135.34 165.81 138.25 165.34 138.38 166.4 142.24 166.87 142.11 168.44 147.79 164.31 148.93 164.22 148.59 162.8 148.98 162.89 149.32 158.83 150.44 156.95 143.61 157.49 143.46 157.1 142.04 156.56 142.19 155.87 139.71 156.89 137.58 165.01 135.34" fill="#231f20"/><rect x="165.7" y="139.6" width="0.49" height="1.26" transform="translate(-31.3 48.57) rotate(-15.41)" fill="#a7a9ac"/><rect x="158.31" y="138.71" width="0.73" height="1.71" transform="translate(-31.36 46.58) rotate(-15.4)" fill="#f1f2f2"/><rect x="159.68" y="138.33" width="0.73" height="1.71" transform="translate(-31.24 46.99) rotate(-15.41)" fill="#f1f2f2"/><rect x="161.05" y="137.96" width="0.73" height="1.71" transform="matrix(0.96, -0.27, 0.27, 0.96, -31.07, 47.3)" fill="#f1f2f2"/><rect x="162.43" y="137.58" width="0.73" height="1.71" transform="translate(-30.94 47.69) rotate(-15.41)" fill="#f1f2f2"/><rect x="163.8" y="137.2" width="0.73" height="1.71" transform="translate(-30.77 48) rotate(-15.4)" fill="#f1f2f2"/><rect x="157.09" y="139.94" width="0.73" height="1.71" transform="translate(-31.77 46.37) rotate(-15.42)" fill="#f1f2f2"/><rect x="180.27" y="169.87" width="28.95" height="5.02" transform="translate(-54.34 97) rotate(-24.79)" fill="#231f20"/><rect x="184.22" y="174.58" width="23.77" height="1.44" transform="translate(-55.44 97.84) rotate(-24.8)" fill="#231f20"/><rect x="175.88" y="162.02" width="28.95" height="1.67" transform="matrix(0.91, -0.42, 0.42, 0.91, -50.75, 94.28)" fill="#231f20"/><rect x="175.21" y="159.74" width="28.19" height="1.67" transform="translate(-49.89 93.63) rotate(-24.79)" fill="#231f20"/><polygon points="203.14 155.47 176.86 167.61 177.13 167.03 176.86 166.69 202.44 154.87 202.52 155.3 203.14 155.47" fill="#5c5c5c"/><rect x="177.73" y="163.29" width="28.95" height="7.13" transform="translate(-52.26 95.42) rotate(-24.79)" fill="#5c5c5c"/><rect x="178.58" y="169.74" width="0.68" height="1.81" transform="translate(-55.07 90.2) rotate(-24.8)" fill="#494949"/><rect x="179.48" y="171.68" width="0.68" height="1.81" transform="translate(-55.8 90.77) rotate(-24.8)" fill="#494949"/><rect x="180.37" y="173.61" width="0.68" height="1.81" transform="translate(-56.51 91.25) rotate(-24.78)" fill="#494949"/><rect x="179.61" y="169.26" width="0.68" height="1.81" transform="translate(-54.76 90.53) rotate(-24.78)" fill="#494949"/><rect x="180.51" y="171.2" width="0.68" height="1.81" transform="translate(-55.5 91.12) rotate(-24.79)" fill="#494949"/><rect x="181.4" y="173.13" width="0.67" height="1.81" transform="translate(-56.23 91.7) rotate(-24.8)" fill="#494949"/><rect x="180.65" y="168.79" width="0.68" height="1.81" transform="translate(-54.52 91.09) rotate(-24.82)" fill="#494949"/><rect x="181.54" y="170.72" width="0.68" height="1.81" transform="translate(-55.19 91.48) rotate(-24.78)" fill="#494949"/><rect x="182.43" y="172.66" width="0.68" height="1.81" transform="translate(-55.95 92.13) rotate(-24.8)" fill="#494949"/><rect x="181.68" y="168.31" width="0.68" height="1.81" transform="translate(-54.17 91.34) rotate(-24.79)" fill="#494949"/><rect x="182.57" y="170.25" width="0.68" height="1.81" transform="translate(-54.95 92.03) rotate(-24.82)" fill="#494949"/><rect x="183.47" y="172.18" width="0.68" height="1.81" transform="translate(-55.65 92.49) rotate(-24.8)" fill="#494949"/><rect x="182.71" y="167.83" width="0.68" height="1.81" transform="translate(-53.91 91.84) rotate(-24.81)" fill="#494949"/><rect x="183.6" y="169.77" width="0.68" height="1.81" transform="translate(-54.61 92.29) rotate(-24.79)" fill="#494949"/><rect x="184.5" y="171.7" width="0.68" height="1.81" transform="translate(-55.36 92.9) rotate(-24.8)" fill="#494949"/><rect x="183.74" y="167.36" width="0.68" height="1.81" transform="translate(-53.57 92.08) rotate(-24.78)" fill="#494949"/><rect x="184.64" y="169.29" width="0.68" height="1.81" transform="translate(-54.37 92.84) rotate(-24.83)" fill="#494949"/><rect x="185.53" y="171.23" width="0.68" height="1.81" transform="translate(-55.04 93.23) rotate(-24.79)" fill="#494949"/><rect x="184.77" y="166.88" width="0.68" height="1.81" transform="translate(-53.29 92.51) rotate(-24.79)" fill="#494949"/><rect x="185.67" y="168.81" width="0.68" height="1.81" transform="translate(-54.03 93.1) rotate(-24.8)" fill="#494949"/><rect x="186.56" y="170.75" width="0.68" height="1.81" transform="translate(-54.76 93.64) rotate(-24.8)" fill="#494949"/><rect x="185.81" y="166.4" width="0.68" height="1.81" transform="translate(-53.01 92.94) rotate(-24.8)" fill="#494949"/><rect x="186.7" y="168.34" width="0.68" height="1.81" transform="translate(-53.7 93.38) rotate(-24.77)" fill="#494949"/><rect x="187.6" y="170.27" width="0.68" height="1.81" transform="translate(-54.46 94.01) rotate(-24.79)" fill="#494949"/><rect x="186.84" y="165.93" width="0.68" height="1.81" transform="translate(-52.69 93.25) rotate(-24.78)" fill="#494949"/><rect x="187.73" y="167.86" width="0.68" height="1.81" transform="translate(-53.46 93.94) rotate(-24.81)" fill="#494949"/><rect x="188.63" y="169.8" width="0.68" height="1.81" transform="translate(-54.15 94.36) rotate(-24.78)" fill="#494949"/><rect x="187.87" y="165.45" width="0.68" height="1.81" transform="translate(-52.4 93.67) rotate(-24.79)" fill="#494949"/><rect x="188.77" y="167.38" width="0.68" height="1.81" transform="translate(-53.16 94.3) rotate(-24.8)" fill="#494949"/><rect x="189.66" y="169.32" width="0.68" height="1.81" transform="translate(-53.86 94.78) rotate(-24.79)" fill="#494949"/><rect x="188.9" y="164.97" width="0.68" height="1.81" transform="translate(-52.15 94.2) rotate(-24.82)" fill="#494949"/><rect x="189.8" y="166.91" width="0.68" height="1.81" transform="translate(-52.89 94.78) rotate(-24.83)" fill="#494949"/><rect x="190.69" y="168.84" width="0.68" height="1.81" transform="translate(-53.57 95.17) rotate(-24.79)" fill="#494949"/><rect x="189.94" y="164.49" width="0.68" height="1.81" transform="translate(-51.88 94.66) rotate(-24.84)" fill="#494949"/><rect x="190.83" y="166.43" width="0.68" height="1.81" transform="translate(-52.55 95.04) rotate(-24.8)" fill="#494949"/><rect x="191.72" y="168.37" width="0.68" height="1.81" transform="translate(-53.29 95.63) rotate(-24.8)" fill="#494949"/><rect x="190.97" y="164.02" width="0.68" height="1.81" transform="translate(-51.53 94.88) rotate(-24.8)" fill="#494949"/><rect x="191.86" y="165.95" width="0.68" height="1.81" transform="translate(-52.28 95.51) rotate(-24.81)" fill="#494949"/><rect x="192.76" y="167.89" width="0.68" height="1.81" transform="translate(-52.99 95.98) rotate(-24.8)" fill="#494949"/><rect x="192" y="163.54" width="0.68" height="1.81" transform="translate(-51.26 95.36) rotate(-24.82)" fill="#494949"/><rect x="192.89" y="165.48" width="0.68" height="1.81" transform="translate(-51.95 95.78) rotate(-24.79)" fill="#494949"/><rect x="193.79" y="167.41" width="0.68" height="1.81" transform="translate(-52.67 96.27) rotate(-24.77)" fill="#494949"/><rect x="193.03" y="163.06" width="0.68" height="1.81" transform="translate(-50.94 95.65) rotate(-24.8)" fill="#494949"/><rect x="193.93" y="165" width="0.68" height="1.81" transform="translate(-51.64 96.1) rotate(-24.77)" fill="#494949"/><rect x="194.82" y="166.94" width="0.68" height="1.81" transform="translate(-52.39 96.74) rotate(-24.79)" fill="#494949"/><rect x="194.07" y="162.59" width="0.68" height="1.81" transform="translate(-50.64 96.04) rotate(-24.79)" fill="#494949"/><rect x="194.96" y="164.52" width="0.68" height="1.81" transform="translate(-51.36 96.56) rotate(-24.79)" fill="#494949"/><rect x="195.85" y="166.46" width="0.68" height="1.81" transform="translate(-52.08 97.08) rotate(-24.78)" fill="#494949"/><rect x="195.1" y="162.11" width="0.68" height="1.81" transform="translate(-50.36 96.47) rotate(-24.8)" fill="#494949"/><rect x="195.99" y="164.05" width="0.68" height="1.81" transform="translate(-51.06 96.92) rotate(-24.78)" fill="#494949"/><rect x="196.89" y="165.98" width="0.68" height="1.81" transform="translate(-51.79 97.47) rotate(-24.78)" fill="#494949"/><rect x="196.13" y="161.63" width="0.68" height="1.81" transform="translate(-50.04 96.75) rotate(-24.78)" fill="#494949"/><rect x="197.02" y="163.57" width="0.68" height="1.81" transform="translate(-50.8 97.44) rotate(-24.81)" fill="#494949"/><rect x="197.92" y="165.5" width="0.68" height="1.81" transform="translate(-51.5 97.89) rotate(-24.79)" fill="#494949"/><rect x="197.16" y="161.16" width="0.68" height="1.81" transform="translate(-49.79 97.32) rotate(-24.82)" fill="#494949"/><rect x="198.06" y="163.09" width="0.68" height="1.81" transform="translate(-50.46 97.66) rotate(-24.77)" fill="#494949"/><rect x="198.95" y="165.03" width="0.68" height="1.81" transform="translate(-51.22 98.32) rotate(-24.8)" fill="#494949"/><rect x="198.19" y="160.68" width="0.68" height="1.81" transform="translate(-49.44 97.5) rotate(-24.77)" fill="#494949"/><rect x="199.09" y="162.62" width="0.68" height="1.81" transform="translate(-50.2 98.19) rotate(-24.8)" fill="#494949"/><rect x="199.98" y="164.55" width="0.68" height="1.81" transform="translate(-50.91 98.67) rotate(-24.79)" fill="#494949"/><rect x="199.23" y="160.2" width="0.68" height="1.81" transform="translate(-49.17 97.99) rotate(-24.8)" fill="#494949"/><rect x="200.12" y="162.14" width="0.68" height="1.81" transform="translate(-49.87 98.43) rotate(-24.77)" fill="#494949"/><rect x="201.01" y="164.07" width="0.68" height="1.81" transform="translate(-50.66 99.2) rotate(-24.82)" fill="#494949"/><rect x="200.26" y="159.73" width="0.68" height="1.81" transform="translate(-48.85 98.27) rotate(-24.77)" fill="#494949"/><rect x="201.15" y="161.66" width="0.68" height="1.81" transform="translate(-49.58 98.83) rotate(-24.77)" fill="#494949"/><rect x="202.05" y="163.6" width="0.68" height="1.81" transform="translate(-50.32 99.45) rotate(-24.79)" fill="#494949"/><rect x="201.29" y="159.25" width="0.68" height="1.81" transform="translate(-48.56 98.69) rotate(-24.78)" fill="#494949"/><rect x="202.18" y="161.18" width="0.68" height="1.81" transform="translate(-49.3 99.29) rotate(-24.79)" fill="#494949"/><rect x="203.08" y="163.12" width="0.67" height="1.81" transform="translate(-50.04 99.87) rotate(-24.8)" fill="#494949"/><rect x="202.32" y="158.77" width="0.68" height="1.81" transform="translate(-48.27 99.12) rotate(-24.79)" fill="#494949"/><rect x="203.22" y="160.71" width="0.68" height="1.81" transform="translate(-49 99.63) rotate(-24.78)" fill="#494949"/><rect x="204.11" y="162.64" width="0.68" height="1.81" transform="translate(-49.74 100.26) rotate(-24.8)" fill="#494949"/><rect x="203.36" y="158.3" width="0.68" height="1.81" transform="translate(-48 99.58) rotate(-24.8)" fill="#494949"/><rect x="204.25" y="160.23" width="0.68" height="1.81" transform="translate(-48.71 100.06) rotate(-24.79)" fill="#494949"/><rect x="205.14" y="162.17" width="0.68" height="1.81" transform="translate(-49.43 100.58) rotate(-24.78)" fill="#494949"/><rect x="173.36" y="153.02" width="28.19" height="7.13" transform="translate(-48.39 92.48) rotate(-24.79)" fill="#333"/><rect x="175.05" y="159.18" width="0.43" height="6.17" transform="translate(-51.93 88.01) rotate(-24.82)" fill="#231f20"/><rect x="175.71" y="158.87" width="0.43" height="6.17" transform="translate(-51.67 88.05) rotate(-24.77)" fill="#231f20"/><rect x="176.37" y="158.57" width="0.43" height="6.17" transform="translate(-51.49 88.31) rotate(-24.77)" fill="#231f20"/><rect x="177.03" y="158.26" width="0.43" height="6.17" transform="translate(-51.33 88.65) rotate(-24.8)" fill="#231f20"/><rect x="177.69" y="157.96" width="0.43" height="6.17" transform="translate(-51.12 88.85) rotate(-24.78)" fill="#231f20"/><rect x="178.35" y="157.65" width="0.43" height="6.17" transform="translate(-50.97 89.2) rotate(-24.81)" fill="#231f20"/><rect x="179.01" y="157.35" width="0.43" height="6.17" transform="translate(-50.76 89.39) rotate(-24.79)" fill="#231f20"/><rect x="179.67" y="157.05" width="0.43" height="6.17" transform="translate(-50.57 89.64) rotate(-24.79)" fill="#231f20"/><rect x="180.33" y="156.74" width="0.43" height="6.17" transform="translate(-50.37 89.83) rotate(-24.78)" fill="#231f20"/><rect x="180.99" y="156.44" width="0.43" height="6.17" transform="translate(-50.21 90.2) rotate(-24.81)" fill="#231f20"/><rect x="181.65" y="156.13" width="0.43" height="6.17" transform="translate(-49.97 90.28) rotate(-24.77)" fill="#231f20"/><rect x="182.31" y="155.83" width="0.43" height="6.17" transform="translate(-49.82 90.64) rotate(-24.8)" fill="#231f20"/><rect x="182.97" y="155.52" width="0.43" height="6.17" transform="translate(-49.65 90.94) rotate(-24.81)" fill="#231f20"/><rect x="183.63" y="155.22" width="0.43" height="6.17" transform="translate(-49.44 91.13) rotate(-24.79)" fill="#231f20"/><rect x="184.29" y="154.91" width="0.43" height="6.17" transform="translate(-49.27 91.44) rotate(-24.81)" fill="#231f20"/><rect x="184.95" y="154.61" width="0.43" height="6.17" transform="translate(-49.09 91.73) rotate(-24.82)" fill="#231f20"/><rect x="185.61" y="154.3" width="0.43" height="6.17" transform="translate(-48.89 91.94) rotate(-24.81)" fill="#231f20"/><rect x="186.27" y="154" width="0.43" height="6.17" transform="translate(-48.67 92.08) rotate(-24.78)" fill="#231f20"/><rect x="186.93" y="153.69" width="0.43" height="6.17" transform="translate(-48.5 92.38) rotate(-24.8)" fill="#231f20"/><rect x="187.59" y="153.39" width="0.43" height="6.17" transform="translate(-48.31 92.64) rotate(-24.8)" fill="#231f20"/><rect x="188.25" y="153.08" width="0.43" height="6.17" transform="translate(-48.08 92.72) rotate(-24.76)" fill="#231f20"/><rect x="188.91" y="152.78" width="0.43" height="6.17" transform="translate(-47.95 93.18) rotate(-24.81)" fill="#231f20"/><rect x="189.57" y="152.47" width="0.43" height="6.17" transform="translate(-47.72 93.26) rotate(-24.77)" fill="#231f20"/><rect x="190.23" y="152.17" width="0.43" height="6.17" transform="translate(-47.53 93.51) rotate(-24.77)" fill="#231f20"/><rect x="190.89" y="151.87" width="0.43" height="6.17" transform="translate(-47.36 93.85) rotate(-24.79)" fill="#231f20"/><rect x="191.55" y="151.56" width="0.43" height="6.17" transform="translate(-47.19 94.16) rotate(-24.8)" fill="#231f20"/><rect x="192.2" y="151.26" width="0.43" height="6.17" transform="translate(-47.02 94.47) rotate(-24.82)" fill="#231f20"/><rect x="192.86" y="150.95" width="0.43" height="6.17" transform="matrix(0.91, -0.42, 0.42, 0.91, -46.79, 94.57)" fill="#231f20"/><rect x="193.52" y="150.65" width="0.43" height="6.17" transform="translate(-46.62 94.91) rotate(-24.81)" fill="#231f20"/><rect x="194.18" y="150.34" width="0.43" height="6.17" transform="translate(-46.4 95.01) rotate(-24.77)" fill="#231f20"/><rect x="194.84" y="150.04" width="0.43" height="6.17" transform="translate(-46.21 95.24) rotate(-24.77)" fill="#231f20"/><rect x="195.5" y="149.73" width="0.43" height="6.17" transform="translate(-46.07 95.7) rotate(-24.82)" fill="#231f20"/><rect x="196.16" y="149.43" width="0.43" height="6.17" transform="translate(-45.83 95.75) rotate(-24.77)" fill="#231f20"/><rect x="196.82" y="149.12" width="0.43" height="6.17" transform="translate(-45.71 96.27) rotate(-24.83)" fill="#231f20"/><rect x="197.48" y="148.82" width="0.43" height="6.17" transform="translate(-45.47 96.3) rotate(-24.78)" fill="#231f20"/><rect x="198.14" y="148.51" width="0.43" height="6.17" transform="translate(-45.28 96.55) rotate(-24.78)" fill="#231f20"/><rect x="198.8" y="148.21" width="0.43" height="6.17" transform="matrix(0.91, -0.42, 0.42, 0.91, -45.09, 96.8)" fill="#231f20"/><rect x="199.46" y="147.9" width="0.43" height="6.17" transform="translate(-44.92 97.14) rotate(-24.8)" fill="#231f20"/><rect x="175.89" y="162.73" width="28.95" height="0.28" transform="translate(-50.76 94.28) rotate(-24.79)" fill="#fdd081"/><rect x="171.82" y="152.89" width="28.07" height="0.48" transform="translate(-47.08 91.5) rotate(-24.79)" fill="#231f20"/><rect x="170.98" y="145.72" width="23.29" height="0.81" transform="translate(-44.44 89.49) rotate(-24.79)" fill="#231f20"/><rect x="173.17" y="146.17" width="22.21" height="7.07" transform="translate(-45.79 90.52) rotate(-24.79)" fill="#5c5c5c"/><rect x="175.42" y="34" width="26.84" height="22.27" transform="translate(68.23 196.74) rotate(-65.04)" fill="#fff"/><rect x="179.35" y="32.62" width="20.9" height="20.9" transform="translate(70.67 196.41) rotate(-65.04)" fill="#58595b"/><g opacity="0.1"><g clip-path="url(#clip-path-5)"><rect x="189.1" y="28.08" width="1.02" height="32.12" transform="translate(25.48 148.28) rotate(-45.64)" fill="#fff"/><rect x="195.25" y="21.79" width="1.02" height="32.12" transform="translate(31.83 150.79) rotate(-45.64)" fill="#fff"/><rect x="185.11" y="32.47" width="0.41" height="32.12" transform="translate(21.06 146.54) rotate(-45.64)" fill="#fff"/></g></g><rect x="105.22" y="139.81" width="22.27" height="26.84" transform="translate(-75.57 166.22) rotate(-56.83)" fill="#fff"/><rect x="103.99" y="141.53" width="20.9" height="20.9" transform="matrix(0.55, -0.84, 0.84, 0.55, -75.39, 164.05)" fill="#58595b"/><g opacity="0.1"><g clip-path="url(#clip-path-6)"><rect x="110.15" y="136.53" width="2.22" height="32.12" transform="translate(-18.95 15.25) rotate(-7.49)" fill="#fff"/><rect x="112.72" y="136.27" width="1.02" height="32.12" transform="translate(-18.9 15.5) rotate(-7.49)" fill="#fff"/><rect x="121.44" y="135.13" width="1.02" height="32.12" transform="matrix(0.99, -0.13, 0.13, 0.99, -18.67, 16.63)" fill="#fff"/><rect x="106.95" y="137.07" width="0.41" height="32.12" transform="translate(-19.05 14.72) rotate(-7.49)" fill="#fff"/><rect x="119.11" y="135.47" width="0.41" height="32.12" transform="translate(-18.74 16.29) rotate(-7.49)" fill="#fff"/></g></g><rect x="43.57" y="97.17" width="22.27" height="26.84" transform="translate(-9.69 4.78) rotate(-5.14)" fill="#fff"/><rect x="44.05" y="97.86" width="20.9" height="20.9" transform="translate(-9.48 4.76) rotate(-5.14)" fill="#58595b"/><g opacity="0.1"><g clip-path="url(#clip-path-7)"><rect x="50.09" y="95.14" width="2.22" height="32.12" transform="translate(-66.94 78.57) rotate(-50.09)" fill="#fff"/><rect x="51.97" y="93.61" width="1.02" height="32.12" transform="translate(-65.31 79) rotate(-50.09)" fill="#fff"/><rect x="57.61" y="86.87" width="1.02" height="32.12" transform="translate(-58.12 80.91) rotate(-50.09)" fill="#fff"/><rect x="48.34" y="98.32" width="0.41" height="32.12" transform="translate(-70.33 77.67) rotate(-50.09)" fill="#fff"/><rect x="56.21" y="88.91" width="0.41" height="32.12" transform="translate(-60.29 80.33) rotate(-50.09)" fill="#fff"/></g></g><rect x="195.84" y="76.57" width="22.27" height="26.84" transform="translate(6.94 193.94) rotate(-51.08)" fill="#fff"/><rect x="194.74" y="78.11" width="20.9" height="20.9" transform="translate(7.39 192.02) rotate(-51.08)" fill="#58595b"/><g opacity="0.1"><g clip-path="url(#clip-path-8)"><rect x="200.64" y="73.2" width="2.22" height="32.12" transform="translate(-9.92 26.51) rotate(-7.49)" fill="#fff"/><rect x="203.21" y="72.94" width="1.02" height="32.12" transform="translate(-9.87 26.76) rotate(-7.49)" fill="#fff"/><rect x="211.93" y="71.8" width="1.02" height="32.12" transform="translate(-9.64 27.89) rotate(-7.49)" fill="#fff"/><rect x="197.43" y="73.74" width="0.41" height="32.12" transform="translate(-10.02 25.98) rotate(-7.49)" fill="#fff"/><rect x="209.6" y="72.14" width="0.41" height="32.12" transform="translate(-9.71 27.55) rotate(-7.49)" fill="#fff"/></g></g><rect x="199.86" y="111.64" width="22.27" height="26.84" transform="translate(-19.48 40.58) rotate(-10.65)" fill="#fff"/><rect x="200.12" y="112.36" width="20.9" height="20.9" transform="translate(-19.07 40.47) rotate(-10.65)" fill="#58595b"/><g opacity="0.1"><g clip-path="url(#clip-path-9)"><rect x="210.9" y="108.27" width="1.02" height="32.12" transform="translate(-25.29 187.99) rotate(-45.64)" fill="#fff"/><rect x="217.04" y="101.98" width="1.02" height="32.12" transform="translate(-18.95 190.49) rotate(-45.64)" fill="#fff"/><rect x="206.91" y="112.65" width="0.41" height="32.12" transform="translate(-29.72 186.24) rotate(-45.64)" fill="#fff"/></g></g><path d="M64.83,138.2l-.1-.06-12-7.33c-1.48,2.43,0,6.38,0,6.38l9.44,5.35,9.08,5.94s4.18-.52,5.66-2.95Z" transform="translate(0 -0.56)"/><polygon points="66.04 135.65 65.94 135.59 53.92 128.26 52.71 130.24 64.73 137.58 64.83 137.64 76.86 144.97 78.07 142.99 66.04 135.65" fill="#333"/><polygon points="69.85 129.4 69.76 129.34 57.73 122.01 53.92 128.26 65.94 135.59 66.04 135.65 78.07 142.99 81.88 136.74 69.85 129.4"/><polygon points="73.18 123.95 73.08 123.89 60.81 116.4 57.48 121.86 69.76 129.34 69.85 129.4 82.13 136.89 85.46 131.43 73.18 123.95" fill="#333"/><polygon points="74.78 121.32 74.69 121.26 60.62 112.68 60.81 116.4 73.08 123.89 73.18 123.95 85.46 131.43 88.85 129.89 74.78 121.32"/><polygon points="78.81 114.72 78.71 114.66 64.65 106.09 60.62 112.68 74.69 121.26 74.78 121.32 88.85 129.89 92.87 123.29 78.81 114.72" fill="#333"/><polygon points="79.9 112.93 79.8 112.87 63.75 103.09 64.65 106.09 78.71 114.66 78.81 114.72 92.87 123.29 95.94 122.72 79.9 112.93"/><path d="M100.34,113.17c-1.66-.06-2,.3-2.13-1.64s-.24-6.47-1.69-7.36l-8-4.86-.1-.06-8-4.86C79,93.5,75,95.52,73.16,96.25s-1.62.31-2.43-1.14-1-1.18-1-1.18l-5.93,9.72,16,9.78.1.06,16,9.78,5.93-9.72S102,113.23,100.34,113.17Z" transform="translate(0 -0.56)" fill="#333"/><rect x="59.2" y="110.03" width="7.73" height="0.36" transform="translate(-63.86 106.15) rotate(-58.64)" fill="#5c5c5c"/><rect x="59.92" y="110.47" width="7.73" height="0.36" transform="translate(-63.89 107.03) rotate(-58.66)" fill="#5c5c5c"/><rect x="60.64" y="110.91" width="7.73" height="0.36" transform="translate(-63.92 107.81) rotate(-58.64)" fill="#5c5c5c"/><rect x="61.36" y="111.35" width="7.73" height="0.36" transform="matrix(0.52, -0.85, 0.85, 0.52, -63.95, 108.61)" fill="#5c5c5c"/><rect x="62.09" y="111.79" width="7.73" height="0.36" transform="translate(-63.98 109.37) rotate(-58.6)" fill="#5c5c5c"/><rect x="62.81" y="112.23" width="7.73" height="0.36" transform="translate(-64.01 110.29) rotate(-58.64)" fill="#5c5c5c"/><rect x="63.53" y="112.67" width="7.73" height="0.36" transform="translate(-64.04 111.03) rotate(-58.61)" fill="#5c5c5c"/><rect x="64.25" y="113.11" width="7.73" height="0.36" transform="translate(-64.07 111.86) rotate(-58.61)" fill="#5c5c5c"/><rect x="64.97" y="113.54" width="7.73" height="0.36" transform="translate(-64.1 112.68) rotate(-58.61)" fill="#5c5c5c"/><rect x="65.69" y="113.98" width="7.73" height="0.36" transform="translate(-64.13 113.5) rotate(-58.61)" fill="#5c5c5c"/><rect x="66.41" y="114.42" width="7.73" height="0.36" transform="translate(-64.16 114.44) rotate(-58.65)" fill="#5c5c5c"/><rect x="67.13" y="114.86" width="7.73" height="0.36" transform="translate(-64.19 115.16) rotate(-58.61)" fill="#5c5c5c"/><rect x="67.85" y="115.3" width="7.73" height="0.36" transform="translate(-64.22 116.07) rotate(-58.65)" fill="#5c5c5c"/><rect x="68.57" y="115.74" width="7.73" height="0.36" transform="translate(-64.25 116.81) rotate(-58.61)" fill="#5c5c5c"/><rect x="69.29" y="116.18" width="7.73" height="0.36" transform="translate(-64.28 117.71) rotate(-58.64)" fill="#5c5c5c"/><rect x="70.02" y="116.62" width="7.73" height="0.36" transform="translate(-64.31 118.46) rotate(-58.61)" fill="#5c5c5c"/><rect x="70.74" y="117.06" width="7.73" height="0.36" transform="translate(-64.34 119.28) rotate(-58.6)" fill="#5c5c5c"/><rect x="71.46" y="117.5" width="7.73" height="0.36" transform="translate(-64.37 120.2) rotate(-58.64)" fill="#5c5c5c"/><rect x="72.18" y="117.94" width="7.73" height="0.36" transform="translate(-64.4 120.94) rotate(-58.61)" fill="#5c5c5c"/><rect x="72.9" y="118.38" width="7.73" height="0.36" transform="matrix(0.52, -0.85, 0.85, 0.52, -64.43, 121.83)" fill="#5c5c5c"/><rect x="73.62" y="118.82" width="7.73" height="0.36" transform="translate(-64.46 122.59) rotate(-58.6)" fill="#5c5c5c"/><rect x="74.34" y="119.26" width="7.73" height="0.36" transform="translate(-64.48 123.49) rotate(-58.63)" fill="#5c5c5c"/><rect x="75.06" y="119.7" width="7.73" height="0.36" transform="translate(-64.52 124.26) rotate(-58.61)" fill="#5c5c5c"/><rect x="75.78" y="120.14" width="7.73" height="0.36" transform="translate(-64.55 125.09) rotate(-58.61)" fill="#5c5c5c"/><rect x="76.5" y="120.58" width="7.73" height="0.36" transform="translate(-64.57 125.97) rotate(-58.64)" fill="#5c5c5c"/><rect x="77.22" y="121.02" width="7.73" height="0.36" transform="translate(-64.61 126.74) rotate(-58.62)" fill="#5c5c5c"/><rect x="77.95" y="121.46" width="7.73" height="0.36" transform="translate(-64.63 127.6) rotate(-58.63)" fill="#5c5c5c"/><rect x="78.67" y="121.9" width="7.73" height="0.36" transform="translate(-64.66 128.43) rotate(-58.63)" fill="#5c5c5c"/><rect x="79.39" y="122.34" width="7.73" height="0.36" transform="translate(-64.69 129.27) rotate(-58.64)" fill="#5c5c5c"/><rect x="80.11" y="122.78" width="7.73" height="0.36" transform="translate(-64.72 130.05) rotate(-58.62)" fill="#5c5c5c"/><rect x="80.83" y="123.22" width="7.73" height="0.36" transform="translate(-64.75 130.88) rotate(-58.62)" fill="#5c5c5c"/><rect x="81.55" y="123.66" width="7.73" height="0.36" transform="translate(-64.78 131.71) rotate(-58.62)" fill="#5c5c5c"/><rect x="82.27" y="124.09" width="7.73" height="0.36" transform="translate(-64.81 132.61) rotate(-58.65)" fill="#5c5c5c"/><rect x="82.99" y="124.53" width="7.73" height="0.36" transform="translate(-64.84 133.38) rotate(-58.63)" fill="#5c5c5c"/><rect x="83.71" y="124.97" width="7.73" height="0.36" transform="translate(-64.87 134.24) rotate(-58.64)" fill="#5c5c5c"/><rect x="84.43" y="125.41" width="7.73" height="0.36" transform="translate(-64.91 134.92) rotate(-58.58)" fill="#5c5c5c"/><rect x="85.15" y="125.85" width="7.73" height="0.36" transform="translate(-64.93 135.94) rotate(-58.66)" fill="#5c5c5c"/><rect x="85.88" y="126.29" width="7.73" height="0.36" transform="translate(-64.96 136.66) rotate(-58.62)" fill="#5c5c5c"/><rect x="86.6" y="126.73" width="7.73" height="0.36" transform="translate(-64.99 137.57) rotate(-58.65)" fill="#5c5c5c"/><rect x="56.76" y="124" width="2.02" height="0.58" transform="translate(-78.42 108.31) rotate(-58.61)" fill="#333"/><rect x="55.61" y="125.89" width="2.02" height="0.58" transform="translate(-80.59 108.28) rotate(-58.63)" fill="#333"/><rect x="54.46" y="127.78" width="2.02" height="0.58" transform="translate(-82.75 108.2) rotate(-58.63)" fill="#333"/><rect x="57.83" y="124.65" width="2.02" height="0.58" transform="matrix(0.52, -0.85, 0.85, 0.52, -78.47, 109.58)" fill="#333"/><rect x="56.68" y="126.54" width="2.02" height="0.58" transform="translate(-80.63 109.5) rotate(-58.63)" fill="#333"/><rect x="55.53" y="128.43" width="2.02" height="0.58" transform="translate(-82.8 109.43) rotate(-58.63)" fill="#333"/><rect x="58.9" y="125.31" width="2.02" height="0.58" transform="translate(-78.51 110.81) rotate(-58.63)" fill="#333"/><rect x="57.75" y="127.19" width="2.02" height="0.58" transform="translate(-80.68 110.72) rotate(-58.63)" fill="#333"/><rect x="56.6" y="129.08" width="2.02" height="0.58" transform="matrix(0.52, -0.85, 0.85, 0.52, -82.84, 110.65)" fill="#333"/><rect x="59.97" y="125.96" width="2.02" height="0.58" transform="translate(-78.56 112.08) rotate(-58.65)" fill="#333"/><rect x="58.82" y="127.85" width="2.02" height="0.58" transform="matrix(0.52, -0.85, 0.85, 0.52, -80.72, 111.95)" fill="#333"/><rect x="57.67" y="129.74" width="2.02" height="0.58" transform="translate(-82.88 111.83) rotate(-58.61)" fill="#333"/><rect x="61.04" y="126.61" width="2.02" height="0.58" transform="translate(-78.6 113.25) rotate(-58.63)" fill="#333"/><rect x="59.89" y="128.5" width="2.02" height="0.58" transform="matrix(0.52, -0.85, 0.85, 0.52, -80.77, 113.18)" fill="#333"/><rect x="58.74" y="130.39" width="2.02" height="0.58" transform="translate(-82.93 113.09) rotate(-58.63)" fill="#333"/><rect x="62.11" y="127.26" width="2.02" height="0.58" transform="matrix(0.52, -0.85, 0.85, 0.52, -78.65, 114.47)" fill="#333"/><rect x="60.96" y="129.15" width="2.02" height="0.58" transform="matrix(0.52, -0.85, 0.85, 0.52, -80.81, 114.39)" fill="#333"/><rect x="59.81" y="131.04" width="2.02" height="0.58" transform="matrix(0.52, -0.85, 0.85, 0.52, -82.98, 114.36)" fill="#333"/><rect x="63.18" y="127.92" width="2.02" height="0.58" transform="translate(-78.69 115.7) rotate(-58.63)" fill="#333"/><rect x="62.03" y="129.8" width="2.02" height="0.58" transform="translate(-80.85 115.62) rotate(-58.63)" fill="#333"/><rect x="60.88" y="131.69" width="2.02" height="0.58" transform="translate(-83.02 115.54) rotate(-58.63)" fill="#333"/><rect x="64.25" y="128.57" width="2.02" height="0.58" transform="matrix(0.52, -0.85, 0.85, 0.52, -78.73, 116.94)" fill="#333"/><rect x="63.1" y="130.46" width="2.02" height="0.58" transform="matrix(0.52, -0.85, 0.85, 0.52, -80.9, 116.84)" fill="#333"/><rect x="61.95" y="132.35" width="2.02" height="0.58" transform="translate(-83.06 116.77) rotate(-58.62)" fill="#333"/><rect x="65.32" y="129.22" width="2.02" height="0.58" transform="translate(-78.78 118.14) rotate(-58.62)" fill="#333"/><rect x="64.17" y="131.11" width="2.02" height="0.58" transform="translate(-80.94 118.04) rotate(-58.61)" fill="#333"/><rect x="63.02" y="133" width="2.02" height="0.58" transform="translate(-83.11 118.03) rotate(-58.64)" fill="#333"/><rect x="66.39" y="129.87" width="2.02" height="0.58" transform="translate(-78.82 119.38) rotate(-58.63)" fill="#333"/><rect x="65.24" y="131.76" width="2.02" height="0.58" transform="translate(-80.99 119.31) rotate(-58.63)" fill="#333"/><rect x="64.09" y="133.65" width="2.02" height="0.58" transform="matrix(0.52, -0.85, 0.85, 0.52, -83.15, 119.24)" fill="#333"/><rect x="67.46" y="130.53" width="2.02" height="0.58" transform="matrix(0.52, -0.85, 0.85, 0.52, -78.87, 120.62)" fill="#333"/><rect x="66.31" y="132.41" width="2.02" height="0.58" transform="translate(-81.03 120.49) rotate(-58.61)" fill="#333"/><rect x="65.16" y="134.3" width="2.02" height="0.58" transform="matrix(0.52, -0.85, 0.85, 0.52, -83.2, 120.46)" fill="#333"/><rect x="68.53" y="131.18" width="2.02" height="0.58" transform="translate(-78.91 121.8) rotate(-58.61)" fill="#333"/><rect x="67.38" y="133.07" width="2.02" height="0.58" transform="matrix(0.52, -0.85, 0.85, 0.52, -81.07, 121.77)" fill="#333"/><rect x="66.23" y="134.96" width="2.02" height="0.58" transform="matrix(0.52, -0.85, 0.85, 0.52, -83.24, 121.69)" fill="#333"/><rect x="69.6" y="131.83" width="2.02" height="0.58" transform="translate(-78.95 123.05) rotate(-58.62)" fill="#333"/><rect x="68.45" y="133.72" width="2.02" height="0.58" transform="translate(-81.12 122.98) rotate(-58.63)" fill="#333"/><rect x="67.3" y="135.61" width="2.02" height="0.58" transform="translate(-83.28 122.85) rotate(-58.61)" fill="#333"/><rect x="70.67" y="132.48" width="2.02" height="0.58" transform="translate(-79 124.31) rotate(-58.64)" fill="#333"/><rect x="69.52" y="134.37" width="2.02" height="0.58" transform="matrix(0.52, -0.85, 0.85, 0.52, -81.16, 124.22)" fill="#333"/><rect x="68.37" y="136.26" width="2.02" height="0.58" transform="translate(-83.32 124.09) rotate(-58.61)" fill="#333"/><rect x="71.74" y="133.14" width="2.02" height="0.58" transform="translate(-79.04 125.54) rotate(-58.64)" fill="#333"/><rect x="70.59" y="135.02" width="2.02" height="0.58" transform="translate(-81.21 125.46) rotate(-58.64)" fill="#333"/><rect x="69.44" y="136.91" width="2.02" height="0.58" transform="translate(-83.37 125.38) rotate(-58.64)" fill="#333"/><rect x="72.81" y="133.79" width="2.02" height="0.58" transform="translate(-79.09 126.72) rotate(-58.62)" fill="#333"/><rect x="71.66" y="135.68" width="2.02" height="0.58" transform="translate(-81.25 126.71) rotate(-58.64)" fill="#333"/><rect x="70.51" y="137.56" width="2.02" height="0.58" transform="translate(-83.41 126.57) rotate(-58.62)" fill="#333"/><rect x="73.88" y="134.44" width="2.02" height="0.58" transform="translate(-79.13 127.96) rotate(-58.62)" fill="#333"/><rect x="72.73" y="136.33" width="2.02" height="0.58" transform="translate(-81.29 127.87) rotate(-58.62)" fill="#333"/><rect x="71.58" y="138.22" width="2.02" height="0.58" transform="translate(-83.46 127.84) rotate(-58.64)" fill="#333"/><rect x="74.95" y="135.09" width="2.02" height="0.58" transform="matrix(0.52, -0.85, 0.85, 0.52, -79.18, 129.27)" fill="#333"/><rect x="73.8" y="136.98" width="2.02" height="0.58" transform="translate(-81.34 129.1) rotate(-58.62)" fill="#333"/><rect x="72.65" y="138.87" width="2.02" height="0.58" transform="translate(-83.5 129.02) rotate(-58.62)" fill="#333"/><rect x="76.02" y="135.75" width="2.02" height="0.58" transform="translate(-79.22 130.41) rotate(-58.62)" fill="#333"/><rect x="74.87" y="137.63" width="2.02" height="0.58" transform="translate(-81.38 130.33) rotate(-58.62)" fill="#333"/><rect x="73.72" y="139.52" width="2.02" height="0.58" transform="translate(-83.55 130.31) rotate(-58.64)" fill="#333"/><rect x="77.09" y="136.4" width="2.02" height="0.58" transform="translate(-79.26 131.68) rotate(-58.64)" fill="#333"/><rect x="75.94" y="138.29" width="2.02" height="0.58" transform="translate(-81.43 131.55) rotate(-58.62)" fill="#333"/><rect x="74.79" y="140.17" width="2.02" height="0.58" transform="translate(-83.59 131.53) rotate(-58.64)" fill="#333"/><rect x="78.16" y="137.05" width="2.02" height="0.58" transform="translate(-79.31 132.86) rotate(-58.62)" fill="#333"/><rect x="77.01" y="138.94" width="2.02" height="0.58" transform="translate(-81.47 132.85) rotate(-58.65)" fill="#333"/><rect x="75.86" y="140.83" width="2.02" height="0.58" transform="translate(-83.63 132.66) rotate(-58.61)" fill="#333"/><rect x="79.23" y="137.7" width="2.02" height="0.58" transform="translate(-79.35 134.08) rotate(-58.62)" fill="#333"/><rect x="78.08" y="139.59" width="2.02" height="0.58" transform="matrix(0.52, -0.85, 0.85, 0.52, -81.51, 134.01)" fill="#333"/><rect x="76.93" y="141.48" width="2.02" height="0.58" transform="translate(-83.68 133.99) rotate(-58.64)" fill="#333"/><rect x="70.11" y="114.84" width="0.2" height="28.87" transform="translate(-76.72 121.36) rotate(-58.63)" fill="#fdd081"/><rect x="72.64" y="110.68" width="0.2" height="28.87" transform="translate(-71.96 121.53) rotate(-58.63)" fill="#fdd081"/><rect x="80.82" y="92.85" width="0.2" height="37.7" transform="translate(-56.58 122.08) rotate(-58.63)" fill="#fdd081"/><rect x="61.69" y="118.63" width="2.07" height="6.48" rx="0.62" ry="0.62" transform="translate(-73.99 111.41) rotate(-58.63)" fill="#fdd081"/><rect x="63.3" y="121.41" width="1.69" height="2.66" rx="0.51" ry="0.51" transform="translate(-74.04 113.04) rotate(-58.62)"/><path d="M34.38,140.88s4.42-7.26,6.38-6.07l6.61,4L73.78,155a2.25,2.25,0,0,0,2.84-.05c1.71-1.13,8.83-3.81,11.71-2s5.6,10.69.78,18.6-8,10.43-11.55,8.27a8.34,8.34,0,0,1-1.71-1.81c-.74-1.09-3.22-2.47-4.91-3.25s-10.53-6.17-10.53-6.17S38,157.77,33.13,153.4c0,0-3.62-1.18-1.18-6.85A28.75,28.75,0,0,1,34.38,140.88Z" transform="translate(0 -0.56)" fill="#333"/><circle cx="39.31" cy="146.14" r="5.39" transform="translate(-105.93 103.07) rotate(-58.63)"/><path d="M71,148.69s1-3-1.46-4.71a106.07,106.07,0,0,1-7.37,14.27,80.55,80.55,0,0,1-8,11.31L48,165.77,41.79,162a80.58,80.58,0,0,1,6.41-12.26,106,106,0,0,1,9.32-13.09c-2.7-1.65-5.05.75-5.05.75-5.52,5.7-13,20.27-13,20.27a7.68,7.68,0,0,0,1.53,5c1,1.83,5.66,4.37,6,4.55s4.71,3.2,6.8,3.25a7.68,7.68,0,0,0,5.17-.94S68.5,156.2,71,148.69Z" transform="translate(0 -0.56)"/><path d="M41.79,162l6.23,3.8,6.23,3.8a80.55,80.55,0,0,0,8-11.31A106.07,106.07,0,0,0,69.58,144c-1-.36-6.22-3.36-6.22-3.36-5.26-3.21-5.83-4-5.83-4a106,106,0,0,0-9.32,13.09A80.58,80.58,0,0,0,41.79,162Z" transform="translate(0 -0.56)" fill="#333"/><path d="M69.58,144l-.19-.13a67.53,67.53,0,0,0-5.63-4.07h0a67.61,67.61,0,0,0-6.2-3.14s.57.79,5.83,4C63.36,140.62,68.54,143.63,69.58,144Z" transform="translate(0 -0.56)" fill="#5c5c5c"/><rect x="46.86" y="157.52" width="6.9" height="8.46" transform="translate(-113.99 119.94) rotate(-58.63)" fill="#bcbec0"/><rect x="46.98" y="159.42" width="6.9" height="4.82" transform="translate(-113.99 120.07) rotate(-58.63)" fill="#f1f2f2"/><path d="M63.94,151.29c1.11-4,.16-9.06-1.2-9.88s-6.29.64-9.34,3.46-6.54,10.73-6.54,10.73l1.64,1,3.63,2.21L55.75,161l1.64,1S62.82,155.3,63.94,151.29Z" transform="translate(0 -0.56)" fill="#5c5c5c"/><circle cx="39.31" cy="146.14" r="4.61" transform="translate(-105.93 103.07) rotate(-58.63)" fill="#5c5c5c"/><ellipse cx="40.53" cy="144.22" rx="1.06" ry="2.54" transform="translate(-103.7 103.19) rotate(-58.63)" fill="#333"/><ellipse cx="40.41" cy="148.14" rx="2.54" ry="1.06" transform="translate(-68 38.83) rotate(-29.65)" fill="#333"/><ellipse cx="37.04" cy="146.13" rx="1.06" ry="2.54" transform="translate(-1.73 -0.11) rotate(-0.68)" fill="#333"/><circle cx="39.03" cy="138.89" r="1.17" transform="translate(-99.88 99.35) rotate(-58.63)" fill="#5c5c5c"/><path d="M48.57,137.38,47,136.44l-1.56-.95c-1.17-.71-1.69,1.17-1.69,1.17L46,138l2.27,1.38S49.74,138.1,48.57,137.38Z" transform="translate(0 -0.56)"/><rect x="46.63" y="134.47" width="1.6" height="2.56" transform="translate(-93.17 105.02) rotate(-58.63)"/><rect x="69.3" y="157.36" width="8.72" height="17.89" rx="0.62" ry="0.62" transform="translate(-106.68 142.06) rotate(-58.63)" fill="none" stroke="#000" stroke-miterlimit="10"/><rect x="69.3" y="157.36" width="8.72" height="17.89" rx="0.62" ry="0.62" transform="translate(-106.68 142.06) rotate(-58.63)"/><rect x="69.92" y="157.97" width="7.48" height="16.66" transform="translate(-106.68 142.05) rotate(-58.63)" fill="#5c5c5c"/><circle cx="85.73" cy="157.33" r="3.78" transform="translate(-93.23 148.07) rotate(-58.63)"/><circle cx="85.73" cy="157.33" r="2.38" transform="translate(-93.23 148.06) rotate(-58.63)" fill="#5c5c5c"/><ellipse cx="79.56" cy="159.97" rx="1.27" ry="1.74" transform="translate(-98.45 144.07) rotate(-58.63)" fill="#5c5c5c"/><ellipse cx="86.4" cy="164.15" rx="1.27" ry="1.74" transform="translate(-98.73 151.89) rotate(-58.62)" fill="#5c5c5c"/></svg>