<?xml version="1.0" encoding="utf-8"?>
<!-- Generator: Adobe Illustrator 21.1.0, SVG Export Plug-In . SVG Version: 6.00 Build 0)  -->
<svg version="1.1" id="Layer_1" xmlns="http://www.w3.org/2000/svg" xmlns:xlink="http://www.w3.org/1999/xlink" x="0px" y="0px"
	 viewBox="0 0 240 180" style="enable-background:new 0 0 240 180;" xml:space="preserve">
<style type="text/css">
	.st0{opacity:0.34;fill:#EDE600;}
	.st1{fill:#ABABC2;}
	.st2{fill:#826158;}
	.st3{fill:#803D5E;}
	.st4{fill:url(#SVGID_1_);}
	.st5{opacity:0.4;fill:#CFF3ED;}
	.st6{clip-path:url(#SVGID_3_);}
	.st7{fill:#9DB53D;}
	.st8{fill:none;stroke:#FFFFFF;stroke-miterlimit:10;}
	.st9{fill:#9E6B8A;}
	.st10{fill:#E8ECA7;}
	.st11{fill:url(#SVGID_4_);}
	.st12{fill:url(#SVGID_5_);}
	.st13{opacity:0.6;fill:#CEF2EC;}
	.st14{opacity:0.75;fill:#603610;}
	.st15{fill:#F4F6CC;}
	.st16{fill:url(#SVGID_6_);}
	.st17{fill:#732A42;}
	.st18{fill:url(#SVGID_7_);}
	.st19{fill:url(#SVGID_8_);}
	.st20{fill:url(#SVGID_9_);}
	.st21{fill:url(#SVGID_10_);}
	.st22{fill:url(#SVGID_11_);}
	.st23{fill:#D01C35;}
	.st24{fill:#61053F;}
	.st25{opacity:0.4;fill:#CEF2EC;}
	.st26{clip-path:url(#SVGID_13_);fill:#803D5E;}
	.st27{clip-path:url(#SVGID_13_);fill:#9CB43D;}
	.st28{clip-path:url(#SVGID_15_);}
	.st29{clip-path:url(#SVGID_17_);fill:#803D5E;}
	.st30{clip-path:url(#SVGID_17_);fill:#9CB43D;}
	.st31{fill:#9CB43D;}
	.st32{fill:#F3F6B5;}
	.st33{font-family:'GlossAndBloom';}
	.st34{font-size:0.9903px;}
	.st35{fill:url(#SVGID_18_);}
	.st36{fill:url(#SVGID_19_);}
	.st37{fill:url(#SVGID_20_);}
	.st38{fill:#CE6842;}
	.st39{fill:url(#SVGID_21_);}
	.st40{fill:url(#SVGID_22_);}
	.st41{fill:url(#SVGID_23_);}
	.st42{fill:url(#SVGID_24_);}
	.st43{fill:url(#SVGID_25_);}
	.st44{fill:url(#SVGID_26_);}
	.st45{fill:url(#SVGID_27_);}
	.st46{font-family:'BodoniSvtyTwoSCITCTT-Book';}
	.st47{font-size:0.6813px;}
	.st48{font-size:0.658px;}
	.st49{opacity:0.5;}
	.st50{fill:#FFFFFF;}
	.st51{fill:#F8F9FA;}
	.st52{fill:#F1F3F4;}
	.st53{fill:#EAEDEF;}
	.st54{fill:#E3E7EA;}
	.st55{fill:#DCE0E4;}
	.st56{fill:#D5DADF;}
	.st57{fill:#CDD4DA;}
	.st58{fill:#C6CED5;}
	.st59{fill:#BFC8CF;}
	.st60{fill:#B8C2CA;}
	.st61{fill:#B1BCC5;}
	.st62{fill:#AAB6BF;}
	.st63{fill:#A3B0BA;}
	.st64{fill:#9CA9B5;}
	.st65{fill:#95A3AF;}
	.st66{fill:#8E9DAA;}
	.st67{fill:#8797A5;}
	.st68{fill:#80919F;}
	.st69{fill:#798B9A;}
	.st70{fill:#718595;}
	.st71{fill:#6A7F90;}
	.st72{fill:#63788A;}
	.st73{fill:#5C7285;}
	.st74{fill:#556C80;}
	.st75{fill:#4E667A;}
	.st76{fill:#476075;}
	.st77{opacity:0.37;}
	.st78{fill:url(#SVGID_28_);}
	.st79{fill:#0293CA;}
	.st80{fill:#D2F3F0;}
	.st81{fill:#57BFA8;}
	.st82{fill:#068364;}
	.st83{fill:#078364;}
	.st84{fill:#058263;}
	.st85{fill:#018362;}
	.st86{fill:#2E7B67;}
	.st87{fill:#E8F6F6;}
	.st88{fill:#048062;}
	.st89{fill:#008761;}
	.st90{fill:#067D5E;}
	.st91{fill:#068060;}
</style>
<rect x="-0.6" class="st0" width="240.6" height="180"/>
<title>03</title>
<polygon class="st1" points="129.8,98.8 116.2,102 116.2,96.5 129.8,95.3 "/>
<polygon class="st2" points="119.2,119.6 0.3,122.5 0.3,83.4 119.2,96.5 "/>
<polygon class="st1" points="119.2,96.5 0.3,83.4 0.3,75.2 118.2,96 "/>
<g>
	<path class="st3" d="M19.6,93.8l14.8,0.7l0.3,8.9l-15.5-1L19.6,93.8z M54.3,106.7l-15.7-1l-0.5,8.8l16.4,1.4L54.3,106.7z M35,114.2
		l-0.3-8.8l-15.7-1l-0.5,8.5L35,114.2z M73.8,107.9l-15.7-1l-0.5,9.2l16.4,1.4L73.8,107.9z M38.7,103.7l15.5,1l-0.3-9.3l-14.8-0.7
		L38.7,103.7z M73.5,96.3l-14.8-0.7l-0.5,9.3l15.5,1L73.5,96.3z M15.1,104.1l-14.3-0.9l0.6,8.3l14,1.2L15.1,104.1z M97.8,97.4
		l-0.5,10l18.9,1.2l1.5-10.2L97.8,97.4z M93.4,109.2l-15.7-1l-0.5,9.5l16.4,1.4L93.4,109.2z M96.8,119.3l17.8,1.5l1-10.1l-18.4-1.2
		L96.8,119.3z M15.1,102.2l-0.3-8.6L0.3,93l0.6,8.4L15.1,102.2z M78.3,96.5l-0.5,9.6l15.5,1L93,97.2L78.3,96.5z"/>
	
		<linearGradient id="SVGID_1_" gradientUnits="userSpaceOnUse" x1="153.5008" y1="624.5892" x2="286.284" y2="624.5892" gradientTransform="matrix(0.9253 -0.3793 -0.155 1.1443 -48.0805 -524.1144)">
		<stop  offset="0" style="stop-color:#07BAAC"/>
		<stop  offset="2.937281e-02" style="stop-color:#1EC3AE"/>
		<stop  offset="8.637393e-02" style="stop-color:#45D2B1"/>
		<stop  offset="0.1427" style="stop-color:#64DEB4"/>
		<stop  offset="0.1975" style="stop-color:#7AE6B6"/>
		<stop  offset="0.2499" style="stop-color:#88EBB7"/>
		<stop  offset="0.2976" style="stop-color:#8CEDB7"/>
		<stop  offset="0.3934" style="stop-color:#83EAB6"/>
		<stop  offset="0.5475" style="stop-color:#6CE1B4"/>
		<stop  offset="0.7404" style="stop-color:#45D2B1"/>
		<stop  offset="0.9629" style="stop-color:#11BEAD"/>
		<stop  offset="1" style="stop-color:#07BAAC"/>
	</linearGradient>
	<path class="st4" d="M3,103.8l12.2,0.8l0.3,8l-11.9-1L3,103.8z M21.1,105l13.6,0.9l0.3,8.3L20.7,113L21.1,105z M40.7,106.3
		l13.6,0.9l0.3,8.6l-14.3-1.2L40.7,106.3z M60.3,107.6l13.6,0.9l0.3,9l-14.3-1.2L60.3,107.6z M79.8,108.9l13.6,0.9l0.3,9.3
		l-14.3-1.2L79.8,108.9z M99.4,110.1l16.3,1.1l-0.9,9.6L99,119.5L99.4,110.1z M2.4,93.6l12.4,0.6l0.3,8.1L3,101.5L2.4,93.6z
		 M21.7,94.5L34.4,95l0.3,8.4l-13.4-0.8L21.7,94.5z M41.3,95.4L54,95.9l0.3,8.8l-13.4-0.8L41.3,95.4z M60.8,96.2l12.7,0.6l0.3,9.1
		l-13.4-0.8L60.8,96.2z M80.4,97.1l12.7,0.6l0.3,9.4l-13.4-0.8L80.4,97.1z M99.9,98l17.8,0.8l-1.4,9.7l-16.8-1.1L99.9,98z"/>
	<path class="st5" d="M3.2,101.4L9,93.8l5.8,0.3l-9.8,7.5L3.2,101.4z M23.4,102.8l10.5-7.8l-6.2-0.3l-6.4,7.9L23.4,102.8z M43.2,104
		l10.9-8l-6.7-0.3l-6.5,8.2L43.2,104z M63,105.2l10.6-8.4l-7.1-0.3l-6,8.6L63,105.2z M83,106.5l9.9-8.8l-7.5-0.4l-5.1,9L83,106.5z
		 M102.4,107.7l15.3-8.9l-8-0.4l-10.3,9.1L102.4,107.7z"/>
	<g>
		<polygon class="st5" points="3.5,111.6 10,104.2 15.2,104.6 5.6,111.8 		"/>
		<polygon class="st5" points="20.8,113 29.1,105.5 34.7,105.9 23,113.2 		"/>
		<polygon class="st5" points="40.5,114.7 48.3,106.7 54.3,107.2 42.9,114.8 		"/>
		<polygon class="st5" points="59.9,116.3 67.5,108 73.9,108.4 62.4,116.5 		"/>
		<polygon class="st5" points="79.5,117.9 86.6,109.3 93.4,109.7 82.1,118.1 		"/>
		<polygon class="st5" points="99,119.5 108.4,110.7 115.7,111.2 101.7,119.7 		"/>
	</g>
	<g>
		<defs>
			<path id="SVGID_2_" d="M3,103.8l12.2,0.8l0.3,8l-11.9-1L3,103.8z M21.1,105l13.6,0.9l0.3,8.3L20.7,113L21.1,105z M40.7,106.3
				l13.6,0.9l0.3,8.6l-14.3-1.2L40.7,106.3z M60.3,107.6l13.6,0.9l0.3,9l-14.3-1.2L60.3,107.6z M79.8,108.9l13.6,0.9l0.3,9.3
				l-14.3-1.2L79.8,108.9z M99.4,110.1l16.3,1.1l-0.9,9.6L99,119.5L99.4,110.1z M2.4,93.6l12.4,0.6l0.3,8.1L3,101.5L2.4,93.6z
				 M21.7,94.5L34.4,95l0.3,8.4l-13.4-0.8L21.7,94.5z M41.3,95.4L54,95.9l0.3,8.8l-13.4-0.8L41.3,95.4z M60.8,96.2l12.7,0.6l0.3,9.1
				l-13.4-0.8L60.8,96.2z M80.4,97.1l12.7,0.6l0.3,9.4l-13.4-0.8L80.4,97.1z M99.9,98l17.8,0.8l-1.4,9.7l-16.8-1.1L99.9,98z"/>
		</defs>
		<clipPath id="SVGID_3_">
			<use xlink:href="#SVGID_2_"  style="overflow:visible;"/>
		</clipPath>
		<g class="st6">
			<polygon class="st3" points="55.3,113.3 48.8,112.8 48.8,110 55.3,110.5 55.2,110.2 48.8,109.7 48.8,106.7 47.5,106.6 
				47.5,109.6 40.4,109.1 40.4,109.4 47.5,109.9 47.5,112.7 40.3,112.1 40.3,112.4 47.5,113 47.5,115.5 48.8,115.6 48.8,113.1 
				55.4,113.6 			"/>
			<polygon class="st3" points="9.8,110 16.2,110.5 16.2,110.2 9.7,109.7 9.6,107.1 16.1,107.6 16.1,107.3 9.6,106.8 9.5,104.1 
				8.2,104 8.3,106.7 3,106.3 3,106.7 8.3,107 8.4,109.6 3.2,109.2 3.2,109.5 8.5,109.9 8.6,112.3 9.9,112.4 			"/>
			<polygon class="st3" points="29.3,111.5 35.8,112.1 35.8,111.8 29.3,111.2 29.2,108.6 35.7,109 35.7,108.7 29.2,108.3 
				29.2,105.4 27.9,105.3 27.9,108.2 20.9,107.7 20.8,108 27.9,108.5 28,111.1 20.7,110.6 20.7,110.9 28,111.4 28,113.9 29.3,114 
							"/>
			<polygon class="st3" points="94.5,116.4 87.9,115.9 88,112.9 94.4,113.4 94.4,113.1 88,112.6 88.2,109.3 86.9,109.2 86.7,112.5 
				79.6,112 79.5,112.3 86.7,112.8 86.6,115.8 79.4,115.2 79.4,115.5 86.6,116.1 86.5,118.7 87.8,118.8 87.9,116.2 94.5,116.7 			
				"/>
			<polygon class="st3" points="115.9,118.1 107.4,117.5 107.6,114.3 116.2,115 116.2,114.7 107.6,114 107.8,110.6 106.5,110.5 
				106.3,113.9 99.1,113.4 99.1,113.7 106.3,114.2 106.1,117.3 99,116.8 98.9,117.1 106.1,117.6 105.9,120.3 107.2,120.4 
				107.4,117.8 115.8,118.4 			"/>
			<polygon class="st3" points="74.9,114.9 68.4,114.3 68.4,111.5 74.8,111.9 74.8,111.6 68.4,111.1 68.5,108 67.2,107.9 
				67.1,111.1 60,110.5 60,110.8 67.1,111.4 67.1,114.2 59.8,113.7 59.8,114 67,114.5 67,117.1 68.3,117.2 68.3,114.6 74.9,115.2 
							"/>
			<polygon class="st3" points="60.6,99.3 67.4,99.7 67.3,102.8 60.4,102.4 60.4,102.7 67.3,103.1 67.3,105.7 68.6,105.8 
				68.6,103.2 74.6,103.5 74.6,103.2 68.6,102.9 68.7,99.7 74.5,100.1 74.4,99.8 68.7,99.4 68.8,96.5 67.5,96.4 67.4,99.4 60.6,99 
							"/>
			<polygon class="st3" points="80.1,100.4 87.2,100.8 87.1,104 80,103.6 79.9,103.9 87.1,104.3 87,107 88.3,107.1 88.4,104.4 
				94.1,104.7 94.1,104.4 88.4,104.1 88.6,100.8 94,101.1 94,100.8 88.6,100.5 88.7,97.4 87.4,97.3 87.3,100.5 80.1,100.1 			"/>
			<polygon class="st3" points="99.7,101.4 107.1,101.9 106.9,105.2 99.5,104.8 99.5,105.1 106.9,105.5 106.7,108.2 108,108.3 
				108.2,105.6 117.6,106.2 117.6,105.9 108.2,105.3 108.4,101.9 118.1,102.5 118.2,102.2 108.4,101.6 108.6,98.3 107.3,98.2 
				107.1,101.6 99.7,101.1 			"/>
			<polygon class="st3" points="2.6,99.1 8,99.5 8.1,102 9.4,102.1 9.3,99.5 15.9,99.9 15.9,99.6 9.3,99.2 9.1,96.5 15.8,96.8 
				15.8,96.5 9.1,96.2 9,93.8 7.7,93.7 7.8,96.1 2.4,95.8 2.4,96.1 7.8,96.4 8,99.1 2.6,98.8 			"/>
			<polygon class="st3" points="27.7,97.2 21.5,96.8 21.4,97.1 27.7,97.5 27.8,100.4 21.3,100 21.3,100.3 27.8,100.7 27.8,103.3 
				29.1,103.4 29.1,100.7 35.4,101.1 35.4,100.8 29.1,100.4 29,97.6 35.3,97.9 35.3,97.6 29,97.3 28.9,94.7 27.6,94.6 			"/>
			<polygon class="st3" points="41,98.2 47.5,98.6 47.5,101.6 40.8,101.2 40.8,101.5 47.5,101.9 47.5,104.5 48.8,104.6 48.8,102 
				55,102.3 55,102 48.8,101.7 48.9,98.7 54.9,99 54.9,98.7 48.9,98.4 48.9,95.6 47.6,95.5 47.5,98.3 41,97.9 			"/>
		</g>
	</g>
	<g>
		<polygon class="st7" points="54.5,113 48,112.5 48,109.7 54.4,110.2 54.4,109.9 48,109.4 48,106.8 46.7,106.7 46.7,109.3 
			40.6,108.9 40.5,109.2 46.7,109.6 46.7,112.4 40.4,111.9 40.4,112.2 46.7,112.7 46.7,115.2 48,115.3 48,112.8 54.5,113.3 		"/>
		<polygon class="st7" points="8.9,109.7 15.4,110.2 15.4,109.9 8.9,109.4 8.8,106.8 15.3,107.3 15.3,107 8.8,106.5 8.7,104.2 
			7.4,104.1 7.5,106.4 3.1,106.1 3.2,106.4 7.5,106.7 7.6,109.3 3.3,108.9 3.4,109.2 7.6,109.6 7.7,112 9,112.1 		"/>
		<polygon class="st7" points="28.4,111.2 34.9,111.8 34.9,111.4 28.4,110.9 28.4,108.3 34.8,108.7 34.8,108.4 28.4,108 28.3,105.5 
			27,105.4 27.1,107.9 21,107.4 21,107.7 27.1,108.2 27.1,110.8 20.8,110.3 20.8,110.6 27.1,111.1 27.2,113.6 28.5,113.7 		"/>
		<polygon class="st7" points="93.6,116.1 87,115.6 87.2,112.6 93.5,113.1 93.5,112.8 87.2,112.3 87.3,109.3 86,109.3 85.9,112.2 
			79.7,111.7 79.7,112 85.9,112.5 85.7,115.5 79.5,115 79.5,115.3 85.7,115.8 85.6,118.4 86.9,118.5 87,115.9 93.6,116.4 		"/>
		<polygon class="st7" points="115,117.8 106.6,117.1 106.8,114 115.3,114.7 115.3,114.4 106.8,113.7 107,110.6 105.7,110.5 
			105.5,113.6 99.2,113.2 99.2,113.5 105.5,113.9 105.3,117 99.1,116.6 99.1,116.9 105.3,117.3 105.1,120 106.4,120.1 106.6,117.4 
			115,118.1 		"/>
		<polygon class="st7" points="74.1,114.6 67.5,114 67.6,111.1 74,111.6 74,111.3 67.6,110.8 67.7,108.1 66.3,108 66.3,110.8 
			60.1,110.3 60.1,110.6 66.3,111.1 66.2,113.9 60,113.4 59.9,113.7 66.2,114.2 66.1,116.8 67.4,116.9 67.5,114.3 74.1,114.9 		"/>
		<polygon class="st7" points="60.7,99.1 66.5,99.4 66.5,102.5 60.5,102.1 60.5,102.4 66.5,102.8 66.4,105.4 67.7,105.5 67.8,102.9 
			73.7,103.2 73.7,102.9 67.8,102.6 67.9,99.4 73.6,99.8 73.6,99.5 67.9,99.1 67.9,96.6 66.6,96.5 66.6,99.1 60.7,98.7 		"/>
		<polygon class="st7" points="80.2,100.1 86.4,100.5 86.3,103.7 80.1,103.3 80.1,103.6 86.2,104 86.1,106.7 87.4,106.8 87.6,104.1 
			93.3,104.4 93.3,104.1 87.6,103.8 87.7,100.5 93.2,100.8 93.2,100.5 87.7,100.2 87.8,97.5 86.5,97.4 86.4,100.2 80.3,99.8 		"/>
		<polygon class="st7" points="99.8,101.2 106.3,101.6 106,104.9 99.6,104.5 99.6,104.8 106,105.2 105.9,107.9 107.2,108 
			107.3,105.3 116.7,105.9 116.8,105.6 107.3,105 107.6,101.6 117.3,102.2 117.3,101.9 107.6,101.3 107.8,98.4 106.5,98.3 
			106.3,101.3 99.8,100.9 		"/>
		<polygon class="st7" points="2.8,98.9 7.1,99.1 7.2,101.7 8.6,101.8 8.4,99.2 15,99.6 15,99.3 8.4,98.9 8.3,96.2 14.9,96.5 
			14.9,96.2 8.3,95.9 8.2,93.9 6.9,93.8 7,95.8 2.5,95.5 2.6,95.9 7,96.1 7.1,98.8 2.8,98.6 		"/>
		<polygon class="st7" points="26.8,96.9 21.6,96.6 21.6,96.9 26.8,97.2 26.9,100.1 21.4,99.7 21.4,100 26.9,100.4 27,103 
			28.3,103.1 28.2,100.4 34.6,100.8 34.6,100.5 28.2,100.1 28.1,97.3 34.5,97.6 34.5,97.3 28.1,97 28.1,94.8 26.8,94.7 		"/>
		<polygon class="st7" points="41.1,98 46.7,98.3 46.7,101.3 41,100.9 41,101.2 46.7,101.6 46.7,104.2 48,104.3 48,101.7 54.2,102 
			54.1,101.7 48,101.4 48,98.4 54,98.7 54,98.4 48,98 48,95.7 46.7,95.6 46.7,98 41.1,97.7 		"/>
	</g>
</g>
<line class="st8" x1="0.1" y1="88.7" x2="119.4" y2="98.6"/>
<line class="st8" x1="0.1" y1="116.5" x2="119.1" y2="119.4"/>
<line class="st8" x1="0.9" y1="103.1" x2="119.4" y2="109.5"/>
<line class="st8" x1="14.6" y1="90.2" x2="14.4" y2="117"/>
<line class="st8" x1="34.3" y1="91.7" x2="33.4" y2="117.4"/>
<polygon class="st3" points="172.1,91.5 171.1,121.5 181.1,121.5 182.3,96.9 "/>
<polygon class="st9" points="185,97 173.7,90.4 173.8,88.8 185.1,95.7 "/>
<polygon class="st9" points="172.1,88.4 172.9,89 172.1,89.2 "/>
<polygon class="st10" points="123.9,121.5 123.9,120.8 141.6,120.6 141.6,121.5 "/>
<rect x="141.6" y="120.6" class="st9" width="5.4" height="1"/>
<polygon class="st10" points="126.8,119.7 141.1,119.5 141.1,120.6 126.8,120.7 "/>
<rect x="141.1" y="119.5" class="st9" width="3.9" height="1.1"/>
<polygon class="st10" points="130.2,117.8 130.3,119.6 132.5,119.6 132.5,117.7 "/>
<polygon class="st10" points="138.3,117.5 140.7,117.3 140.7,119.5 138.4,119.5 "/>
<rect x="140.7" y="117.3" class="st9" width="2.2" height="2.1"/>
<polygon class="st10" points="160,93.7 160,94.2 167.4,92.5 167.4,91.9 "/>
<polygon class="st9" points="167.4,91.9 177.3,94.6 177.3,95.1 167.4,92.5 "/>
<polygon class="st10" points="158.6,94.5 167.4,92.5 167.4,93.4 158.7,95.3 "/>
<polygon class="st9" points="177.3,95.8 177.3,95.1 167.4,92.5 167.4,93.4 "/>
<linearGradient id="SVGID_4_" gradientUnits="userSpaceOnUse" x1="152.3251" y1="87.6373" x2="175.8597" y2="127.0579">
	<stop  offset="0" style="stop-color:#F6EE86"/>
	<stop  offset="5.293247e-03" style="stop-color:#F5EE85"/>
	<stop  offset="0.2669" style="stop-color:#D0DD4C"/>
	<stop  offset="0.3929" style="stop-color:#C2D736"/>
	<stop  offset="1" style="stop-color:#80953C"/>
</linearGradient>
<polygon class="st11" points="160,95.5 161.5,122.5 168.9,122.5 167.6,93.7 "/>
<polygon class="st3" points="178.1,122.5 168.9,122.5 167.6,93.7 177.3,96.2 "/>
<rect x="204.8" y="121.5" class="st9" width="4.3" height="1"/>
<path class="st3" d="M165.4,118.3l-1.5,0.1l-0.3-7l1.5-0.1L165.4,118.3z M165,110.4l-0.3-6.5l-1.4,0.2l0.3,6.5L165,110.4z
	 M162.7,104.1l-1.4,0.2l0.4,6.4l1.4-0.1L162.7,104.1z M164.6,102.9l-0.4-6.8l-1.4,0.3l0.3,6.8L164.6,102.9z M166.6,103.6l-1.5,0.2
	l0.3,6.6l1.5-0.1L166.6,103.6z M163.1,111.4l-1.3,0.1l0.4,6.9l1.3-0.1L163.1,111.4z M165.5,111.2l0.3,7.1l1.5-0.1l-0.4-7.1
	L165.5,111.2z M162.7,103.2l-0.4-6.7l-1.4,0.3l0.4,6.7L162.7,103.2z M165.1,102.8l1.5-0.2l-0.3-6.9l-1.4,0.3L165.1,102.8z"/>
<linearGradient id="SVGID_5_" gradientUnits="userSpaceOnUse" x1="161.2643" y1="107.2436" x2="167.3395" y2="107.2436">
	<stop  offset="0" style="stop-color:#07B9AB"/>
	<stop  offset="2.830035e-02" style="stop-color:#1DC2AD"/>
	<stop  offset="8.552168e-02" style="stop-color:#44D1B0"/>
	<stop  offset="0.1421" style="stop-color:#63DDB3"/>
	<stop  offset="0.1971" style="stop-color:#79E5B5"/>
	<stop  offset="0.2497" style="stop-color:#87EAB6"/>
	<stop  offset="0.2976" style="stop-color:#8BECB6"/>
	<stop  offset="0.394" style="stop-color:#82E9B5"/>
	<stop  offset="0.5488" style="stop-color:#6BE0B3"/>
	<stop  offset="0.7428" style="stop-color:#44D1B0"/>
	<stop  offset="0.9665" style="stop-color:#10BCAC"/>
	<stop  offset="1" style="stop-color:#07B9AB"/>
</linearGradient>
<path class="st12" d="M162.1,111.9l1-0.1l0.4,6.6l-1,0L162.1,111.9z M163.9,111.7l1.1-0.1l0.4,6.7l-1.2,0L163.9,111.7z M165.9,111.6
	l1.1-0.1l0.3,6.8l-1.1,0L165.9,111.6z M161.7,104.6l1-0.1l0.3,6.1l-1,0.1L161.7,104.6z M163.6,104.4l1.1-0.1l0.3,6.2l-1.1,0.1
	L163.6,104.4z M165.5,104.1l1.1-0.2l0.3,6.3l-1.1,0.1L165.5,104.1z M161.3,97.1l1.1-0.2l0.3,6.4l-1,0.2L161.3,97.1z M163.2,96.7
	l1.1-0.2l0.3,6.5l-1.1,0.2L163.2,96.7z M165.2,96.3l1.1-0.2l0.3,6.6l-1.1,0.2L165.2,96.3z"/>
<rect x="182.3" y="121.5" class="st10" width="22.5" height="1"/>
<path class="st13" d="M166,111.6l-0.1,1.2l-0.1-1.2L166,111.6z M166.1,110.3l0.4-6.3l-0.9,0.1l0.3,6.2L166.1,110.3z M165.6,96.2
	l-0.2,4.9l0.1,1.7l1.1-0.2l0-0.1l-0.3-6.4L165.6,96.2z M165.4,118.3l-0.4-6.7l-0.1,0l-0.3,6.7L165.4,118.3z M163.2,96.7l0.3,5.8
	l0.2-5.9L163.2,96.7z M163.1,110.6l-0.3-6.1l-0.5,0.1l0.1,6.1L163.1,110.6z M163.2,112.5l0-0.8l-0.7,0.1l0.1,6.6l0.5,0L163.2,112.5z
	 M162.1,96.9l0.1,6.4l0.4-0.1l-0.3-6.4L162.1,96.9z M164.1,110.5l0.5-6.3l-0.8,0.1v6.2L164.1,110.5z"/>
<polygon class="st14" points="160,95.5 167.6,93.7 167.7,95.3 160.1,96.3 "/>
<g>
	<path class="st15" d="M181.1,121.5l0.5-12.1l0.2-6c0.1-2,0.2-4,0.3-6l0-0.2l0.2,0l2.7-0.4l-0.2,0.2l0.1-1.3l0.1,0.2L173.7,89l0.2,0
		l-0.9,0.2l-0.1,0l-0.1-0.1l-0.8-0.7l0.2,0l-24.6,6.1l-0.3,0.1v-0.3v-2v-0.2l0.2,0l1.3-0.3l-0.2,0.2v-1.1l0.1,0.2l-1.3-0.5l-0.1-0.1
		v-0.2v-2.7l0.1,0.2l-7.6-3.1l0.2,0l-10.2,3.6l0.2-0.2l0.1,2.8l0,0.2l-0.2,0.1l-1.4,0.5l0.2-0.2v1.1l-0.2-0.2l1.4,0.3l0.2,0l0,0.2
		l0.2,5.7l0,0.2l-0.2,0l-13.7,3.4l0.2-0.3l0.1,0.5l0,0.2l-0.2,0l-2,0.5l0.2-0.2l0,0.8l-0.2-0.2c0.7,0.1,1.4,0.3,2.1,0.4l0.2,0l0,0.2
		l1,17.1l-1.4-17.1l0.2,0.2c-0.7-0.1-1.4-0.2-2.1-0.4l-0.2,0l0-0.2l0-0.8l0-0.2l0.2,0l2-0.5l-0.2,0.3l-0.1-0.5l0-0.2l0.2,0l13.7-3.4
		l-0.2,0.2l-0.2-5.7l0.2,0.2l-1.4-0.3l-0.2,0v-0.2v-1.1v-0.2l0.2-0.1l1.4-0.5l-0.2,0.2l-0.1-2.8l0-0.2l0.2-0.1l10.2-3.6l0.1,0l0.1,0
		l7.6,3.1l0.1,0.1v0.2v2.7l-0.1-0.2l1.3,0.5l0.1,0.1v0.2v1.1v0.2l-0.2,0l-1.3,0.3l0.2-0.2v2l-0.3-0.2l24.6-6.1l0.1,0l0.1,0.1
		l0.8,0.7l-0.2,0l0.9-0.2l0.1,0l0.1,0l11.3,6.9l0.1,0.1l0,0.1l-0.1,1.3l0,0.2l-0.2,0l-2.7,0.4l0.2-0.2c-0.1,2-0.2,4-0.3,6l-0.4,6
		L181.1,121.5z"/>
	<linearGradient id="SVGID_6_" gradientUnits="userSpaceOnUse" x1="110.2368" y1="96.0297" x2="187.9037" y2="119.5605">
		<stop  offset="0" style="stop-color:#FFCB71"/>
		<stop  offset="6.923252e-02" style="stop-color:#FCC764"/>
		<stop  offset="0.3867" style="stop-color:#F0B82B"/>
		<stop  offset="0.5397" style="stop-color:#EBB215"/>
		<stop  offset="0.6147" style="stop-color:#E5AE14"/>
		<stop  offset="0.7144" style="stop-color:#D4A213"/>
		<stop  offset="0.8279" style="stop-color:#B98E11"/>
		<stop  offset="0.9509" style="stop-color:#92720D"/>
		<stop  offset="1" style="stop-color:#81660C"/>
	</linearGradient>
	<polygon class="st16" points="116.4,104.1 172.1,91.5 171.1,121.5 117.6,121.5 	"/>
	<polygon class="st10" points="114.3,103.2 173.8,88.8 173.7,90.4 114.3,104 	"/>
	<polygon class="st17" points="114.3,104 116.4,104.4 116.4,104.1 172.1,91.5 182.3,96.9 182.3,97.4 185,97 173.7,90.4 	"/>
	<polygon class="st10" points="116.3,102.7 116.2,102.2 172.1,88.4 172.1,89.2 	"/>
	<linearGradient id="SVGID_7_" gradientUnits="userSpaceOnUse" x1="124.6476" y1="95.449" x2="155.012" y2="114.8274">
		<stop  offset="0" style="stop-color:#FFCB71"/>
		<stop  offset="6.923252e-02" style="stop-color:#FCC764"/>
		<stop  offset="0.3867" style="stop-color:#F0B82B"/>
		<stop  offset="0.5397" style="stop-color:#EBB215"/>
		<stop  offset="0.6147" style="stop-color:#E5AE14"/>
		<stop  offset="0.7144" style="stop-color:#D4A213"/>
		<stop  offset="0.8279" style="stop-color:#B98E11"/>
		<stop  offset="0.9509" style="stop-color:#92720D"/>
		<stop  offset="1" style="stop-color:#81660C"/>
	</linearGradient>
	<polygon class="st18" points="129.6,88.4 130.6,119.6 140.6,119.5 139.8,84.8 	"/>
	<path class="st9" d="M132,111.8c-0.1-2.2,0.6-3.4,1.2-4.1c0.6-0.6,1.3-1,2.1-1c1.6,0,3.4,1.5,3.5,4.4l0.2,8.9l-6.7,0.1L132,111.8z"
		/>
	<polygon class="st3" points="139.8,84.8 140.6,119.5 142.7,119.5 142.3,98.2 141.1,97.9 141.1,96.7 142.1,96.5 142,95.8 
		147.4,94.5 147.4,87.9 	"/>
	<polygon class="st10" points="128.3,91.7 140.1,87.8 140.1,89.1 128.3,92.8 	"/>
	<polygon class="st9" points="140.1,87.8 148.7,91.1 148.7,92.2 140.1,89.1 	"/>
	<polygon class="st17" points="128.3,92.8 129.8,93.1 129.8,92.7 139.9,89.6 147.4,92.2 147.4,92.5 148.7,92.2 140.1,89.1 	"/>
	<path class="st3" d="M120,105.3l1.9-0.4l0.3,6.5l-1.9,0.2L120,105.3z M126.9,103.8l-1.9,0.4l0.3,6.8l1.9-0.2L126.9,103.8z
		 M122.7,111.3l1.9-0.2l-0.3-6.8l-1.9,0.4L122.7,111.3z M122.5,119l-0.3-6.2l-2,0.2l0.2,6.1L122.5,119z M119.7,113l-1.8,0.2l0.3,5.9
		l1.8-0.1L119.7,113z M128,118.8l2.6-0.1l-0.2-6.8l-2.6,0.3L128,118.8z M127.7,110.8l2.6-0.3l-0.2-7.4l-2.6,0.6L127.7,110.8z
		 M119.4,105.4l-1.8,0.4l0.3,6.1l1.8-0.2L119.4,105.4z M127.2,112.2l-2,0.2l0.2,6.5l2-0.1L127.2,112.2z M124.7,112.5l-2,0.2l0.2,6.3
		l2-0.1L124.7,112.5z"/>
	<linearGradient id="SVGID_8_" gradientUnits="userSpaceOnUse" x1="117.8853" y1="111.3085" x2="130.5992" y2="111.3085">
		<stop  offset="0" style="stop-color:#07B9AB"/>
		<stop  offset="2.830035e-02" style="stop-color:#1DC2AD"/>
		<stop  offset="8.552168e-02" style="stop-color:#44D1B0"/>
		<stop  offset="0.1421" style="stop-color:#63DDB3"/>
		<stop  offset="0.1971" style="stop-color:#79E5B5"/>
		<stop  offset="0.2497" style="stop-color:#87EAB6"/>
		<stop  offset="0.2976" style="stop-color:#8BECB6"/>
		<stop  offset="0.394" style="stop-color:#82E9B5"/>
		<stop  offset="0.5488" style="stop-color:#6BE0B3"/>
		<stop  offset="0.7428" style="stop-color:#44D1B0"/>
		<stop  offset="0.9665" style="stop-color:#10BCAC"/>
		<stop  offset="1" style="stop-color:#07B9AB"/>
	</linearGradient>
	<path class="st19" d="M118.3,113.5l1.4-0.2l0.3,5.7l-1.5,0.1L118.3,113.5z M120.6,113.3l1.6-0.2l0.3,5.9l-1.6,0.1L120.6,113.3z
		 M123.1,113l1.6-0.2l0.3,6.1l-1.6,0.1L123.1,113z M125.6,112.7l1.6-0.2l0.3,6.2l-1.6,0.1L125.6,112.7z M128.1,112.5l2.3-0.2
		l0.2,6.5l-2.2,0.1L128.1,112.5z M117.9,106.1l1.5-0.3l0.3,5.9l-1.5,0.2L117.9,106.1z M120.3,105.6l1.6-0.3l0.3,6.2l-1.6,0.2
		L120.3,105.6z M122.8,105.1l1.6-0.3l0.3,6.4l-1.6,0.2L122.8,105.1z M125.3,104.5l1.6-0.3l0.3,6.7l-1.6,0.2L125.3,104.5z M127.8,104
		l2.3-0.5l0.2,7l-2.3,0.3L127.8,104z"/>
	<path class="st3" d="M148.1,99.7l3.1-0.6l0.1,8.6l-3.3,0.4L148.1,99.7z M155.4,109.1l-3.3,0.4L152,118l3.5-0.1L155.4,109.1z
		 M151.3,118l-0.1-8.5l-3.3,0.4l-0.1,8.2L151.3,118z M159.6,108.7l-3.3,0.4l-0.1,8.9l3.5-0.1L159.6,108.7z M152.1,107.6l3.3-0.4
		l-0.1-8.9l-3.1,0.6L152.1,107.6z M159.6,97.4l-3.1,0.6l-0.1,9l3.3-0.4L159.6,97.4z M147.1,110l-3,0.3l0.1,7.9l3-0.1L147.1,110z
		 M164.8,96.4l-0.1,9.6l4-0.5l0.3-10L164.8,96.4z M163.8,108.2l-3.3,0.4l-0.1,9.2l3.5-0.1L163.8,108.2z M164.5,117.6l3.8-0.1
		l0.2-9.8l-3.9,0.4L164.5,117.6z M147.1,108.2L147,100l-3.1,0.6l0.1,8L147.1,108.2z M160.6,97.2l-0.1,9.3l3.3-0.4l-0.1-9.5
		L160.6,97.2z"/>
	<linearGradient id="SVGID_9_" gradientUnits="userSpaceOnUse" x1="144.3908" y1="107.1677" x2="169.0036" y2="107.1677">
		<stop  offset="0" style="stop-color:#07B9AB"/>
		<stop  offset="2.830035e-02" style="stop-color:#1DC2AD"/>
		<stop  offset="8.552168e-02" style="stop-color:#44D1B0"/>
		<stop  offset="0.1421" style="stop-color:#63DDB3"/>
		<stop  offset="0.1971" style="stop-color:#79E5B5"/>
		<stop  offset="0.2497" style="stop-color:#87EAB6"/>
		<stop  offset="0.2976" style="stop-color:#8BECB6"/>
		<stop  offset="0.394" style="stop-color:#82E9B5"/>
		<stop  offset="0.5488" style="stop-color:#6BE0B3"/>
		<stop  offset="0.7428" style="stop-color:#44D1B0"/>
		<stop  offset="0.9665" style="stop-color:#10BCAC"/>
		<stop  offset="1" style="stop-color:#07B9AB"/>
	</linearGradient>
	<path class="st20" d="M144.5,110.8l2.6-0.3l0,7.7l-2.5,0.1L144.5,110.8z M148.4,110.4l2.9-0.3l0,8l-3.1,0.1L148.4,110.4z
		 M152.5,109.9l2.9-0.3l0,8.3l-3.1,0.1L152.5,109.9z M156.7,109.5l2.9-0.3l0,8.6l-3.1,0.1L156.7,109.5z M160.9,109l2.9-0.3l0,8.9
		l-3.1,0.1L160.9,109z M165.1,108.6l3.5-0.4l-0.2,9.3l-3.4,0.1L165.1,108.6z M144.4,101l2.7-0.5l0,7.8l-2.6,0.3L144.4,101z
		 M148.5,100.2l2.7-0.5l0,8.1l-2.9,0.4L148.5,100.2z M152.7,99.3l2.7-0.5l0,8.4l-2.9,0.4L152.7,99.3z M156.9,98.5l2.7-0.5l0,8.7
		l-2.9,0.4L156.9,98.5z M161,97.7l2.7-0.5l0.1,9.1l-2.9,0.4L161,97.7z M165.2,96.8l3.8-0.8l-0.3,9.5l-3.6,0.4L165.2,96.8z"/>
	<path class="st10" d="M131.8,111.8c-0.1-2.2,0.6-3.4,1.2-4.1c0.6-0.6,1.3-1,2.1-1c1.6,0,3.4,1.5,3.5,4.4l0.2,8.9l-6.7,0.1
		L131.8,111.8z"/>
	<path class="st3" d="M132.5,119.6l-0.3-7.9c-0.2-6.1,5.7-5.9,5.9-0.6l0.2,8.4L132.5,119.6z"/>
	<linearGradient id="SVGID_10_" gradientUnits="userSpaceOnUse" x1="131.8443" y1="113.9504" x2="140.9165" y2="113.2784">
		<stop  offset="0" style="stop-color:#FFCB71"/>
		<stop  offset="6.923252e-02" style="stop-color:#FCC764"/>
		<stop  offset="0.3867" style="stop-color:#F0B82B"/>
		<stop  offset="0.5397" style="stop-color:#EBB215"/>
		<stop  offset="0.6147" style="stop-color:#E5AE14"/>
		<stop  offset="0.7144" style="stop-color:#D4A213"/>
		<stop  offset="0.8279" style="stop-color:#B98E11"/>
		<stop  offset="0.9509" style="stop-color:#92720D"/>
		<stop  offset="1" style="stop-color:#81660C"/>
	</linearGradient>
	<path class="st21" d="M138.1,111.1c-0.1-1.8-0.8-3-1.7-3.5c-1.3,0.4-2.4,1.8-2.2,4.5l0.3,7.5l3.9-0.1L138.1,111.1z"/>
	<path class="st3" d="M135.2,93.2l3.4-1.1l0.2,10.2l-3.3,0.6L135.2,93.2z M133.9,93.6l-3,0.9l0.3,9.3l2.8-0.5L133.9,93.6z"/>
	<linearGradient id="SVGID_11_" gradientUnits="userSpaceOnUse" x1="131.4195" y1="98.2046" x2="138.7452" y2="98.2046">
		<stop  offset="0" style="stop-color:#07B9AB"/>
		<stop  offset="2.830035e-02" style="stop-color:#1DC2AD"/>
		<stop  offset="8.552168e-02" style="stop-color:#44D1B0"/>
		<stop  offset="0.1421" style="stop-color:#63DDB3"/>
		<stop  offset="0.1971" style="stop-color:#79E5B5"/>
		<stop  offset="0.2497" style="stop-color:#87EAB6"/>
		<stop  offset="0.2976" style="stop-color:#8BECB6"/>
		<stop  offset="0.394" style="stop-color:#82E9B5"/>
		<stop  offset="0.5488" style="stop-color:#6BE0B3"/>
		<stop  offset="0.7428" style="stop-color:#44D1B0"/>
		<stop  offset="0.9665" style="stop-color:#10BCAC"/>
		<stop  offset="1" style="stop-color:#07B9AB"/>
	</linearGradient>
	<path class="st22" d="M131.4,94.9l2.5-0.8l0.2,9.2l-2.4,0.4L131.4,94.9z M135.6,93.6l3-0.9l0.2,9.7l-2.8,0.5L135.6,93.6z"/>
	<g>
		<polygon class="st23" points="135.1,119.6 134.7,111.5 138.1,111.1 138.4,119.5 		"/>
		<polygon class="st24" points="135.2,111.9 135.5,116.6 138.3,116.6 138.1,111.5 		"/>
		<polygon class="st24" points="135.5,117 135.6,118.9 138.3,119 138.3,117 		"/>
		<polygon class="st23" points="135.5,112.1 135.7,116.5 138.3,116.5 138.1,111.7 		"/>
		<polygon class="st23" points="135.7,117.2 135.8,118.8 138.3,118.9 138.3,117.2 		"/>
	</g>
	<polygon class="st25" points="132.2,94.7 131.7,103.7 132.2,103.6 133.9,94.1 	"/>
	<polygon class="st25" points="135.9,102.9 137.2,93.1 138.6,92.7 136.5,102.8 	"/>
	<g>
		<defs>
			<path id="SVGID_12_" d="M131.4,94.9l2.5-0.8l0.2,9.2l-2.4,0.4L131.4,94.9z M135.6,93.6l3-0.9l0.2,9.7l-2.8,0.5L135.6,93.6z"/>
		</defs>
		<clipPath id="SVGID_13_">
			<use xlink:href="#SVGID_12_"  style="overflow:visible;"/>
		</clipPath>
		<path class="st26" d="M132.9,104.8l-0.2-3.6l-1.7,0.3l0-0.2l1.7-0.3l-0.2-3.6l-1.7,0.4l-0.1-0.2l1.7-0.5l-0.2-3.8l0.2,0l0.2,3.7
			L137,96l-0.2-4l0.2,0l0.2,3.9l2.3-0.6l0.1,0.2l-2.4,0.6l0.2,3.9l2.1-0.4l0,0.2l-2.2,0.4l0.2,4.1l-0.2,0l-0.2-4.1l-4.2,0.8l0.2,3.7
			L132.9,104.8z M132.7,97.3l0.2,3.6l4.2-0.8l-0.2-3.9L132.7,97.3z"/>
		<path class="st27" d="M132.7,104.6l-0.2-3.6l-1.7,0.3l0-0.2l1.7-0.3l-0.2-3.6l-1.7,0.4l-0.1-0.2l1.7-0.5l-0.2-3.8l0.2,0l0.2,3.7
			l4.3-1.1l-0.2-4l0.2,0l0.2,3.9l2.3-0.6l0.1,0.2L137,96l0.2,3.9l2.1-0.4l0,0.2l-2.2,0.4l0.2,4.1l-0.2,0l-0.2-4.1l-4.2,0.8l0.2,3.7
			L132.7,104.6z M132.5,97.1l0.2,3.6l4.2-0.8l-0.2-3.9L132.5,97.1z"/>
	</g>
	<polygon class="st25" points="118.7,106 118.2,111.9 118.7,111.8 119.4,105.8 	"/>
	<polygon class="st25" points="121.9,105.3 121,105.4 120.6,111.6 120.9,111.6 	"/>
	<polygon class="st25" points="123.1,111.3 123.7,104.8 124.4,104.7 123.4,111.2 	"/>
	<polygon class="st25" points="125.6,111 126.2,104.3 126.9,104.2 125.9,111 	"/>
	<polygon class="st25" points="128.1,110.7 129.2,103.7 130.1,103.5 128.6,110.7 	"/>
	<polygon class="st25" points="118.5,119.1 119.2,113.4 119.7,113.4 118.9,119.1 	"/>
	<polygon class="st25" points="120.9,119 121.7,113.2 122.2,113.1 121.2,119 	"/>
	<polygon class="st25" points="123.4,118.9 124.1,112.9 124.7,112.8 123.8,118.9 	"/>
	<polygon class="st25" points="125.9,118.9 126.6,112.6 127.2,112.6 126.2,118.8 	"/>
	<polygon class="st25" points="128.4,118.8 129.3,112.3 130.4,112.2 128.9,118.8 	"/>
	<path class="st25" d="M144.5,108.5l1.3-7.8l1.2-0.2l-2.1,8L144.5,108.5z M148.9,108.1l2.3-8.4l-1.3,0.2l-1.4,8.2L148.9,108.1z
		 M153.1,107.5l2.3-8.7l-1.4,0.3l-1.4,8.4L153.1,107.5z M157.3,107l2.3-9l-1.5,0.3l-1.3,8.8L157.3,107z M161.6,106.4l2.1-9.3
		l-1.6,0.3l-1.1,9.1L161.6,106.4z M165.7,105.9l3.3-9.9l-1.7,0.3l-2.2,9.6L165.7,105.9z"/>
	<g>
		<polygon class="st25" points="144.6,118.3 146,110.6 147.1,110.5 145,118.2 		"/>
		<polygon class="st25" points="148.3,118.1 150.1,110.2 151.3,110.1 148.8,118.1 		"/>
		<polygon class="st25" points="152.5,118 154.2,109.7 155.5,109.6 153,118 		"/>
		<polygon class="st25" points="156.6,117.9 158.3,109.2 159.6,109.1 157.2,117.9 		"/>
		<polygon class="st25" points="160.8,117.7 162.3,108.8 163.8,108.7 161.4,117.7 		"/>
		<polygon class="st25" points="165,117.6 167,108.3 168.5,108.2 165.6,117.6 		"/>
	</g>
	<g>
		<defs>
			<path id="SVGID_14_" d="M144.5,110.8l2.6-0.3l0,7.7l-2.5,0.1L144.5,110.8z M148.4,110.4l2.9-0.3l0,8l-3.1,0.1L148.4,110.4z
				 M152.5,109.9l2.9-0.3l0,8.3l-3.1,0.1L152.5,109.9z M156.7,109.5l2.9-0.3l0,8.6l-3.1,0.1L156.7,109.5z M160.9,109l2.9-0.3l0,8.9
				l-3.1,0.1L160.9,109z M165.1,108.6l3.5-0.4l-0.2,9.3l-3.4,0.1L165.1,108.6z M144.4,101l2.7-0.5l0,7.8l-2.6,0.3L144.4,101z
				 M148.5,100.2l2.7-0.5l0,8.1l-2.9,0.4L148.5,100.2z M152.7,99.3l2.7-0.5l0,8.4l-2.9,0.4L152.7,99.3z M156.9,98.5l2.7-0.5l0,8.7
				l-2.9,0.4L156.9,98.5z M161,97.7l2.7-0.5l0.1,9.1l-2.9,0.4L161,97.7z M165.2,96.8l3.8-0.8l-0.3,9.5l-3.6,0.4L165.2,96.8z"/>
		</defs>
		<clipPath id="SVGID_15_">
			<use xlink:href="#SVGID_14_"  style="overflow:visible;"/>
		</clipPath>
		<g class="st28">
			<polygon class="st3" points="155.7,115.4 154.3,115.5 154.3,112.8 155.7,112.7 155.7,112.4 154.3,112.5 154.3,109.6 154,109.7 
				154,112.5 152.5,112.7 152.5,112.9 154,112.8 154,115.5 152.5,115.6 152.4,115.9 154,115.8 154,118.2 154.3,118.2 154.3,115.8 
				155.7,115.7 			"/>
			<polygon class="st3" points="145.9,116.2 147.3,116.1 147.3,115.8 145.9,115.9 145.9,113.4 147.3,113.3 147.3,113 145.9,113.1 
				145.9,110.5 145.6,110.6 145.6,113.2 144.5,113.2 144.5,113.5 145.6,113.4 145.7,115.9 144.5,115.9 144.5,116.2 145.7,116.2 
				145.7,118.5 146,118.4 			"/>
			<polygon class="st3" points="150.1,116 151.5,115.9 151.5,115.6 150.1,115.7 150.1,113.1 151.5,113 151.5,112.7 150.1,112.8 
				150.1,110.1 149.8,110.1 149.8,112.8 148.3,113 148.3,113.3 149.8,113.1 149.8,115.7 148.3,115.8 148.3,116.1 149.8,116 
				149.8,118.3 150.1,118.3 			"/>
			<polygon class="st3" points="164,115 162.6,115.1 162.6,112.2 164,112.1 164,111.8 162.6,111.9 162.7,108.7 162.4,108.7 
				162.4,111.9 160.8,112 160.8,112.3 162.4,112.2 162.3,115.1 160.8,115.2 160.8,115.5 162.3,115.4 162.3,117.9 162.6,117.9 
				162.6,115.4 164,115.3 			"/>
			<polygon class="st3" points="168.6,114.8 166.8,114.9 166.8,111.9 168.6,111.8 168.7,111.5 166.8,111.6 166.9,108.2 166.6,108.3 
				166.6,111.6 165,111.7 165,112 166.5,111.9 166.5,114.9 165,115 165,115.3 166.5,115.2 166.5,117.8 166.7,117.8 166.8,115.2 
				168.6,115.1 			"/>
			<polygon class="st3" points="159.8,115.2 158.4,115.3 158.5,112.5 159.8,112.4 159.8,112.1 158.5,112.2 158.5,109.2 158.2,109.2 
				158.2,112.2 156.7,112.3 156.7,112.6 158.2,112.5 158.2,115.3 156.6,115.4 156.6,115.7 158.2,115.6 158.1,118.1 158.4,118 
				158.4,115.6 159.8,115.5 			"/>
			<polygon class="st3" points="156.8,101.5 158.3,101.3 158.2,104.3 156.8,104.4 156.8,104.7 158.2,104.6 158.2,107.1 158.5,107.1 
				158.5,104.5 159.8,104.4 159.8,104.1 158.5,104.2 158.5,101.2 159.8,101 159.8,100.7 158.5,100.9 158.6,98.1 158.3,98.1 
				158.3,101 156.8,101.2 			"/>
			<polygon class="st3" points="161,100.8 162.5,100.6 162.5,103.7 160.9,103.9 160.9,104.2 162.5,104 162.4,106.6 162.7,106.6 
				162.7,104 164,103.8 164,103.5 162.7,103.7 162.8,100.5 163.9,100.4 163.9,100.1 162.8,100.2 162.8,97.2 162.5,97.3 162.5,100.3 
				161,100.5 			"/>
			<polygon class="st3" points="165.1,100.2 166.7,99.9 166.7,103.2 165.1,103.4 165.1,103.7 166.7,103.5 166.6,106.1 166.9,106 
				167,103.4 169,103.2 169,102.9 167,103.2 167,99.9 169.1,99.6 169.1,99.3 167,99.6 167.1,96.4 166.8,96.4 166.7,99.6 165.1,99.9 
							"/>
			<polygon class="st3" points="144.4,106.3 145.6,106.2 145.6,108.7 145.9,108.6 145.8,106.1 147.3,106 147.3,105.7 145.8,105.8 
				145.8,103.2 147.2,103 147.2,102.7 145.8,102.9 145.8,100.6 145.5,100.7 145.5,102.9 144.4,103.1 144.4,103.4 145.5,103.2 
				145.6,105.9 144.4,106 			"/>
			<polygon class="st3" points="149.8,102.3 148.5,102.5 148.4,102.8 149.8,102.6 149.8,105.3 148.4,105.5 148.4,105.8 149.8,105.6 
				149.8,108.1 150.1,108.1 150.1,105.6 151.4,105.4 151.4,105.1 150.1,105.3 150.1,102.5 151.4,102.3 151.4,102 150.1,102.2 
				150.1,99.8 149.8,99.8 			"/>
			<polygon class="st3" points="152.6,102.1 154,101.9 154,104.8 152.6,105 152.6,105.3 154,105.1 154,107.6 154.3,107.6 
				154.3,105.1 155.6,104.9 155.6,104.6 154.3,104.8 154.3,101.9 155.6,101.7 155.6,101.4 154.3,101.6 154.3,98.9 154,99 154,101.6 
				152.6,101.8 			"/>
		</g>
	</g>
	<g>
		<defs>
			<path id="SVGID_16_" d="M118.3,113.5l1.4-0.2l0.3,5.7l-1.5,0.1L118.3,113.5z M120.6,113.3l1.6-0.2l0.3,5.9l-1.6,0.1L120.6,113.3z
				 M123.1,113l1.6-0.2l0.3,6.1l-1.6,0.1L123.1,113z M125.6,112.7l1.6-0.2l0.3,6.2l-1.6,0.1L125.6,112.7z M128.1,112.5l2.3-0.2
				l0.2,6.5l-2.2,0.1L128.1,112.5z M117.9,106.1l1.5-0.3l0.3,5.9l-1.5,0.2L117.9,106.1z M120.3,105.6l1.6-0.3l0.3,6.2l-1.6,0.2
				L120.3,105.6z M122.8,105.1l1.6-0.3l0.3,6.4l-1.6,0.2L122.8,105.1z M125.3,104.5l1.6-0.3l0.3,6.7l-1.6,0.2L125.3,104.5z
				 M127.8,104l2.3-0.5l0.2,7l-2.3,0.3L127.8,104z"/>
		</defs>
		<clipPath id="SVGID_17_">
			<use xlink:href="#SVGID_16_"  style="overflow:visible;"/>
		</clipPath>
		<path class="st29" d="M119.2,119.7l-0.1-2l-1.1,0.1l0-0.2l1.1-0.1l-0.1-2.1l-1.3,0.1l0-0.2l1.3-0.1l-0.2-4.9l-1.4,0.2l0-0.2
			l1.4-0.2l-0.1-2.3l-1.3,0.2l0-0.2l1.3-0.2l-0.1-2.4l0.2,0l0.1,2.3l2.4-0.4l-0.1-2.5l0.2,0l0.1,2.5l2.4-0.4l-0.1-2.7l0.2,0l0.1,2.7
			l2.4-0.4l-0.1-2.9l0.2,0l0.1,2.9l2.4-0.4l-0.1-3.1l0.2,0l0.1,3l1.6-0.3l0,0.2l-1.7,0.3l0.1,2.7l1.8-0.3l0,0.2l-1.8,0.3l0.2,5.6
			l1.6-0.1l0,0.2l-1.7,0.1l0.1,2.4l1.8-0.1l0,0.2l-1.8,0.1l0.1,2l-0.2,0l-0.1-2l-2.4,0.1l0.1,2l-0.2,0l-0.1-2l-2.4,0.1l0.1,2l-0.2,0
			l-0.1-2l-2.4,0.1l0.1,2l-0.2,0l-0.1-2l-2.4,0.1l0.1,2L119.2,119.7z M119.1,115.4l0.1,2.1l2.4-0.1l-0.1-2.1L119.1,115.4z
			 M121.7,115.2l0.1,2.1l2.4-0.1l-0.1-2.2L121.7,115.2z M124.3,115l0.1,2.2l2.4-0.1l-0.1-2.3L124.3,115z M126.9,114.8l0.1,2.3
			l2.4-0.1l-0.1-2.4L126.9,114.8z M118.9,110.3l0.2,4.9l2.4-0.2l-0.2-5.1L118.9,110.3z M121.5,109.9l0.2,5.1l2.4-0.2l-0.2-5.2
			L121.5,109.9z M124.1,109.6l0.2,5.2l2.4-0.2l-0.2-5.4L124.1,109.6z M126.7,109.2l0.2,5.4l2.4-0.2l-0.2-5.5L126.7,109.2z
			 M118.8,107.8l0.1,2.3l2.4-0.3l-0.1-2.4L118.8,107.8z M121.4,107.4l0.1,2.4l2.4-0.3l-0.1-2.5L121.4,107.4z M124,106.9l0.1,2.5
			l2.4-0.3l-0.1-2.6L124,106.9z M126.6,106.5l0.1,2.6l2.4-0.3l-0.1-2.7L126.6,106.5z"/>
		<path class="st30" d="M119.1,119.6l-0.1-2l-1.1,0.1l0-0.2l1.1-0.1l-0.1-2.1l-1.3,0.1l0-0.2l1.3-0.1l-0.2-4.9l-1.4,0.2l0-0.2
			l1.4-0.2l-0.1-2.3l-1.3,0.2l0-0.2l1.3-0.2l-0.1-2.4l0.2,0l0.1,2.3l2.4-0.4l-0.1-2.5l0.2,0l0.1,2.5l2.4-0.4l-0.1-2.7l0.2,0l0.1,2.7
			l2.4-0.4l-0.1-2.9l0.2,0l0.1,2.9l2.4-0.4l-0.1-3.1l0.2,0l0.1,3l1.6-0.3l0,0.2l-1.7,0.3l0.1,2.7l1.8-0.3l0,0.2l-1.8,0.3l0.2,5.6
			l1.6-0.1l0,0.2l-1.7,0.1l0.1,2.4l1.8-0.1l0,0.2l-1.8,0.1l0.1,2l-0.2,0l-0.1-2l-2.4,0.1l0.1,2l-0.2,0l-0.1-2l-2.4,0.1l0.1,2l-0.2,0
			l-0.1-2l-2.4,0.1l0.1,2l-0.2,0l-0.1-2l-2.4,0.1l0.1,2L119.1,119.6z M119,115.3l0.1,2.1l2.4-0.1l-0.1-2.1L119,115.3z M121.6,115.1
			l0.1,2.1l2.4-0.1l-0.1-2.2L121.6,115.1z M124.2,114.9l0.1,2.2l2.4-0.1l-0.1-2.3L124.2,114.9z M126.8,114.7l0.1,2.3l2.4-0.1
			l-0.1-2.4L126.8,114.7z M118.8,110.2l0.2,4.9l2.4-0.2l-0.2-5.1L118.8,110.2z M121.4,109.9l0.2,5.1l2.4-0.2l-0.2-5.2L121.4,109.9z
			 M124,109.5l0.2,5.2l2.4-0.2l-0.2-5.4L124,109.5z M126.6,109.1l0.2,5.4l2.4-0.2l-0.2-5.5L126.6,109.1z M118.6,107.8l0.1,2.3
			l2.4-0.3l-0.1-2.4L118.6,107.8z M121.3,107.3l0.1,2.4l2.4-0.3l-0.1-2.5L121.3,107.3z M123.9,106.8l0.1,2.5l2.4-0.3l-0.1-2.6
			L123.9,106.8z M126.5,106.4l0.1,2.6l2.4-0.3l-0.1-2.7L126.5,106.4z"/>
	</g>
	<g>
		<polygon class="st31" points="155.5,115.2 154.1,115.3 154.1,112.6 155.5,112.5 155.5,112.2 154.1,112.3 154.1,109.8 153.8,109.8 
			153.8,112.3 152.5,112.4 152.5,112.7 153.8,112.6 153.8,115.3 152.5,115.3 152.5,115.6 153.8,115.6 153.8,118 154.1,118 
			154.1,115.6 155.5,115.5 		"/>
		<polygon class="st31" points="145.8,115.9 147.1,115.9 147.1,115.6 145.8,115.7 145.7,113.2 147.1,113.1 147.1,112.8 145.7,112.9 
			145.7,110.7 145.4,110.7 145.5,112.9 144.5,113 144.5,113.3 145.5,113.2 145.5,115.7 144.6,115.7 144.6,116 145.5,116 
			145.5,118.2 145.8,118.2 		"/>
		<polygon class="st31" points="149.9,115.8 151.3,115.7 151.3,115.4 149.9,115.5 149.9,112.9 151.3,112.8 151.3,112.5 149.9,112.6 
			149.9,110.2 149.6,110.2 149.6,112.6 148.3,112.7 148.3,113 149.6,112.9 149.6,115.5 148.3,115.5 148.3,115.8 149.6,115.8 
			149.7,118.1 149.9,118.1 		"/>
		<polygon class="st31" points="163.8,114.8 162.4,114.9 162.5,112 163.8,111.9 163.8,111.6 162.5,111.7 162.5,108.8 162.2,108.9 
			162.2,111.7 160.9,111.8 160.9,112.1 162.2,112 162.2,114.9 160.8,115 160.8,115.3 162.1,115.2 162.1,117.7 162.4,117.7 
			162.4,115.2 163.8,115.1 		"/>
		<polygon class="st31" points="168.4,114.6 166.6,114.7 166.6,111.7 168.5,111.5 168.5,111.2 166.6,111.4 166.7,108.4 166.4,108.4 
			166.4,111.4 165,111.5 165,111.8 166.4,111.7 166.3,114.7 165,114.8 165,115.1 166.3,115 166.3,117.6 166.6,117.6 166.6,115 
			168.4,114.9 		"/>
		<polygon class="st31" points="159.7,115 158.3,115.1 158.3,112.3 159.6,112.2 159.6,111.9 158.3,112 158.3,109.3 158,109.3 
			158,112 156.7,112.1 156.7,112.4 158,112.3 158,115.1 156.7,115.2 156.6,115.4 158,115.4 158,117.8 158.2,117.8 158.3,115.4 
			159.7,115.3 		"/>
		<polygon class="st31" points="156.8,101.2 158.1,101 158.1,104 156.8,104.2 156.8,104.5 158.1,104.3 158,106.9 158.3,106.9 
			158.3,104.3 159.6,104.1 159.6,103.8 158.3,104 158.4,101 159.6,100.8 159.6,100.5 158.4,100.7 158.4,98.2 158.1,98.3 
			158.1,100.7 156.8,100.9 		"/>
		<polygon class="st31" points="161,100.6 162.3,100.4 162.3,103.5 161,103.7 161,104 162.3,103.8 162.2,106.4 162.5,106.3 
			162.6,103.8 163.8,103.6 163.8,103.3 162.6,103.5 162.6,100.3 163.8,100.1 163.8,99.8 162.6,100 162.6,97.4 162.3,97.4 
			162.3,100.1 161,100.3 		"/>
		<polygon class="st31" points="165.2,99.9 166.5,99.7 166.5,103 165.1,103.1 165.1,103.4 166.5,103.3 166.5,105.9 166.7,105.8 
			166.8,103.2 168.8,103 168.8,102.7 166.8,102.9 166.8,99.7 168.9,99.3 168.9,99 166.8,99.4 166.9,96.5 166.6,96.6 166.6,99.4 
			165.2,99.6 		"/>
		<polygon class="st31" points="144.5,106.1 145.4,105.9 145.4,108.4 145.7,108.4 145.7,105.9 147.1,105.7 147.1,105.4 145.7,105.6 
			145.6,103 147.1,102.8 147.1,102.5 145.6,102.7 145.6,100.8 145.3,100.8 145.4,102.7 144.4,102.9 144.4,103.2 145.4,103 
			145.4,105.7 144.5,105.8 		"/>
		<polygon class="st31" points="149.6,102.1 148.5,102.2 148.5,102.5 149.6,102.4 149.6,105.1 148.4,105.3 148.4,105.6 149.6,105.4 
			149.6,107.9 149.9,107.9 149.9,105.4 151.3,105.2 151.2,104.9 149.9,105.1 149.9,102.3 151.2,102.1 151.2,101.8 149.9,102 
			149.9,99.9 149.6,100 		"/>
		<polygon class="st31" points="152.6,101.9 153.8,101.7 153.8,104.6 152.6,104.7 152.6,105 153.8,104.9 153.8,107.4 154.1,107.4 
			154.1,104.8 155.4,104.7 155.4,104.4 154.1,104.5 154.1,101.7 155.4,101.4 155.4,101.2 154.1,101.4 154.1,99.1 153.8,99.1 
			153.8,101.4 152.7,101.6 		"/>
	</g>
	<polygon class="st14" points="129.8,92.7 139.9,89.6 139.9,91.7 129.8,93.6 	"/>
	<polygon class="st14" points="116.4,104.1 129.9,101 130,102.9 116.4,104.9 	"/>
	<polygon class="st32" points="130.2,119.6 130.1,117.8 130.1,117.7 130.2,117.7 130.6,117.8 130.5,117.8 129.7,98.6 129.9,98.6 
		130.7,117.8 130.7,117.9 130.6,117.9 130.2,117.9 130.3,117.8 130.3,119.6 	"/>
	<polygon class="st14" points="142.3,98.2 172.1,91.5 172,93.9 146.6,98.9 145.9,120.6 145,120.6 145,119.5 142.9,119.5 
		142.9,117.3 142.5,117.3 	"/>
	<polygon class="st14" points="141.1,96.7 146.1,95.5 146.1,96.7 141.1,97.9 	"/>
	<polygon class="st14" points="142,95.8 147.2,94.5 147.2,95.3 142.1,96.5 	"/>
	<path class="st14" d="M134.5,119.6l-0.3-8c0-2.1,0.7-3.6,2.3-4c1.5,1,1.8,2.9,1.7,5.1l-2.7,0.7l-0.3,6.2L134.5,119.6z"/>
	<text transform="matrix(0.7839 -0.6125 0.6157 0.788 131.8493 105.0472)"><tspan x="0" y="0" class="st3 st33 st34">D</tspan><tspan x="0.9" y="0.7" class="st3 st33 st34">U</tspan><tspan x="1.9" y="1.4" class="st3 st33 st34">R</tspan><tspan x="2.8" y="2.1" class="st3 st33 st34">H</tspan><tspan x="3.6" y="2.8" class="st3 st33 st34">A</tspan><tspan x="4.5" y="3.5" class="st3 st33 st34">M</tspan></text>
	<text transform="matrix(0.7839 -0.6125 0.6157 0.788 131.6027 105.0472)"><tspan x="0" y="0" class="st10 st33 st34">D</tspan><tspan x="0.9" y="0.7" class="st10 st33 st34">U</tspan><tspan x="1.9" y="1.4" class="st10 st33 st34">R</tspan><tspan x="2.8" y="2.1" class="st10 st33 st34">H</tspan><tspan x="3.6" y="2.8" class="st10 st33 st34">A</tspan><tspan x="4.5" y="3.5" class="st10 st33 st34">M</tspan></text>
	<text transform="matrix(0.7839 -0.6125 0.6157 0.788 132.342 106.7743)"><tspan x="0" y="0" class="st3 st33 st34">C</tspan><tspan x="1" y="0.7" class="st3 st33 st34">o</tspan><tspan x="1.8" y="1.2" class="st3 st33 st34">l</tspan><tspan x="2.4" y="1.7" class="st3 st33 st34">l</tspan><tspan x="3" y="2.3" class="st3 st33 st34">e</tspan><tspan x="3.8" y="2.9" class="st3 st33 st34">g</tspan><tspan x="4.7" y="3.6" class="st3 st33 st34">e</tspan></text>
	<text transform="matrix(0.7839 -0.6125 0.6157 0.788 132.0959 106.5262)"><tspan x="0" y="0" class="st10 st33 st34">C</tspan><tspan x="1" y="0.7" class="st10 st33 st34">o</tspan><tspan x="1.8" y="1.2" class="st10 st33 st34">l</tspan><tspan x="2.4" y="1.7" class="st10 st33 st34">l</tspan><tspan x="3" y="2.3" class="st10 st33 st34">e</tspan><tspan x="3.8" y="2.9" class="st10 st33 st34">g</tspan><tspan x="4.7" y="3.6" class="st10 st33 st34">e</tspan></text>
</g>
<g>
	<path class="st15" d="M237.9,122.5l1-17.1l0.5-8.6l0.6-8.6l0.5,0l0,0.4l-0.3-0.3l1.5-0.4l-0.2,0.2l0.1-1.1l0.1,0.2L233.5,77
		l0.3,0.1l-0.8,0.2l-0.1,0l-0.1-0.1l-0.7-0.7l0.2,0.1l-17.3,4l0.2-0.2l0,0.8l0,0.2l-0.2,0l-2,0.5l0.2-0.3v1.1l-0.1-0.2L215,84
		l0.1,0.1l0,0.1l-0.1,1.7l0,0.2l-0.2,0l-7.1,1.5l-0.3,0.1l0-0.3l0.1-7l0.1,0.2l-2.5-1.6l-0.1-0.1v-0.1v-2.2l0.1,0.2l-2.7-1.9
		l-0.1-0.1v-0.1v-1.2l0.1,0.2l-7.4-5.4l0.2,0l-7.3,2.6l0.2-0.2v1.9v0.2l-0.2,0.1l-2.5,0.8l0.2-0.2l0.1,5.3l0,0.2l-0.2,0l-0.6,0.1
		l0.2-0.3l0.1,13.2l0,0.2l-0.2,0l-12.9,2.6l-0.1,0l-0.1,0l-9.9-2.7l0.1,0L155,94l0.2-0.3l0,0.4l0,0.2l-0.2,0.1l-1.4,0.3l0.2-0.3
		l0.1,0.8l-0.2-0.2l1.4,0.2l0.2,0l0,0.2c0.1,2.2,0.2,4.5,0.3,6.7l0.3,6.7l0.6,13.5l-0.9-13.5l-0.4-6.7c-0.1-2.2-0.3-4.5-0.4-6.7
		l0.2,0.2l-1.4-0.2l-0.2,0l0-0.2l-0.1-0.8l0-0.2l0.2-0.1l1.4-0.3l-0.2,0.3l0-0.4l0-0.2l0.2-0.1l7.4-1.8l0.1,0l0.1,0l9.9,2.7l-0.1,0
		l12.9-2.6l-0.2,0.3l-0.1-13.2l0-0.2l0.2,0l0.6-0.1l-0.2,0.3l-0.1-5.3l0-0.2l0.2-0.1l2.5-0.8l-0.2,0.2v-1.9v-0.2l0.2-0.1l7.3-2.6
		l0.1,0l0.1,0.1l7.4,5.4l0.1,0.1v0.1v1.2l-0.1-0.2l2.7,1.9l0.1,0.1v0.1v2.2l-0.1-0.2l2.5,1.6l0.1,0.1l0,0.1l-0.1,7l-0.3-0.3l7.1-1.5
		l-0.2,0.2l0.1-1.7l0.1,0.2l-1.9-1.4l-0.1-0.1v-0.1v-1.1v-0.2l0.2,0l2-0.5l-0.2,0.2l0-0.8l0-0.2l0.2,0l17.3-4l0.1,0l0.1,0.1l0.7,0.7
		l-0.2-0.1l0.8-0.2l0.2,0l0.1,0.1l8.1,10.4l0.1,0.1l0,0.1l-0.1,1.1l0,0.2l-0.2,0l-1.5,0.4l-0.3,0.1l0-0.4l0-0.4l0.5,0l-0.6,8.6
		l-0.7,8.6L237.9,122.5z"/>
	<polygon class="st10" points="172.3,95.1 214.8,86.5 214.8,87.6 172.3,95.8 	"/>
	<linearGradient id="SVGID_18_" gradientUnits="userSpaceOnUse" x1="176.4642" y1="85.9966" x2="211.2189" y2="124.391">
		<stop  offset="0" style="stop-color:#F6EE86"/>
		<stop  offset="5.293247e-03" style="stop-color:#F5EE85"/>
		<stop  offset="0.2669" style="stop-color:#D0DD4C"/>
		<stop  offset="0.3929" style="stop-color:#C2D736"/>
		<stop  offset="1" style="stop-color:#80953C"/>
	</linearGradient>
	<polygon class="st35" points="172.3,96.2 214.7,88.1 213.7,122.5 173.1,122.5 	"/>
	<linearGradient id="SVGID_19_" gradientUnits="userSpaceOnUse" x1="215.0489" y1="74.2495" x2="231.1751" y2="127.6897">
		<stop  offset="0" style="stop-color:#F6EE86"/>
		<stop  offset="5.293247e-03" style="stop-color:#F5EE85"/>
		<stop  offset="0.2669" style="stop-color:#D0DD4C"/>
		<stop  offset="0.3929" style="stop-color:#C2D736"/>
		<stop  offset="1" style="stop-color:#80953C"/>
	</linearGradient>
	<polygon class="st36" points="213.7,122.5 230,122.5 232.4,79.1 214.9,83 	"/>
	<polygon class="st3" points="237.9,122.5 230,122.5 232.4,79.1 240.2,88.3 	"/>
	<rect x="199.1" y="120.6" class="st9" width="3.4" height="0.9"/>
	<polygon class="st17" points="153.7,95.3 155,95.6 155,95.5 162.6,93.7 172.3,96.2 214.7,88.1 214.8,87.6 172.3,95.8 162.4,93.4 	
		"/>
	<polygon class="st10" points="172.3,94.6 214.8,85.9 214.8,86.5 172.3,95.1 	"/>
	<polygon class="st10" points="213,81.6 233.8,76.8 233.7,78.2 213,82.8 	"/>
	<polygon class="st17" points="214.9,84.2 213,82.8 233.7,78.2 241.7,88.3 240.2,88.7 240.2,88.3 232.4,79.1 214.9,83 	"/>
	<polygon class="st9" points="233.8,76.8 233.7,78.2 241.7,88.3 241.9,87.3 	"/>
	<polygon class="st10" points="215,80.4 215,81.2 232.2,77.2 232.3,76.4 	"/>
	<polygon class="st9" points="232.3,76.4 232.2,77.2 233,77 	"/>
	<linearGradient id="SVGID_20_" gradientUnits="userSpaceOnUse" x1="185.1856" y1="79.2859" x2="206.371" y2="131.1901">
		<stop  offset="0" style="stop-color:#F6EE86"/>
		<stop  offset="5.293247e-03" style="stop-color:#F5EE85"/>
		<stop  offset="0.2669" style="stop-color:#D0DD4C"/>
		<stop  offset="0.3929" style="stop-color:#C2D736"/>
		<stop  offset="1" style="stop-color:#80953C"/>
	</linearGradient>
	<polygon class="st37" points="185.5,120.6 185,78.7 200.1,75.3 199.7,120.6 	"/>
	<polygon class="st3" points="187.4,120.6 187.4,111.3 185.9,111.2 195.8,110.5 197.1,110.7 197.1,111.3 190.4,111.7 190.4,120.6 	
		"/>
	<polygon class="st38" points="190.4,111.7 197.1,111.3 197.1,120.6 190.4,120.6 	"/>
	<linearGradient id="SVGID_21_" gradientUnits="userSpaceOnUse" x1="180.2046" y1="66.5794" x2="201.7448" y2="114.9566">
		<stop  offset="0" style="stop-color:#F6EE86"/>
		<stop  offset="5.293247e-03" style="stop-color:#F5EE85"/>
		<stop  offset="0.2669" style="stop-color:#D0DD4C"/>
		<stop  offset="0.3929" style="stop-color:#C2D736"/>
		<stop  offset="1" style="stop-color:#80953C"/>
	</linearGradient>
	<polygon class="st39" points="185.9,111.2 185.5,73.3 195.8,69.9 195.8,110.5 	"/>
	<linearGradient id="SVGID_22_" gradientUnits="userSpaceOnUse" x1="184.514" y1="62.4318" x2="199.0358" y2="78.3589">
		<stop  offset="0" style="stop-color:#F6EE86"/>
		<stop  offset="5.293247e-03" style="stop-color:#F5EE85"/>
		<stop  offset="0.2669" style="stop-color:#D0DD4C"/>
		<stop  offset="0.3929" style="stop-color:#C2D736"/>
		<stop  offset="1" style="stop-color:#80953C"/>
	</linearGradient>
	<polygon class="st40" points="188,70.6 188,72.5 195.3,70.1 195.3,68 	"/>
	<polygon class="st3" points="199.7,120.6 200.5,120.6 200.9,90.7 200,90.5 200,89.5 200.9,89.3 200.9,88.7 207.8,87.3 207.9,80.3 
		200.1,75.3 	"/>
	<polygon class="st3" points="195.8,69.9 205.4,76.5 205.4,78.7 200.1,75.3 197.3,75.9 197.1,110.7 195.8,110.5 	"/>
	<polygon class="st3" points="195.3,68 202.7,73.4 202.7,74.7 195.8,69.9 195.3,70.1 	"/>
	<path class="st3" d="M175.8,105l1.7-0.2l0.1,6.4l-1.7,0.1L175.8,105z M177.9,103.9l1.7-0.2l-0.1-6.7l-1.7,0.3L177.9,103.9z
		 M177.6,112l-1.7,0.1l0.2,6.8l1.6,0L177.6,112z M175.8,104.2l1.7-0.2l-0.1-6.6l-1.7,0.3L175.8,104.2z M175.3,105.1l-1.5,0.2
		l0.2,6.2l1.5-0.1L175.3,105.1z M180.2,103.6l1.7-0.2l-0.1-6.8l-1.6,0.3L180.2,103.6z M180.3,111l1.7-0.1l-0.1-6.6l-1.7,0.2
		L180.3,111z M178.1,111.2l1.7-0.1l-0.1-6.5l-1.7,0.2L178.1,111.2z M175.5,112.1l-1.5,0.1l0.2,6.8l1.6,0L175.5,112.1z M182.6,111.6
		c0,3.2,0.1,6,0.1,7.1l1.7-0.1l-0.1-7.2L182.6,111.6z M175.3,104.2l-0.2-6.5l-1.5,0.2l0.2,6.4L175.3,104.2z M182,111.7l-1.7,0.1
		l0.1,7l1.7-0.1L182,111.7z M179.7,111.8l-1.7,0.1l0.1,6.9l1.7-0.1L179.7,111.8z M182.5,103.4l1.8-0.2l-0.1-6.9l-1.8,0.3
		C182.4,97.8,182.5,100.4,182.5,103.4z M184.3,104.1l-1.8,0.2c0,2.1,0.1,4.4,0.1,6.6l1.7-0.1L184.3,104.1z"/>
	<linearGradient id="SVGID_23_" gradientUnits="userSpaceOnUse" x1="173.9298" y1="107.7903" x2="184.4247" y2="107.7903">
		<stop  offset="0" style="stop-color:#07B9AB"/>
		<stop  offset="2.830035e-02" style="stop-color:#1DC2AD"/>
		<stop  offset="8.552168e-02" style="stop-color:#44D1B0"/>
		<stop  offset="0.1421" style="stop-color:#63DDB3"/>
		<stop  offset="0.1971" style="stop-color:#79E5B5"/>
		<stop  offset="0.2497" style="stop-color:#87EAB6"/>
		<stop  offset="0.2976" style="stop-color:#8BECB6"/>
		<stop  offset="0.394" style="stop-color:#82E9B5"/>
		<stop  offset="0.5488" style="stop-color:#6BE0B3"/>
		<stop  offset="0.7428" style="stop-color:#44D1B0"/>
		<stop  offset="0.9665" style="stop-color:#10BCAC"/>
		<stop  offset="1" style="stop-color:#07B9AB"/>
	</linearGradient>
	<path class="st41" d="M174.3,112.6l1.2-0.1l0.2,6.5l-1.2,0L174.3,112.6z M176.3,112.4l1.3-0.1l0.1,6.5l-1.3,0L176.3,112.4z
		 M178.4,112.3l1.3-0.1l0.1,6.6l-1.3,0L178.4,112.3z M180.7,112.1l1.4-0.1l0.1,6.7l-1.4,0L180.7,112.1z M183.1,118.7
		c0-1.1,0-3.3-0.1-6.8l1.4-0.1l0.1,6.8L183.1,118.7z M174.1,105.6l1.2-0.1l0.2,5.9l-1.2,0.1L174.1,105.6z M176.1,105.4l1.3-0.1
		l0.1,6l-1.3,0.1L176.1,105.4z M178.3,105.1l1.3-0.1l0.1,6.1l-1.3,0.1L178.3,105.1z M180.6,104.9l1.3-0.1l0.1,6.2l-1.4,0.1
		L180.6,104.9z M183,110.9c0-2-0.1-4.2-0.1-6.2l1.4-0.2l0.1,6.3L183,110.9z M173.9,98.3l1.1-0.2l0.2,6.2l-1.2,0.1L173.9,98.3z
		 M176,97.9l1.4-0.2l0.1,6.3l-1.3,0.2L176,97.9z M178.1,97.6l1.3-0.2l0.1,6.4l-1.3,0.2L178.1,97.6z M180.5,97.2l1.3-0.2l0.1,6.5
		l-1.3,0.2L180.5,97.2z M182.9,103.3c0-2.8-0.1-5.2-0.1-6.5l1.5-0.2l0.1,6.6L182.9,103.3z"/>
	<path class="st3" d="M192.4,107.2l-1.3,0.1l-0.1-33.8l1.3-0.4L192.4,107.2z M193.1,107.2l1.5-0.1l0-34.6l-1.4,0.4V107.2z M188,74.3
		l-1.3,0.4l0.3,32.9l1.4-0.1L188,74.3z M189,107.5l1.3-0.1l-0.2-33.7l-1.3,0.4L189,107.5z"/>
	<linearGradient id="SVGID_24_" gradientUnits="userSpaceOnUse" x1="184.5716" y1="79.5857" x2="196.93" y2="100.3301">
		<stop  offset="0" style="stop-color:#07B9AB"/>
		<stop  offset="2.830035e-02" style="stop-color:#1DC2AD"/>
		<stop  offset="8.552168e-02" style="stop-color:#44D1B0"/>
		<stop  offset="0.1421" style="stop-color:#63DDB3"/>
		<stop  offset="0.1971" style="stop-color:#79E5B5"/>
		<stop  offset="0.2497" style="stop-color:#87EAB6"/>
		<stop  offset="0.2976" style="stop-color:#8BECB6"/>
		<stop  offset="0.394" style="stop-color:#82E9B5"/>
		<stop  offset="0.5488" style="stop-color:#6BE0B3"/>
		<stop  offset="0.7428" style="stop-color:#44D1B0"/>
		<stop  offset="0.9665" style="stop-color:#10BCAC"/>
		<stop  offset="1" style="stop-color:#07B9AB"/>
	</linearGradient>
	<path class="st42" d="M187,74.9l1-0.3l0.4,32.8l-1,0.1L187,74.9z M189.1,74.4l1-0.3l0.2,33.3l-1,0.1L189.1,74.4z M191.3,73.8l1-0.3
		l0.1,33.7l-1,0.1L191.3,73.8z M193.4,73.2l1.1-0.3l0,34.2l-1.1,0.1V73.2z"/>
	<path class="st3" d="M205.3,101.4l2.4-0.3l-0.1,7.8l-2.4,0.2L205.3,101.4z M207.4,118.2l0.2-8.3l-2.4,0.2l-0.2,8.2L207.4,118.2z
		 M210.9,100.7l-2.4,0.3l-0.2,7.8l2.4-0.2L210.9,100.7z M202.2,109.3l2.2-0.2l0.2-7.7l-2.2,0.2L202.2,109.3z M210.7,109.7l-2.4,0.2
		l-0.2,8.3l2.4,0L210.7,109.7z M207.9,92l-2.3,0.4l-0.2,8l2.4-0.3L207.9,92z M214.4,100.4l-2.5,0.3l-0.2,7.9l2.5-0.2L214.4,100.4z
		 M208.8,91.8l-0.2,8.2l2.4-0.3l0.2-8.3L208.8,91.8z M204.3,110.1l-2.2,0.1l-0.1,8l2.2,0L204.3,110.1z M211.5,109.7l-0.3,8.5l2.5,0
		l0.3-8.6L211.5,109.7z M211.8,99.6l2.5-0.3l0.3-8.5l-2.6,0.5L211.8,99.6z M204.5,100.5l0.2-7.9l-2.3,0.4l-0.1,7.8L204.5,100.5z"/>
	<linearGradient id="SVGID_25_" gradientUnits="userSpaceOnUse" x1="202.5366" y1="104.8421" x2="214.6595" y2="104.8421">
		<stop  offset="0" style="stop-color:#07B9AB"/>
		<stop  offset="2.830035e-02" style="stop-color:#1DC2AD"/>
		<stop  offset="8.552168e-02" style="stop-color:#44D1B0"/>
		<stop  offset="0.1421" style="stop-color:#63DDB3"/>
		<stop  offset="0.1971" style="stop-color:#79E5B5"/>
		<stop  offset="0.2497" style="stop-color:#87EAB6"/>
		<stop  offset="0.2976" style="stop-color:#8BECB6"/>
		<stop  offset="0.394" style="stop-color:#82E9B5"/>
		<stop  offset="0.5488" style="stop-color:#6BE0B3"/>
		<stop  offset="0.7428" style="stop-color:#44D1B0"/>
		<stop  offset="0.9665" style="stop-color:#10BCAC"/>
		<stop  offset="1" style="stop-color:#07B9AB"/>
	</linearGradient>
	<path class="st43" d="M202.7,110.8l1.7-0.1l-0.2,7.6l-1.6,0L202.7,110.8z M205.7,110.6l1.9-0.1l-0.1,7.8l-1.9,0L205.7,110.6z
		 M208.9,110.4l1.9-0.1l-0.2,7.9l-1.9,0L208.9,110.4z M212.1,110.2l2-0.1l-0.2,8.1l-2,0L212.1,110.2z M202.8,102.2l1.7-0.2l-0.2,7.1
		l-1.7,0.1L202.8,102.2z M205.9,101.9l1.8-0.2l-0.1,7.2l-1.9,0.1L205.9,101.9z M209.1,101.5l1.8-0.2l-0.2,7.4l-1.9,0.1L209.1,101.5z
		 M212.4,101.1l2-0.2l-0.2,7.5l-2,0.2L212.4,101.1z M203,93.4l1.7-0.3l-0.2,7.4l-1.7,0.2L203,93.4z M206.1,92.9l1.8-0.3l-0.1,7.6
		l-1.8,0.2L206.1,92.9z M209.4,92.3l1.8-0.3l-0.2,7.7l-1.8,0.2L209.4,92.3z M212.6,91.7l2-0.4l-0.2,7.9l-2,0.3L212.6,91.7z"/>
	<path class="st3" d="M217,96.8l3.1-0.4l-0.4,9.7l-3.1,0.3L217,96.8z M223.5,117.5l0.5-10.5l-3.2,0.2l-0.4,10.3L223.5,117.5z
		 M221.7,84.7L221.3,95l3.2-0.5l0.5-10.4L221.7,84.7z M224.4,95.9l-3.2,0.4l-0.4,9.8l3.2-0.3L224.4,95.9z M225.7,94.3l3.4-0.5
		l0.5-10.6l-3.5,0.7L225.7,94.3z M219.7,107.3l-3.1,0.2l-0.4,10.1l3.1-0.1L219.7,107.3z M225,106.9l-0.5,10.5l3.4-0.1l0.5-10.7
		L225,106.9z M229,95.3l-3.4,0.4l-0.5,9.9l3.4-0.3L229,95.3z M220.2,95.1l0.4-10.2l-3.1,0.6l-0.4,10L220.2,95.1z"/>
	<linearGradient id="SVGID_26_" gradientUnits="userSpaceOnUse" x1="216.8319" y1="100.7156" x2="229.6348" y2="100.7156">
		<stop  offset="0" style="stop-color:#07B9AB"/>
		<stop  offset="2.830035e-02" style="stop-color:#1DC2AD"/>
		<stop  offset="8.552168e-02" style="stop-color:#44D1B0"/>
		<stop  offset="0.1421" style="stop-color:#63DDB3"/>
		<stop  offset="0.1971" style="stop-color:#79E5B5"/>
		<stop  offset="0.2497" style="stop-color:#87EAB6"/>
		<stop  offset="0.2976" style="stop-color:#8BECB6"/>
		<stop  offset="0.394" style="stop-color:#82E9B5"/>
		<stop  offset="0.5488" style="stop-color:#6BE0B3"/>
		<stop  offset="0.7428" style="stop-color:#44D1B0"/>
		<stop  offset="0.9665" style="stop-color:#10BCAC"/>
		<stop  offset="1" style="stop-color:#07B9AB"/>
	</linearGradient>
	<path class="st44" d="M217.2,108l2.6-0.2l-0.4,9.7l-2.5,0L217.2,108z M221.3,107.7l2.7-0.2l-0.4,9.9l-2.7,0.1L221.3,107.7z
		 M225.6,107.5l2.9-0.2l-0.5,10.1l-2.9,0.1L225.6,107.5z M217.6,97.3l2.6-0.3l-0.3,9.2l-2.6,0.2L217.6,97.3z M221.7,96.8l2.7-0.3
		l-0.4,9.3l-2.7,0.2L221.7,96.8z M226.1,96.3l2.9-0.3l-0.5,9.5l-2.9,0.2L226.1,96.3z M218,86l2.6-0.5l-0.4,9.6l-2.6,0.4L218,86z
		 M222.2,85.2l2.7-0.5l-0.4,9.8l-2.7,0.4L222.2,85.2z M226.7,84.4l2.9-0.6l-0.5,10.1l-2.9,0.4L226.7,84.4z"/>
	<rect x="180.6" y="120.6" class="st10" width="18.4" height="0.9"/>
	<path class="st13" d="M181.1,111l0.1-6.2l0.6-0.1l-0.2,6.2L181.1,111z M181.4,118.8l0.2-6.7l-0.5,0l-0.1,6.7L181.4,118.8z
		 M181.2,97.1l-0.1,6.5l0.6-0.1l0-1.1l-0.1-5.4L181.2,97.1z M183.8,118.7l0.1-6.8l-0.5,0v6.8L183.8,118.7z M183.4,104.5v6.3l0.5,0
		l0.1-6.3L183.4,104.5z M179.3,112.2l-0.6,0v6.6l0.4,0L179.3,112.2z M183.4,103.3l0.7-0.1l0.1-6.6l-0.8,0.1V103.3z M174.6,98.2
		l0,6.2l0.7-0.1l-0.2-6.2L174.6,98.2z M175.2,112.5l-0.7,0.1l0,6.4l0.4-0.1L175.2,112.5z M174.6,105.5l0,5.9l0.8-0.1l0.1-2.1
		l-0.1-3.8L174.6,105.5z M177.4,112.4l-0.8,0.1l-0.2,6.5l0.7,0L177.4,112.4z M177,97.8l-0.2,6.3l0.6-0.1l-0.1-6.3L177,97.8z
		 M179.4,111.1l0.2-6.1l-0.8,0.1v6.1L179.4,111.1z M178.7,97.5v6.3l0.8-0.1l0-0.4l-0.1-5.9L178.7,97.5z M176.8,105.3l-0.2,6l0.8-0.1
		l0.1-2.6l-0.1-3.5L176.8,105.3z"/>
	<path class="st13" d="M209.3,108.8l0.5-7.3l1-0.1l-0.6,7.4L209.3,108.8z M206.6,100.3l1.1-0.1l0.1-7.6l-0.8,0.1L206.6,100.3z
		 M206.1,109l1-0.1l0.6-7l0-0.3l-1.2,0.1L206.1,109z M214.7,91.4l-0.7,0.1l-0.6,7.9l0.9-0.1l0.3-3.5L214.7,91.4z M213.4,108.4
		l0.7-7.5l-0.8,0.1l-0.6,7.5L213.4,108.4z M209.9,99.9l1-0.1l0.2-2.2l0.1-5.5l-0.8,0.1L209.9,99.9z M203.7,100.6l0.8-0.1l0.1-1.5
		l0.1-5.9l-0.6,0.1L203.7,100.6z M210,110.3l-0.8,0.1l-0.5,7.8l0.7,0L210,110.3z M213.3,110.1l-0.8,0.1l-0.6,8l0.7,0L213.3,110.1z
		 M206.9,110.5l-1,0.1l-0.5,7.7l0.7,0L206.9,110.5z M203.8,109.2l0.5-7.2l-0.8,0.1l-0.4,7.1L203.8,109.2z M203.7,110.7l-0.7,0
		l-0.5,7.5l0.6,0L203.7,110.7z"/>
	<path class="st13" d="M221.8,106l0.7-9.3l1.7-0.2l-1.1,9.4L221.8,106z M227.5,105.5l1.1-9.6l-1.7,0.2l-0.8,9.5L227.5,105.5z
		 M225,84.7l-1.6,0.3l0,0l-0.8,9.8l1.8-0.3l0.2-1.7L225,84.7z M229.6,83.8l-1.8,0.3l-0.8,10l1.8-0.3l0.5-4.8L229.6,83.8z
		 M222.9,107.6l-1.3,0.1l-0.8,9.8l0.9,0L222.9,107.6z M227.3,107.3l-1.4,0.1l-0.8,10l1.1,0L227.3,107.3z M220.6,85.5l-1.6,0.3
		l-0.6,9.6l1.7-0.2l0.2-2.3L220.6,85.5z M218.8,107.9l-1.3,0.1l-0.7,9.6l1,0L218.8,107.9z M219,106.2l0.9-9.2l-1.7,0.2l-0.6,9.1
		L219,106.2z"/>
	<polygon class="st14" points="185.2,94.8 185.2,93.7 176.5,95.4 176,95.1 176,94.3 173.4,94.9 172.3,95.1 173.1,122.5 176.8,122.5 
		177.5,96.2 	"/>
	<path class="st3" d="M193.5,120.2H191v-2.8l2.6,0L193.5,120.2z M193.6,112l-2.7,0.2v4.8l2.6-0.1L193.6,112z M193.9,112l0.1,4.9
		l2.9-0.1v-5.1L193.9,112z M194,120.2h2.8v-2.9l-2.8,0L194,120.2z"/>
	<linearGradient id="SVGID_27_" gradientUnits="userSpaceOnUse" x1="191.9662" y1="122.3571" x2="195.7164" y2="111.4151">
		<stop  offset="0" style="stop-color:#07B9AB"/>
		<stop  offset="2.830035e-02" style="stop-color:#1DC2AD"/>
		<stop  offset="8.552168e-02" style="stop-color:#44D1B0"/>
		<stop  offset="0.1421" style="stop-color:#63DDB3"/>
		<stop  offset="0.1971" style="stop-color:#79E5B5"/>
		<stop  offset="0.2497" style="stop-color:#87EAB6"/>
		<stop  offset="0.2976" style="stop-color:#8BECB6"/>
		<stop  offset="0.394" style="stop-color:#82E9B5"/>
		<stop  offset="0.5488" style="stop-color:#6BE0B3"/>
		<stop  offset="0.7428" style="stop-color:#44D1B0"/>
		<stop  offset="0.9665" style="stop-color:#10BCAC"/>
		<stop  offset="1" style="stop-color:#07B9AB"/>
	</linearGradient>
	<path class="st45" d="M194.3,120.2l0-2.6l2.6,0v2.6H194.3z M191.2,120.2v-2.5l2.3,0l0,2.6H191.2z M191.2,112.4l2.4-0.2l-0.1,4.7
		l-2.4,0V112.4z M194.2,112.2l2.7-0.2v4.8l-2.6,0.1L194.2,112.2z"/>
	<polygon class="st13" points="191.2,117 192.2,112.4 193.6,112.3 191.9,117 	"/>
	<polygon class="st13" points="194.2,116.9 194.3,116.8 195.3,112.1 196.8,112.1 195,116.9 	"/>
	<polygon class="st13" points="191.2,120.2 192.3,117.6 193.6,117.6 191.8,120.2 	"/>
	<polygon class="st13" points="194.3,120.2 195.4,117.6 196.8,117.6 194.9,120.2 	"/>
	<polygon class="st14" points="197.3,75.9 199,75.5 198.2,112.3 197.1,112.3 	"/>
	<path class="st14" d="M190.4,111.7l6.7-0.5v4l-4.9,0.3c0,0-0.1,5.1-0.2,5.1c-0.1,0-1.6,0-1.6,0L190.4,111.7z"/>
	<polygon class="st14" points="200.9,90.7 214.7,88.1 214.7,89.8 205.4,91.2 204.1,121.5 202.4,121.5 202.4,120.6 200.5,120.6 	"/>
	<polygon class="st14" points="200.9,88.7 205.4,87.8 205.4,88.4 200.9,89.3 	"/>
	<polygon class="st14" points="214.9,83 232.4,79.1 232.3,82.1 214.9,84.2 	"/>
	<polygon class="st15" points="185.1,91.7 185.5,120.6 184.9,91.7 	"/>
	<path class="st15" d="M214.8,85.5l-0.5,18.5l-0.3,9.3c-0.1,3.1-0.2,6.2-0.3,9.3l0,0c0-3.1,0.1-6.2,0.2-9.3l0.2-9.3l0.4-18.5
		L214.8,85.5z"/>
	<polygon class="st15" points="185.5,78.3 185.9,111.2 185.9,111.2 185.3,78.3 	"/>
	<text transform="matrix(1.1462 -7.696113e-02 6.630431e-02 0.9978 186.0436 109.5043)" class="st3 st46 st47">GORDAN WILLEY BUILDING</text>
	<text transform="matrix(1.1462 -7.696111e-02 6.630430e-02 0.9978 186.2889 109.485)" class="st10 st46 st48">GORDAN WILLEY BUILDING</text>
</g>
<g>
	<g class="st49">
		<path class="st50" d="M49.5,115.3c-5.9-7.2-6.4-18.2-1.1-24.6c5.2-6.4,14.2-5.8,20.1,1.4c5.9,7.2,6.4,18.2,1.1,24.6
			C64.4,123.1,55.4,122.5,49.5,115.3z M70,90.2c-6.8-8.3-17.2-9.1-23.3-1.6c-6.1,7.5-5.5,20.3,1.3,28.6c6.8,8.3,17.2,9.1,23.3,1.6
			S76.8,98.5,70,90.2z"/>
		<path class="st51" d="M49.9,115.3c-5.9-7.2-6.4-18.2-1.1-24.6c5.2-6.4,14.2-5.8,20.1,1.4c5.9,7.2,6.4,18.2,1.1,24.6
			C64.7,123.2,55.7,122.5,49.9,115.3z M70.4,90.2c-6.8-8.3-17.2-9.1-23.3-1.6c-6.1,7.5-5.5,20.3,1.3,28.6c6.8,8.3,17.2,9.1,23.3,1.6
			C77.8,111.4,77.2,98.6,70.4,90.2z"/>
		<path class="st52" d="M50.3,115.4c-5.9-7.2-6.4-18.2-1.1-24.6c5.2-6.4,14.2-5.8,20.1,1.4c5.9,7.2,6.4,18.2,1.1,24.6
			C65.1,123.2,56.1,122.6,50.3,115.4z M70.7,90.2c-6.8-8.3-17.2-9.1-23.3-1.6c-6.1,7.5-5.5,20.3,1.3,28.6c6.8,8.3,17.2,9.1,23.3,1.6
			C78.1,111.4,77.5,98.6,70.7,90.2z"/>
		<path class="st53" d="M50.6,115.4c-5.9-7.2-6.4-18.2-1.1-24.6c5.2-6.4,14.2-5.8,20.1,1.4c5.9,7.2,6.4,18.2,1.1,24.6
			C65.5,123.2,56.5,122.6,50.6,115.4z M71.1,90.3c-6.8-8.3-17.2-9.1-23.3-1.6c-6.1,7.5-5.5,20.3,1.3,28.6c6.8,8.3,17.2,9.1,23.3,1.6
			C78.5,111.4,77.9,98.6,71.1,90.3z"/>
		<path class="st54" d="M51,115.4c-5.9-7.2-6.4-18.2-1.1-24.6c5.2-6.4,14.2-5.8,20.1,1.4c5.9,7.2,6.4,18.2,1.1,24.6
			C65.8,123.2,56.8,122.6,51,115.4z M71.5,90.3c-6.8-8.3-17.2-9.1-23.3-1.6c-6.1,7.5-5.5,20.3,1.3,28.6c6.8,8.3,17.2,9.1,23.3,1.6
			C78.8,111.4,78.3,98.6,71.5,90.3z"/>
		<path class="st55" d="M51.3,115.4c-5.9-7.2-6.4-18.2-1.1-24.6c5.2-6.4,14.2-5.8,20.1,1.4c5.9,7.2,6.4,18.2,1.1,24.6
			C66.2,123.3,57.2,122.6,51.3,115.4z M71.8,90.3C65,82,54.6,81.2,48.5,88.7c-6.1,7.5-5.5,20.3,1.3,28.6c6.8,8.3,17.2,9.1,23.3,1.6
			C79.2,111.5,78.6,98.7,71.8,90.3z"/>
		<path class="st56" d="M51.7,115.5c-5.9-7.2-6.4-18.2-1.1-24.6c5.2-6.4,14.2-5.8,20.1,1.4c5.9,7.2,6.4,18.2,1.1,24.6
			C66.6,123.3,57.6,122.7,51.7,115.5z M72.2,90.3c-6.8-8.3-17.2-9.1-23.3-1.6c-6.1,7.5-5.5,20.3,1.3,28.6c6.8,8.3,17.2,9.1,23.3,1.6
			C79.6,111.5,79,98.7,72.2,90.3z"/>
		<path class="st57" d="M52.1,115.5c-5.9-7.2-6.4-18.2-1.1-24.6c5.2-6.4,14.2-5.8,20.1,1.4c5.9,7.2,6.4,18.2,1.1,24.6
			C66.9,123.3,57.9,122.7,52.1,115.5z M72.5,90.4c-6.8-8.3-17.2-9.1-23.3-1.6c-6.1,7.5-5.5,20.3,1.3,28.6c6.8,8.3,17.2,9.1,23.3,1.6
			C79.9,111.5,79.3,98.7,72.5,90.4z"/>
		<path class="st58" d="M52.4,115.5c-5.9-7.2-6.4-18.2-1.1-24.6c5.2-6.4,14.2-5.8,20.1,1.4c5.9,7.2,6.4,18.2,1.1,24.6
			C67.3,123.3,58.3,122.7,52.4,115.5z M72.9,90.4c-6.8-8.3-17.2-9.1-23.3-1.6c-6.1,7.5-5.5,20.3,1.3,28.6c6.8,8.3,17.2,9.1,23.3,1.6
			C80.3,111.5,79.7,98.7,72.9,90.4z"/>
		<path class="st59" d="M52.8,115.5c-5.9-7.2-6.4-18.2-1.1-24.6c5.2-6.4,14.2-5.8,20.1,1.4c5.9,7.2,6.4,18.2,1.1,24.6
			C67.6,123.4,58.7,122.7,52.8,115.5z M73.3,90.4C66.5,82.1,56,81.3,50,88.8c-6.1,7.5-5.5,20.3,1.3,28.6c6.8,8.3,17.2,9.1,23.3,1.6
			C80.7,111.6,80.1,98.8,73.3,90.4z"/>
		<path class="st60" d="M53.2,115.6c-5.9-7.2-6.4-18.2-1.1-24.6c5.2-6.4,14.2-5.8,20.1,1.4c5.9,7.2,6.4,18.2,1.1,24.6
			C68,123.4,59,122.8,53.2,115.6z M73.6,90.4c-6.8-8.3-17.2-9.1-23.3-1.6c-6.1,7.5-5.5,20.3,1.3,28.6c6.8,8.3,17.2,9.1,23.3,1.6
			C81,111.6,80.4,98.8,73.6,90.4z"/>
		<path class="st61" d="M53.5,115.6c-5.9-7.2-6.4-18.2-1.1-24.6c5.2-6.4,14.2-5.8,20.1,1.4c5.9,7.2,6.4,18.2,1.1,24.6
			C68.4,123.4,59.4,122.8,53.5,115.6z M74,90.5c-6.8-8.3-17.2-9.1-23.3-1.6c-6.1,7.5-5.5,20.3,1.3,28.6c6.8,8.3,17.2,9.1,23.3,1.6
			C81.4,111.6,80.8,98.8,74,90.5z"/>
		<path class="st62" d="M53.9,115.6c-5.9-7.2-6.4-18.2-1.1-24.6c5.2-6.4,14.2-5.8,20.1,1.4c5.9,7.2,6.4,18.2,1.1,24.6
			C68.7,123.4,59.7,122.8,53.9,115.6z M74.4,90.5c-6.8-8.3-17.2-9.1-23.3-1.6c-6.1,7.5-5.5,20.3,1.3,28.6c6.8,8.3,17.2,9.1,23.3,1.6
			C81.7,111.6,81.2,98.8,74.4,90.5z"/>
		<path class="st63" d="M54.2,115.6c-5.9-7.2-6.4-18.2-1.1-24.6c5.2-6.4,14.2-5.8,20.1,1.4c5.9,7.2,6.4,18.2,1.1,24.6
			C69.1,123.5,60.1,122.8,54.2,115.6z M74.7,90.5c-6.8-8.3-17.2-9.1-23.3-1.6c-6.1,7.5-5.5,20.3,1.3,28.6c6.8,8.3,17.2,9.1,23.3,1.6
			C82.1,111.7,81.5,98.9,74.7,90.5z"/>
		<path class="st64" d="M54.6,115.7c-5.9-7.2-6.4-18.2-1.1-24.6c5.2-6.4,14.2-5.8,20.1,1.4c5.9,7.2,6.4,18.2,1.1,24.6
			C69.5,123.5,60.5,122.9,54.6,115.7z M75.1,90.5c-6.8-8.3-17.2-9.1-23.3-1.6c-6.1,7.5-5.5,20.3,1.3,28.6c6.8,8.3,17.2,9.1,23.3,1.6
			C82.5,111.7,81.9,98.9,75.1,90.5z"/>
		<path class="st65" d="M55,115.7c-5.9-7.2-6.4-18.2-1.1-24.6c5.2-6.4,14.2-5.8,20.1,1.4c5.9,7.2,6.4,18.2,1.1,24.6
			C69.8,123.5,60.8,122.9,55,115.7z M75.4,90.6c-6.8-8.3-17.2-9.1-23.3-1.6c-6.1,7.5-5.5,20.3,1.3,28.6c6.8,8.3,17.2,9.1,23.3,1.6
			C82.8,111.7,82.2,98.9,75.4,90.6z"/>
		<path class="st66" d="M55.3,115.7c-5.9-7.2-6.4-18.2-1.1-24.6c5.2-6.4,14.2-5.8,20.1,1.4c5.9,7.2,6.4,18.2,1.1,24.6
			C70.2,123.5,61.2,122.9,55.3,115.7z M75.8,90.6C69,82.2,58.6,81.5,52.5,89c-6.1,7.5-5.5,20.3,1.3,28.6c6.8,8.3,17.2,9.1,23.3,1.6
			C83.2,111.7,82.6,98.9,75.8,90.6z"/>
		<path class="st67" d="M55.7,115.7c-5.9-7.2-6.4-18.2-1.1-24.6c5.2-6.4,14.2-5.8,20.1,1.4c5.9,7.2,6.4,18.2,1.1,24.6
			C70.5,123.6,61.6,122.9,55.7,115.7z M76.2,90.6c-6.8-8.3-17.2-9.1-23.3-1.6c-6.1,7.5-5.5,20.3,1.3,28.6c6.8,8.3,17.2,9.1,23.3,1.6
			C83.6,111.8,83,99,76.2,90.6z"/>
		<path class="st68" d="M56.1,115.8c-5.9-7.2-6.4-18.2-1.1-24.6c5.2-6.4,14.2-5.8,20.1,1.4c5.9,7.2,6.4,18.2,1.1,24.6
			C70.9,123.6,61.9,123,56.1,115.8z M76.5,90.6c-6.8-8.3-17.2-9.1-23.3-1.6c-6.1,7.5-5.5,20.3,1.3,28.6c6.8,8.3,17.2,9.1,23.3,1.6
			C83.9,111.8,83.3,99,76.5,90.6z"/>
		<path class="st69" d="M56.4,115.8c-5.9-7.2-6.4-18.2-1.1-24.6c5.2-6.4,14.2-5.8,20.1,1.4c5.9,7.2,6.4,18.2,1.1,24.6
			C71.3,123.6,62.3,123,56.4,115.8z M76.9,90.7c-6.8-8.3-17.2-9.1-23.3-1.6c-6.1,7.5-5.5,20.3,1.3,28.6c6.8,8.3,17.2,9.1,23.3,1.6
			C84.3,111.8,83.7,99,76.9,90.7z"/>
		<path class="st70" d="M56.8,115.8c-5.9-7.2-6.4-18.2-1.1-24.6c5.2-6.4,14.2-5.8,20.1,1.4c5.9,7.2,6.4,18.2,1.1,24.6
			C71.6,123.6,62.6,123,56.8,115.8z M77.3,90.7C70.5,82.3,60,81.6,54,89.1c-6.1,7.5-5.5,20.3,1.3,28.6c6.8,8.3,17.2,9.1,23.3,1.6
			C84.7,111.8,84.1,99,77.3,90.7z"/>
		<path class="st71" d="M57.2,115.8c-5.9-7.2-6.4-18.2-1.1-24.6c5.2-6.4,14.2-5.8,20.1,1.4c5.9,7.2,6.4,18.2,1.1,24.6
			C72,123.7,63,123,57.2,115.8z M77.6,90.7c-6.8-8.3-17.2-9.1-23.3-1.6c-6.1,7.5-5.5,20.3,1.3,28.6c6.8,8.3,17.2,9.1,23.3,1.6
			C85,111.9,84.4,99.1,77.6,90.7z"/>
		<path class="st72" d="M57.5,115.9c-5.9-7.2-6.4-18.2-1.1-24.6c5.2-6.4,14.2-5.8,20.1,1.4c5.9,7.2,6.4,18.2,1.1,24.6
			C72.4,123.7,63.4,123.1,57.5,115.9z M78,90.7c-6.8-8.3-17.2-9.1-23.3-1.6c-6.1,7.5-5.5,20.3,1.3,28.6c6.8,8.3,17.2,9.1,23.3,1.6
			C85.4,111.9,84.8,99.1,78,90.7z"/>
		<path class="st73" d="M57.9,115.9c-5.9-7.2-6.4-18.2-1.1-24.6c5.2-6.4,14.2-5.8,20.1,1.4c5.9,7.2,6.4,18.2,1.1,24.6
			C72.7,123.7,63.7,123.1,57.9,115.9z M78.4,90.8c-6.8-8.3-17.2-9.1-23.3-1.6c-6.1,7.5-5.5,20.3,1.3,28.6c6.8,8.3,17.2,9.1,23.3,1.6
			C85.7,111.9,85.2,99.1,78.4,90.8z"/>
		<path class="st74" d="M58.2,115.9c-5.9-7.2-6.4-18.2-1.1-24.6c5.2-6.4,14.2-5.8,20.1,1.4c5.9,7.2,6.4,18.2,1.1,24.6
			C73.1,123.7,64.1,123.1,58.2,115.9z M78.7,90.8c-6.8-8.3-17.2-9.1-23.3-1.6c-6.1,7.5-5.5,20.3,1.3,28.6c6.8,8.3,17.2,9.1,23.3,1.6
			C86.1,111.9,85.5,99.1,78.7,90.8z"/>
		<path class="st75" d="M58.6,115.9c-5.9-7.2-6.4-18.2-1.1-24.6c5.2-6.4,14.2-5.8,20.1,1.4c5.9,7.2,6.4,18.2,1.1,24.6
			C73.5,123.8,64.5,123.1,58.6,115.9z M79.1,90.8c-6.8-8.3-17.2-9.1-23.3-1.6c-6.1,7.5-5.5,20.3,1.3,28.6c6.8,8.3,17.2,9.1,23.3,1.6
			C86.5,112,85.9,99.2,79.1,90.8z"/>
		<path class="st76" d="M59,116c-5.9-7.2-6.4-18.2-1.1-24.6c5.2-6.4,14.2-5.8,20.1,1.4c5.9,7.2,6.4,18.2,1.1,24.6
			C73.8,123.8,64.8,123.2,59,116z M79.4,90.8c-6.8-8.3-17.2-9.1-23.3-1.6c-6.1,7.5-5.5,20.3,1.3,28.6s17.2,9.1,23.3,1.6
			C86.8,112,86.2,99.2,79.4,90.8z"/>
	</g>
	<g>
		<path class="st77" d="M84.1,89.3c-10.8-13.2-29.7-16.8-39.4-5c-9.6,11.8-15.3,19.9-4.5,33.2c10.8,13.2,27.3,14.4,37,2.6
			C86.8,108.3,94.9,102.6,84.1,89.3z M42.6,114.6c-9.3-11.4-0.3-21.8,13-24.2c14.5-2.6,14.8-6.4,25.9,4c8.4,7.9-1.2,19-7,22.5
			C63.5,123.3,51.9,126,42.6,114.6z"/>
		
			<linearGradient id="SVGID_28_" gradientUnits="userSpaceOnUse" x1="-309.3875" y1="-216.6009" x2="-272.0866" y2="-250.7182" gradientTransform="matrix(0.866 0.5 -1 0.5774 93.6003 383.9876)">
			<stop  offset="0" style="stop-color:#FFFFFF"/>
			<stop  offset="1" style="stop-color:#D7E1E8"/>
		</linearGradient>
		<path class="st78" d="M46.4,122.3c-10.6-13-11.9-30.8-0.2-39.2c10.9-7.9,25.1-9.4,35.7,3.6c10.6,13,12.5,24.1,3.7,34.8
			C76.8,132.2,57,135.3,46.4,122.3z M79.5,90.7c-9.4-11.6-16.7-7.1-26.4,2.1c-8.7,8.3-13.6,19.3-2.7,26.9c9.4,6.6,12.4,5.4,23.7-0.1
			C85.9,114.1,88.9,102.3,79.5,90.7z"/>
	</g>
</g>
<g>
	<path class="st79" d="M226.3,62.9c-2,0.9-4,2-6.1,2.7c-6.1,1.8-12.1,1.7-17.9-1.3c-5.6-2.9-9.2-7.5-11.3-13.4
		c-0.5-1.4-0.8-2.9-1.1-4.4c-2-10.2-3.9-20.5-5.8-30.7c-0.1-0.5-0.2-1-0.3-1.6c15.1-2.9,30-5.7,45.1-8.6c1.5,8.1,3.1,16.1,4.6,24.4
		c-3.4-3.1-7.4-4.5-11.8-4.5c-4.4,0-8.2,1.6-11.5,4.5c-5.9,5.2-7.5,14.1-4,21.8c2.9,6.4,9.7,12,20,10.5
		C226.1,62.5,226.2,62.7,226.3,62.9z"/>
	<path class="st79" d="M233.5,42c0.6,4.2,0.7,8.3-0.8,12.3c-2.7,7.2-10.6,8.9-16.2,3.6c-5.7-5.6-8.1-16.7-5.2-24.1
		c2.8-7.2,11.1-8.8,16.5-3.2C230.9,33.7,232.5,37.7,233.5,42z"/>
</g>
<path class="st80" d="M144.7,80.7c0.5,0.1,1,0.1,1.4,0.2C145.7,80.8,145.2,80.8,144.7,80.7z"/>
<path class="st81" d="M151.4,80.9c0.3,0,0.5-0.1,0.8-0.1C152,80.8,151.7,80.8,151.4,80.9z"/>
<path class="st82" d="M60,37.8c-6.7-2.1-13.3-4.2-20-6.4c2.2-7,4.5-14,6.7-21.1c6.6,2.1,13.3,4.2,20,6.4
	C64.5,23.7,62.3,30.6,60,37.8z M59.6,20.6c-3.2-1-6.3-2-9.4-3c-1.1,3.4-2.1,6.6-3.1,9.8c3.2,1,6.2,2,9.4,3
	C57.6,27.1,58.6,23.9,59.6,20.6z"/>
<path class="st83" d="M23.6,60.7c-4.7-2.7-8.1-6.6-10.2-11.6c-2.4-5.7-2.6-11.5-0.9-17.5c0.2-0.6,0.3-1.1,0.5-1.7
	c0.3-0.5,0.5-0.9,0.8-1.4c0.5,0.1,1,0.2,1.4,0.3c0.2,0.1,0.3,0.1,0.5,0.2c4.5,1.4,9.1,2.9,13.6,4.3c0.2,0.1,0.5,0.2,0.7,0.2
	c0.8,0.3,1.6,0.5,2.4,0.8c0.3,0.1,0.7,0.2,1,0.3c0,0.1,0.1,0.1,0.2,0.1c0,0,0,0,0,0c-1.4,4.5-2.8,8.9-4.3,13.4
	c-1.4,4.3-2.7,8.6-4.1,12.9c-0.1,0.1-0.2,0.1-0.4,0.2C24.6,61.1,24.1,60.9,23.6,60.7z M17.6,35.7c-1.8,5.1,0.8,13.6,4.9,16.7
	c1.5-4.6,2.9-9.1,4.4-13.7C23.7,37.6,20.7,36.7,17.6,35.7z"/>
<path class="st84" d="M50.6,56.8c-2.7,2.3-5.6,4.2-9.1,5.3c-3.1,1-6.2,1.5-9.5,0.9c-0.3,0-0.6,0-0.8,0.1c-0.3,0-0.5-0.1-0.8-0.1
	l-0.1,0c0,0-0.1-0.1-0.1-0.1c2.8-8.8,5.6-17.7,8.4-26.5c0.4,0.1,0.8,0.2,1.2,0.3c0.8,0.3,1.6,0.5,2.5,0.8c5.4,1.7,10.7,3.4,16.2,5.1
	c-0.2,0.8-0.3,1.4-0.5,2C56.7,49.4,54.1,53.4,50.6,56.8z M37.5,57.1c5,0.1,12.5-5.9,13.6-10.7c-3.1-1-6.2-2-9.3-3
	C40.3,48,38.9,52.5,37.5,57.1z"/>
<path class="st85" d="M34.3,29.6c-0.2-0.1-0.3-0.1-0.5-0.2c-0.4-1.2-0.1-2.4,0.3-3.6c1.6-5.1,3.2-10.2,4.9-15.2
	c0.1-0.4,0.2-0.8,0.3-1.3c-0.1,0-0.2-0.1-0.3-0.1c-0.2,0.4-0.3,0.8-0.5,1.2c-1.7,5.4-3.5,10.9-5.2,16.3c-0.3,1.1-0.8,1.3-1.8,0.9
	c-4.9-1.6-9.8-3.1-14.7-4.7C16,22.1,17,21.4,17,20.7c0.3-0.3,0.7-0.5,0.8-0.8c1.4-4.4,2.8-8.8,4.2-13.2c0.1-0.3-0.1-0.7-0.2-1.1
	c0.2-0.7,0.5-1.5,0.7-2.2c0.4,0,0.9-0.2,1.2-0.1C29.6,5,35.4,6.9,41.2,8.8c-0.3,0.4-0.8,0.8-0.9,1.3c-1.9,5.9-3.8,11.7-5.6,17.6
	c-0.1,0.3,0.1,0.7,0.2,1.1C34.7,29,34.5,29.3,34.3,29.6z M35,12.7c-3.1-1-6.3-2-9.4-3c-0.1,0.1-0.4,0.2-0.4,0.4c-1,3-1.9,6-2.8,9
	c-0.1,0.3,0.3,0.9,0.7,1c1.8,0.6,3.6,1.2,5.4,1.8c1.1,0.3,2.2,0.7,3.3,1.1c0,0.1,0-0.1,0.1-0.3c0-0.1,0.1-0.1,0.1-0.2
	c0.3,0.2,0.5,0.5,0.9,0.8c0.5-0.9,0.5-1.5-0.5-1.7c0.6-1.9,1.2-3.9,1.9-5.8C35.2,15.1,35.6,13.5,35,12.7z"/>
<path class="st86" d="M41.2,8.8C35.4,6.9,29.6,5,23.7,3.2c-0.4-0.1-0.8,0.1-1.2,0.1c-0.3,0.3-0.7,0.5-0.8,0.8
	c-1.9,6-3.8,12.1-5.8,18.1c-0.2,0.8-0.1,1.1,0.7,1.3c0,0.1-0.1,0.3-0.1,0.4c-0.4-0.1-0.8-0.3-1.2-0.4c2.2-7,4.5-14,6.7-21.1
	c6.7,2.1,13.3,4.2,20.1,6.4C42,9.2,41.9,9.6,41.8,10c-2,6.3-4,12.5-6,18.8c-0.1,0.4-0.5,0.7-0.8,1.1c0-0.2-0.1-0.3-0.1-0.5
	c0.1-0.2,0.4-0.4,0.4-0.6c2-6.3,4-12.7,6-19C41.5,9.4,41.3,9.1,41.2,8.8z"/>
<path class="st82" d="M16.5,23.9c0-0.1,0.1-0.3,0.1-0.4c0.1-0.2,0.1-0.3,0.2-0.5c4.9,1.6,9.8,3.1,14.7,4.7c1,0.3,1.5,0.2,1.8-0.9
	c1.7-5.5,3.4-10.9,5.2-16.3c0.1-0.4,0.3-0.8,0.5-1.2c0.1,0,0.2,0.1,0.3,0.1c-0.1,0.4-0.2,0.8-0.3,1.3c-1.6,5.1-3.2,10.2-4.9,15.2
	c-0.4,1.2-0.7,2.3-0.3,3.6C28.1,27.6,22.3,25.8,16.5,23.9z"/>
<path class="st81" d="M38.6,36.4c-2.8,8.8-5.6,17.7-8.4,26.5c0-0.4,0-0.8,0.1-1.2c2.7-8.5,5.4-17,8.1-25.4
	C38.4,36.3,38.5,36.4,38.6,36.4z"/>
<path class="st80" d="M32.5,34.4c-0.8-0.3-1.6-0.5-2.4-0.8C30.9,33.9,31.7,34.1,32.5,34.4z"/>
<path class="st82" d="M35,29.3c0,0.2,0.1,0.3,0.1,0.5c-0.2-0.1-0.5-0.2-0.7-0.2c0.2-0.3,0.4-0.6,0.5-0.9
	C34.9,28.9,34.9,29.1,35,29.3z"/>
<path class="st87" d="M38.6,36.4c-0.1,0-0.2-0.1-0.2-0.1c0.5,0.1,1,0.2,1.5,0.4C39.4,36.6,39,36.5,38.6,36.4z"/>
<path class="st80" d="M33.7,34.8c-0.1,0-0.1-0.1-0.2-0.1C33.6,34.8,33.6,34.8,33.7,34.8z"/>
<path class="st88" d="M35,29.3c0-0.2-0.1-0.4-0.1-0.6c-0.1-0.4-0.3-0.8-0.2-1.1c1.8-5.9,3.7-11.7,5.6-17.6c0.2-0.5,0.6-0.9,0.9-1.3
	c0.1,0.3,0.3,0.7,0.2,1c-2,6.3-4,12.7-6,19C35.3,29,35.1,29.1,35,29.3z"/>
<path class="st89" d="M16.8,23c-0.1,0.2-0.1,0.3-0.2,0.5c-0.7-0.2-0.9-0.5-0.7-1.3c1.9-6,3.8-12.1,5.8-18.1c0.1-0.3,0.5-0.5,0.8-0.8
	c-0.2,0.7-0.5,1.5-0.7,2.2c-1.6,5-3.2,10.1-4.8,15.1C17,21.4,16,22.1,16.8,23z"/>
<path class="st82" d="M17,20.7c1.6-5,3.2-10.1,4.8-15.1c0.1,0.4,0.3,0.8,0.2,1.1c-1.4,4.4-2.8,8.8-4.2,13.2
	C17.7,20.2,17.3,20.4,17,20.7z"/>
<path class="st90" d="M34.2,15.6c0.3-1,0.6-2,0.8-2.9C35.6,13.5,35.2,15.1,34.2,15.6z"/>
<path class="st91" d="M32,22.5c0.1-0.3,0.2-0.7,0.3-1c1,0.3,1,0.8,0.5,1.7C32.5,22.9,32.3,22.7,32,22.5z"/>
</svg>
