<?xml version="1.0" encoding="utf-8"?>
<!-- Generator: Adobe Illustrator 21.1.0, SVG Export Plug-In . SVG Version: 6.00 Build 0)  -->
<svg version="1.1" id="Layer_1" xmlns="http://www.w3.org/2000/svg" xmlns:xlink="http://www.w3.org/1999/xlink" x="0px" y="0px"
	 viewBox="0 0 240 180" style="enable-background:new 0 0 240 180;" xml:space="preserve">
<style type="text/css">
	.st0{fill:#3F3F3F;}
	.st1{opacity:0.1;}
	.st2{fill:#774022;}
	.st3{opacity:0.4;fill:#324C5B;}
	.st4{fill:#647286;}
	.st5{fill:#C7CAD1;}
	.st6{fill:#FFFFFF;}
	.st7{fill:none;stroke:#333333;stroke-width:8;stroke-miterlimit:10;}
	.st8{fill:none;stroke:#00D398;stroke-width:12;stroke-miterlimit:10;}
	.st9{fill:#999999;}
	.st10{opacity:0.4;clip-path:url(#SVGID_2_);fill:#324C5B;}
	.st11{clip-path:url(#SVGID_2_);}
	.st12{fill:#ECB98C;}
	.st13{clip-path:url(#SVGID_4_);fill:#F6E2CA;}
	.st14{clip-path:url(#SVGID_4_);}
	.st15{fill:#A57842;}
	.st16{fill:#E05B4A;}
	.st17{clip-path:url(#SVGID_6_);fill:#E8A244;}
	.st18{clip-path:url(#SVGID_6_);fill:#EED8A2;}
	.st19{clip-path:url(#SVGID_6_);fill:#324C5B;}
	.st20{clip-path:url(#SVGID_6_);fill:#EFC849;}
	.st21{clip-path:url(#SVGID_6_);fill:#D1933E;}
</style>
<rect class="st0" width="240" height="180"/>
<g class="st1">
	<path class="st2" d="M39,108.9c0.9-6.2,1.1-14.5,2.9-22.3c0.8-3.6-0.5-20.2-0.5-44.1c0-9.5,0.4-19.6,0.4-28.7
		c0-4.9,0.2-9.7,0.4-13.8h-1c-0.3,4.4-0.6,9.3-0.5,13.7c0.2,14-1.5,28.3-1.3,42c0.2,14.3,1.7,17.5,0.9,29.2
		c-0.4,5.3-1,20.9-2.4,25.3c-0.1,0.2-0.4,2.6-0.7,6.3c-0.5,5.6-1.3-0.2-1.4,23.4c-0.1,12.5,1.1,23,1.2,25l0.8,15.1h2
		c-1.4-5.3-1.9-14.7-2.3-25.9C37,139.3,37.1,121.6,39,108.9z"/>
	<path class="st2" d="M64.9,84.8c-0.9-11.6,0.8-14.8,1-29.1c0.2-13.7-0.6-28-0.4-42c0.1-4.4,0-9.3-0.1-13.7h-2.6
		c0.3,4.1,0.5,8.9,0.5,13.7c0,9.1,0.5,19.1,0.5,28.7c0,23.9-1.5,40.5-0.5,44.1c0,0.1,0.1,1.4,0.2,3.2c0.3-2.2,0.6-3.6,0.7-3.6
		c0.3,3,0.6,8.1,0,14c0.3,2.8,0.6,5.4,1,7c3,11.7,3.6,29,3,46.9c-0.4,11.2-1,20.5-2.5,25.9h2.2l0.9-15.1c0.1-2,1.4-12.5,1.3-25
		C69.7,122.7,65,86.8,64.9,84.8z"/>
	<path class="st2" d="M37.1,107.2c1.1-4.9,1.5-20.1,1.7-20.6c0.8-3.6-0.5-20.2-0.5-44.1c0-9.5,0.4-19.6,0.4-28.7
		c0-4.9,0.2-9.7,0.4-13.8h-2.3c-0.1,4.4-0.2,9.3-0.1,13.7c0.2,14-0.5,28.3-0.4,42c0.2,14.3,1.7,17.5,0.9,29.2
		c-0.1,1.9-4.4,37.9-4.5,55c-0.1,12.5,1.1,23,1.2,25l0.8,15.1h2c-1.4-5.3-1.9-14.7-2.3-25.9C33.8,136.2,34.4,118.9,37.1,107.2z"/>
	<path class="st2" d="M32.4,116.3c-0.2-14.3-1.7-17.5-0.9-29.1c0.1-1.9,4.4-37.9,4.5-55c0.1-12.5-1.1-23-1.2-25L34.4,0h-1.1
		c0.5,5,0.8,11.1,1,17.9c0.6,18,0,35.2-2.7,46.9c-0.4,1.6-0.7,4.2-0.9,7c0.5,5.9,0.3,11,0,14c-0.1,0-0.3-1.5-0.6-3.6
		c-0.1,1.8-0.1,3-0.2,3.2c-0.8,3.6,0.5,20.2,0.5,44.1c0,9.5-0.4,19.6-0.4,28.7c0,8.7-0.6,17-1,21.7h2.6c0.4-5.4,0.6-14.3,0.5-21.7
		C31.8,144.3,32.5,130,32.4,116.3z"/>
	<path class="st2" d="M63.9,112.6c-0.3,0-0.6,1.1-0.8,3.3c-0.2,2.1-0.4,5.3-0.1,9.4c0.3,4.1,1.2,8.5,1.5,11.8
		c0.3,3.3,0.5,5.6,0.8,5.6c0.2,0,0.4-2.3,0.4-5.6c0.1-3.3,0.2-7.6,0.3-11.8c0.1-4.1-0.4-7.3-1-9.4C64.4,113.8,64.2,112.6,63.9,112.6
		z M65.7,125.3c0,3.5-0.1,7-0.2,9.6c0,2.6-0.1,4.3-0.3,4.3c-0.2,0-0.4-1.8-0.7-4.4c-0.3-2.6-1-6.1-1.2-9.5c-0.2-3.4-0.1-5.7,0-7.3
		c0.1-1.6,0.3-2.5,0.6-3.1c0.3-0.6,0.7,0.2,1.1,2.1C65.4,118.8,65.7,121.8,65.7,125.3z"/>
	<path class="st2" d="M238.5,149.6c0.5,1.8,1,3.6,1.5,5.4v-25.2c-0.1-5.2-0.2-10.4-0.3-15.6c-0.1-6,0.1-11.4,0.3-16.7V64.4
		c0,1.1-0.1,2.2-0.1,3.1c-0.8,19-1.4,38-1.1,57.2C238.9,133,238.2,148.3,238.5,149.6z"/>
	<path class="st2" d="M33.8,104.4c0-1.7,0.5-4.2,0.5-6.2c0-5.6,1.9-10.6,1.9-16.1c0-3.6-0.3-10.8-0.8-14.2
		c-0.5-2.8-1.8,11.2-1.8,12.3c0,4.6-2.3,17.5-0.4,21.2c-0.3,0.2-0.5,1.9-0.5,2.4C32.4,105.6,33.8,105.4,33.8,104.4z M33.3,97.2
		c0.3-2.7,0.1-5.1,0.3-8c0.2-2.3,0.5-4.5,0.5-5.7c0-0.6,0.4-7,0.6-5.3c0.3,2,0.6,4.3,0.6,6.4c0,3.2-1.1,6.1-1.1,9.4
		c0,1.2-0.3,2.6-0.3,3.6C34,98.1,33.2,98.2,33.3,97.2z"/>
	<path class="st2" d="M187.9,56.1c0.2,2.1,0.5,3.3,0.8,3.3c0.3,0,0.6-1.1,1.1-3.3c0.6-2.2,1.1-5.3,1-9.4c-0.1-4.1-0.2-8.5-0.3-11.8
		c-0.1-3.3-0.2-5.6-0.4-5.6c-0.2,0-0.4,2.3-0.8,5.6c-0.3,3.3-1.2,7.6-1.5,11.8C187.4,50.8,187.7,54,187.9,56.1z M188,46.7
		c0.2-3.4,0.9-6.8,1.2-9.5c0.3-2.6,0.5-4.4,0.7-4.4c0.2,0,0.3,1.7,0.3,4.3c0,2.6,0.1,6.1,0.2,9.6c0,3.5-0.2,6.4-0.7,8.3
		c-0.5,1.9-0.8,2.7-1.1,2.1c-0.3-0.6-0.5-1.5-0.6-3.1C187.9,52.4,187.8,50.1,188,46.7z"/>
	<path class="st2" d="M61.1,103.5c-0.8,4.2-3,9.6-2.5,13.5c1.5,10.8,2,20.8,1.9,31.9c-0.1,10.4,1.2,20.5-0.3,31.1c0.6,0,1.3,0,2,0
		c1.2-11.4-0.1-30.7,0.2-33.6c0.8-6.1-1.8-18.5-1.4-31.6c0.1-4,2.2-8.1,2.7-11.9c0.1-0.9,0.2-1.8,0.3-2.7c-0.3-3.6-0.5-7.7-0.7-10.4
		C62.8,93.5,61.9,99.4,61.1,103.5z"/>
	<path class="st2" d="M66.5,128.5c0.2-5.4-0.5-10.1-1.3-13.8c-0.7-3.4-0.8-5.7-1.2-5.7c-0.4,0-1,2.2-1.4,5.7
		c-0.4,3.5-0.7,8.4,0.1,13.8c0.7,5.4,1.4,10.5,1.7,14.4c0.3,4,0.7,6.8,1,7.8c0.2,0.9,0.6-1.9,0.8-6.4
		C66.2,139.9,66.2,133.9,66.5,128.5z M65.2,146c-0.3,0-0.6-2.2-0.8-5.4c-0.2-3.3-0.8-7.6-1.4-12.1c-0.6-4.4-0.4-8.7-0.1-12
		c0.2-3.2,0.7-5.3,1-5.3s0.7,2.1,1.4,5.3c0.7,3.2,0.9,7.5,0.8,12c-0.1,4.4-0.1,8.8-0.2,12.1C65.8,143.8,65.5,146,65.2,146z"/>
	<path class="st2" d="M63.9,116c-0.3,0-0.5,3.5-0.4,6.8c0.1,3.3,0.9,9.4,1.2,9.4c0.2,0,0.7-6.1,0.7-9.4
		C65.4,119.5,64.3,116,63.9,116z M64.2,119c0.3,0,0.6,2.1,0.6,4.7c0,2.6-0.1,5.2-0.3,5.2c-0.2,0-0.7-2.6-0.8-5.2
		C63.7,121.1,63.9,119,64.2,119z"/>
	<path class="st2" d="M230.8,29.8c-0.3,7,0.8,18.7,1.5,18.7c0.7,0,1.3-11.6,1.3-18.6c0-7,0.2-11.4,0.2-16.9c0-5.5-0.5-9.9-0.8-9.9
		c-0.3,0-0.4,4.4-0.9,9.9C231.7,18.5,231.1,22.8,230.8,29.8z M233,12.4c0.4,0,0.5,7.3,0.3,14.8c-0.2,7.4-0.5,13.5-1,13.5
		c-0.5,0-0.9-6.1-0.6-13.5C232,19.7,232.6,12.4,233,12.4z"/>
	<path class="st2" d="M54.8,111.1c-0.2-0.7-0.3-5.9-0.5-8.8c-1.1-15.2-2.7-28-2.5-44.6C51.9,46.9,52.3,36,53,25.1
		c0.5-8.4,4.1-16.5,4.2-25.1h-1.5c0.3,8.8-3.3,15.4-5.4,22.4c-0.4,1.3,0.5,16.6,0.4,24.9c-0.3,19.2,0.4,38.3,1.4,57.2
		c0.1,2.7,0.3,7.6,0.4,8.1c6.4,22.7,4.5,45,2.5,67.4h2.4C56.3,158.7,59.8,131.5,54.8,111.1z"/>
	<path class="st2" d="M52.1,121.3c-0.2-0.9-0.3-10.7-0.5-13.5c-1.1-15.3-2.7-33-2.5-49.6c0.1-10.8,0.3-30.8,1-41.7
		C50.6,8.6,53.6,5.4,54,0h-2.6c-0.2,5.3-1.2,9.7-3.1,15.9c-0.4,1.3-0.8,23.1-0.9,31.4c-0.3,19.2,1,43.7,1.9,62.7
		c0.1,2.7,1.2,12.5,1.3,13c6.4,22.7,3.1,34.7,1,57.1h2.4C54,164.7,59,160.7,52.1,121.3z"/>
	<path class="st2" d="M230.4,52c0.5,5,1.3,7.5,1.9,7.5c0.6,0,1.2-2.6,1.6-7.5c0.4-5,0.4-12.4,0.5-21.9c0.1-9.6,0.6-19.7-0.1-27.3
		c-0.1-1-0.2-1.9-0.3-2.8h-0.7c0.4,1.8,0.8,4.6,1,8.1c0.3,6.1-0.2,14.1-0.3,22c-0.1,7.9-0.2,12.4-0.5,15.6c-0.3,3.2-0.9,5.2-1.4,7.9
		c-0.5,2.8-1.1,1-1.4-3.5c-0.4-4.5-0.5-11.7-0.1-19.9c0.4-8.1,1.2-16.2,1.5-22.2c0.2-3.4,0.2-6.2,0.3-8h-0.5c0,0.9,0,1.8-0.1,2.8
		c-0.2,7.7-1.1,17.8-1.6,27.3C229.6,39.7,229.8,47.1,230.4,52z"/>
	<path class="st2" d="M64.6,126.9c0.1,0,0.2-1.6,0.1-3.6c0-2-0.2-3.6-0.3-3.6c-0.1,0-0.1,1.6-0.1,3.6
		C64.3,125.3,64.5,126.9,64.6,126.9z"/>
	<path class="st2" d="M188.7,56c0.3,0,1.4-3.6,1.4-6.8c0-3.3-0.4-9.4-0.7-9.4c-0.2,0-1.1,6.1-1.2,9.4C188.2,52.5,188.4,56,188.7,56z
		 M188.5,48.3c0.1-2.6,0.5-5.2,0.8-5.2c0.2,0,0.3,2.6,0.3,5.2c0,2.6-0.3,4.7-0.6,4.7C188.7,53,188.5,50.9,188.5,48.3z"/>
	<path class="st2" d="M189.5,48.7c0-2,0-3.6-0.1-3.6c-0.1,0-0.2,1.6-0.3,3.6c0,2,0,3.6,0.1,3.6C189.3,52.3,189.4,50.7,189.5,48.7z"
		/>
	<path class="st2" d="M232.5,36c0.2,0,0.3-3.7,0.4-8.1c0.1-4.5,0.2-8.1,0-8.1c-0.1,0-0.4,3.7-0.6,8.1C232.2,32.3,232.3,36,232.5,36z
		"/>
	<path class="st2" d="M45.2,141.9c-0.1-9.6-0.1-17-0.6-21.9c-0.5-5-1.2-7.5-2-7.5c-0.8,0-1.7,2.6-2.4,7.5c-0.7,5-1,12.4-0.4,21.9
		c0.6,9.6,1.8,19.6,2,27.3c0.1,4.7,0.2,8.5,0.4,10.7h1.2c0.5-2.2,1-6,1.6-10.7C45.9,161.6,45.2,151.5,45.2,141.9z M42.9,174.1
		c-0.5,0-0.4-4-0.8-10c-0.3-6-1.4-14.1-1.8-22.2c-0.4-8.2-0.3-15.4,0.1-19.9c0.5-4.5,1.1-6.3,1.8-3.5c0.7,2.8,1.3,4.7,1.8,7.9
		c0.4,3.2,0.6,7.7,0.7,15.6c0.1,7.9,0.7,15.9,0.3,22C44.6,170,43.4,174.1,42.9,174.1z"/>
	<path class="st2" d="M48.7,116.1c-0.4-3.8-0.7-6.1-0.7-6.3c-1.4-4.3-2-10.5-2.4-15.8c-0.8-11.6,0-23.9,0.2-38.3
		c0.2-18.2-2.7-37.5-0.4-55.7H44c-1.2,11.6-0.2,27.7-0.2,42.5c0,23.9-0.7,49.6,0.2,53.2c1.8,7.8,1.3,6.9,2.2,13.2
		c3.4,22.3,2.5,58.7-0.8,71.1h2c1.3-5.2,2-14,2.5-17.8c0.7-6.5,1.8-10.3,0.3-22.3C49.9,137.6,49.2,121.6,48.7,116.1z"/>
	<path class="st2" d="M42.6,123.5c-0.9,0-2.2,11.7-1.9,18.7c0.3,7,1.1,11.3,1.7,16.9c0.6,5.5,0.8,9.9,1.1,9.9c0.3,0,1-4.4,1-9.9
		c0-5.5-0.2-9.9-0.3-16.9C44.2,135.1,43.5,123.5,42.6,123.5z M43.5,159.6c-0.5,0-1.3-7.3-1.7-14.8c-0.4-7.4,0.1-13.5,0.8-13.5
		c0.6,0,1.1,6.1,1.3,13.5C44.1,152.3,44,159.6,43.5,159.6z"/>
	<path class="st2" d="M187.4,57.3c0.4,3.6,1,5.7,1.4,5.7c0.4,0,0.4-2.3,1.2-5.7c0.8-3.7,1.6-8.4,1.3-13.8
		c-0.2-5.4-0.3-11.4-0.4-15.8c-0.1-4.4-0.5-7.3-0.7-6.4c-0.2,0.9-0.6,3.8-1,7.8c-0.3,4-1,9-1.7,14.4C186.7,48.9,187,53.8,187.4,57.3
		z M189.1,31.4c0.2-3.3,0.5-5.4,0.8-5.4c0.3,0,0.6,2.2,0.6,5.4c0.1,3.3,0.1,7.6,0.2,12.1c0.1,4.4-0.1,8.7-0.8,12
		c-0.7,3.2-1,5.3-1.4,5.3c-0.4,0-0.8-2.1-1-5.3c-0.2-3.2-0.4-7.5,0.1-12C188.3,39.1,188.9,34.7,189.1,31.4z"/>
	<path class="st2" d="M46.5,146.7c-0.2-12.1-0.1-23.1-0.8-31.1c-0.8-8-1.7-12.9-2.6-12.9c-0.9,0-2.4,4.9-3.6,12.9
		c-1.2,7.9-1.5,19-0.6,31.1c0.8,11.2,1.5,23.6,2,33.3h0.8c-0.1-1.8-0.2-3.8-0.3-6.2c-0.2-7.4-0.9-17.2-1.7-27.2
		c-0.7-10-0.6-19.7,0.2-26.9c0.8-7.3,2-12,3-12c0.9,0,1.7,4.7,2.3,12c0.5,7.2,0.5,17,0.7,26.9c0.2,10,0.1,19.7-1,27.2
		c-0.3,2.3-0.6,4.4-0.8,6.2h0.5c0-0.3,0.1-0.5,0.1-0.8C45.6,170.1,46.7,158.8,46.5,146.7z"/>
	<path class="st2" d="M11.1,36c0.2,0,0.4-3.7,0.5-8.1c0.1-4.5,0.2-8.1,0.1-8.1c-0.2,0-0.6,3.7-0.7,8.1C10.7,32.3,10.9,36,11.1,36z"
		/>
	<path class="st2" d="M29.4,57.3c0.4,3.6,0.9,5.7,1.3,5.7c0.4,0,0.4-2.3,1.1-5.7c0.7-3.7,1.4-8.4,1.2-13.8
		c-0.2-5.4-0.3-11.4-0.4-15.8c-0.1-4.4-0.5-7.3-0.7-6.4c-0.2,0.9-0.6,3.8-0.9,7.8c-0.3,4-0.9,9-1.5,14.4
		C28.7,48.9,29,53.8,29.4,57.3z M31,31.4c0.2-3.3,0.5-5.4,0.8-5.4c0.3,0,0.5,2.2,0.6,5.4c0.1,3.3,0.1,7.6,0.2,12.1
		c0.1,4.4-0.1,8.7-0.7,12c-0.6,3.2-0.9,5.3-1.3,5.3c-0.3,0-0.7-2.1-1-5.3c-0.2-3.2-0.4-7.5,0.1-12C30.2,39.1,30.8,34.7,31,31.4z"/>
	<path class="st2" d="M97.2,56.1c0.1,2.1,0.4,3.3,0.6,3.3c0.2,0,0.4-1.1,0.8-3.3c0.4-2.2,0.8-5.3,0.7-9.4c-0.1-4.1-0.2-8.5-0.2-11.8
		c0-3.3-0.1-5.6-0.3-5.6c-0.2,0-0.3,2.3-0.6,5.6c-0.2,3.3-0.9,7.6-1.1,11.8C96.9,50.8,97.1,54,97.2,56.1z M97.4,46.7
		c0.2-3.4,0.6-6.8,0.9-9.5c0.2-2.6,0.4-4.4,0.5-4.4s0.2,1.7,0.3,4.3c0,2.6,0.1,6.1,0.1,9.6c0,3.5-0.2,6.4-0.5,8.3
		c-0.3,1.9-0.6,2.7-0.8,2.1c-0.2-0.6-0.3-1.5-0.4-3.1C97.3,52.4,97.2,50.1,97.4,46.7z"/>
	<path class="st2" d="M96.9,57.3c0.3,3.6,0.7,5.7,1,5.7c0.3,0,0.3-2.3,0.9-5.7c0.6-3.7,1.1-8.4,1-13.8c-0.2-5.4-0.2-11.4-0.3-15.8
		c-0.1-4.4-0.4-7.3-0.5-6.4c-0.2,0.9-0.5,3.8-0.7,7.8c-0.2,4-0.7,9-1.2,14.4C96.4,48.9,96.6,53.8,96.9,57.3z M98.2,31.4
		c0.2-3.3,0.4-5.4,0.6-5.4c0.2,0,0.4,2.2,0.5,5.4c0.1,3.3,0.1,7.6,0.2,12.1c0.1,4.4-0.1,8.7-0.6,12c-0.5,3.2-0.7,5.3-1,5.3
		c-0.3,0-0.6-2.1-0.8-5.3c-0.2-3.2-0.3-7.5,0.1-12C97.6,39.1,98,34.7,98.2,31.4z"/>
	<path class="st2" d="M56.6,62.8c0.2,0,0.6-3.5,0.7-7.7c0.2-4.3,0.1-7.7-0.2-7.7c-0.2,0-0.4,3.5-0.5,7.7
		C56.5,59.3,56.4,62.8,56.6,62.8z"/>
	<path class="st2" d="M2.2,109.2V125c0.6,8.9,0.6,18.9,0.3,29.1c-0.1,2.6-0.2,5.1-0.3,7.5v18.1L3,164.9c0.1-2,1.2-12.5,1.2-25
		C4.1,131.9,3.2,120,2.2,109.2z"/>
	<path class="st2" d="M8.5,52c0.7,5,1.6,7.5,2.4,7.5c0.8,0,1.5-2.6,2-7.5c0.5-5,0.6-12.4,0.6-21.9c0.1-9.6,0.8-19.7-0.2-27.3
		c-0.1-1-0.2-1.9-0.4-2.8H12c0.5,1.8,1,4.6,1.2,8.1c0.4,6.1-0.2,14.1-0.3,22c-0.1,7.9-0.2,12.4-0.6,15.6c-0.4,3.2-1.1,5.2-1.8,7.9
		c-0.7,2.8-1.3,1-1.8-3.5c-0.5-4.5-0.6-11.7-0.2-19.9C9,22.1,10,14,10.4,8c0.2-3.4,0.3-6.2,0.4-8h-0.7c0,0.9,0,1.8-0.1,2.8
		c-0.2,7.7-1.4,17.8-2,27.3C7.5,39.7,7.8,47.1,8.5,52z"/>
	<path class="st2" d="M97.9,56c0.3,0,1-3.6,1-6.8c0-3.3-0.3-9.4-0.5-9.4c-0.2,0-0.8,6.1-0.9,9.4C97.5,52.5,97.6,56,97.9,56z
		 M97.7,48.3c0-2.6,0.4-5.2,0.6-5.2c0.2,0,0.2,2.6,0.2,5.2c0,2.6-0.2,4.7-0.5,4.7C97.9,53,97.7,50.9,97.7,48.3z"/>
	<path class="st2" d="M9,29.8c-0.3,7,1,18.7,1.9,18.7c0.9,0,1.6-11.6,1.6-18.6c0.1-7,0.3-11.4,0.3-16.9c0-5.5-0.7-9.9-1-9.9
		c-0.3,0-0.5,4.4-1.1,9.9C10.1,18.5,9.3,22.8,9,29.8z M11.7,12.4c0.5,0,0.6,7.3,0.4,14.8c-0.2,7.4-0.6,13.5-1.3,13.5
		c-0.7,0-1.1-6.1-0.8-13.5C10.4,19.7,11.2,12.4,11.7,12.4z"/>
	<path class="st2" d="M29.8,56.1c0.2,2.1,0.4,3.3,0.7,3.3s0.5-1.1,1-3.3c0.5-2.2,1-5.3,0.9-9.4c-0.1-4.1-0.2-8.5-0.3-11.8
		c-0.1-3.3-0.2-5.6-0.4-5.6c-0.2,0-0.4,2.3-0.7,5.6c-0.3,3.3-1.1,7.6-1.4,11.8C29.4,50.8,29.7,54,29.8,56.1z M30,46.7
		c0.2-3.4,0.8-6.8,1.1-9.5c0.3-2.6,0.5-4.4,0.6-4.4c0.2,0,0.3,1.7,0.3,4.3c0,2.6,0.1,6.1,0.2,9.6c0,3.5-0.2,6.4-0.6,8.3
		c-0.4,1.9-0.8,2.7-1,2.1c-0.2-0.6-0.4-1.5-0.5-3.1C29.9,52.4,29.8,50.1,30,46.7z"/>
	<path class="st2" d="M55.4,69.2c0,5.3,0.7,9.4,1,9.4c0.3,0,0.5-4.2,1.1-9.4c0.6-5.3,1.4-9.4,1.7-16.1c0.3-6.7-1-17.8-1.9-17.8
		c-0.9,0-1.6,11-1.6,17.7C55.6,59.8,55.4,63.9,55.4,69.2z M56.1,55.7c0.2-7.1,0.6-12.8,1.3-12.8c0.7,0,1.1,5.8,0.8,12.8
		c-0.4,7.1-1.1,14-1.7,14C56,69.8,55.9,62.8,56.1,55.7z"/>
	<path class="st2" d="M75.1,29.8c-0.3,7,1.1,18.7,2,18.7c0.9,0,1.7-11.6,1.8-18.6c0.1-7,0.3-11.4,0.3-16.9c0-5.5-0.7-9.9-1.1-9.9
		c-0.3,0-0.6,4.4-1.2,9.9C76.3,18.5,75.4,22.8,75.1,29.8z M78,12.4c0.6,0,0.7,7.3,0.5,14.8c-0.2,7.4-0.7,13.5-1.4,13.5
		c-0.7,0-1.3-6.1-0.9-13.5C76.6,19.7,77.4,12.4,78,12.4z"/>
	<path class="st2" d="M74.5,52c0.7,5,1.7,7.5,2.6,7.5c0.9,0,1.6-2.6,2.2-7.5c0.5-5,0.6-12.4,0.7-21.9c0.1-9.6,0.8-19.7-0.2-27.3
		c-0.1-1-0.3-1.9-0.4-2.8h-0.9c0.5,1.8,1,4.6,1.3,8.1c0.4,6.1-0.2,14.1-0.3,22c-0.1,7.9-0.2,12.4-0.7,15.6c-0.5,3.2-1.2,5.2-1.9,7.9
		c-0.7,2.8-1.4,1-1.9-3.5c-0.5-4.5-0.6-11.7-0.2-19.9c0.5-8.1,1.6-16.2,2-22.2c0.2-3.4,0.3-6.2,0.4-8h-0.7c0,0.9-0.1,1.8-0.1,2.8
		C76,10.4,74.6,20.5,74,30.1C73.4,39.7,73.7,47.1,74.5,52z"/>
	<path class="st2" d="M55.4,32c-0.5,4.7-0.6,11.8-0.6,20.9c-0.1,9.1-0.8,18.7,0.2,26c1,7.4,1.8,12.3,2.4,12.3c0.5,0,0.7-5,0.9-12.3
		c0.2-7.3,1.4-16.9,2-26c0.6-9.1,0.2-16.1-0.4-20.9c-0.7-4.7-1.6-7.2-2.4-7.2C56.6,24.8,55.9,27.3,55.4,32z M57.7,30.5
		c0.7-2.7,1.3-1,1.8,3.3c0.5,4.3,0.6,11.2,0.2,18.9c-0.4,7.8-1.5,15.4-1.8,21.2c-0.3,5.7-0.3,9.5-0.8,9.5c-0.5,0-1.7-3.9-2.1-9.7
		c-0.4-5.8,0.2-13.4,0.3-20.9c0.1-7.5,0.2-11.8,0.7-14.8C56.4,35,57.1,33.2,57.7,30.5z"/>
	<path class="st2" d="M30.6,56c0.3,0,1.3-3.6,1.3-6.8c0-3.3-0.4-9.4-0.6-9.4c-0.2,0-1,6.1-1.1,9.4C30.1,52.5,30.3,56,30.6,56z
		 M30.4,48.3c0.1-2.6,0.5-5.2,0.7-5.2c0.2,0,0.3,2.6,0.3,5.2c0,2.6-0.3,4.7-0.6,4.7C30.6,53,30.4,50.9,30.4,48.3z"/>
	<path class="st2" d="M77.3,36c0.2,0,0.4-3.7,0.6-8.1c0.2-4.5,0.3-8.1,0.1-8.1c-0.2,0-0.6,3.7-0.8,8.1C77,32.3,77.1,36,77.3,36z"/>
	<path class="st2" d="M31.3,48.7c0-2,0-3.6-0.1-3.6c-0.1,0-0.2,1.6-0.3,3.6c0,2,0,3.6,0.1,3.6C31.1,52.3,31.3,50.7,31.3,48.7z"/>
	<path class="st2" d="M56.9,15.5c-0.9,0-1.9,4.7-2.6,12.3c-0.8,7.6-0.6,18-0.8,29.6c-0.2,11.5,0.9,22.3,1.9,30.9
		c1,8.4,1.1,14.6,1.6,16.6c0.4,2,1.5-4.1,2-13.6c0.5-9.5,1.2-22.4,2.1-33.9c0.9-11.5,0.6-22-0.6-29.6C59.3,20.2,57.8,15.5,56.9,15.5
		z M60.1,31.8c0.8,6.9,0.9,16.1,0.2,25.6c-0.7,9.5-1.4,18.8-1.7,25.8c-0.2,7-0.8,11.6-1.5,11.6s-1-4.7-2-11.6
		c-1.1-7.1-1.2-16.4-1-25.8c0.2-9.5,0.2-18.7,0.7-25.6c0.5-6.9,1.4-11.4,2.3-11.4C58,20.4,59.2,24.9,60.1,31.8z"/>
	<path class="st2" d="M14.7,25.3c0.2-9.1-0.4-17.8-1.1-25.3h-0.2c0.9,7.2,0.9,16.2,0.7,25.3c-0.2,10-0.2,19.7-0.7,26.9
		c-0.5,7.2-1.4,12-2.3,12c-0.9,0-2.1-4.7-3-12C7.3,45,7.2,35.3,8,25.3C8.6,16.2,9.3,7.1,9.6,0H8.7C8.3,8,7.8,17,7.2,25.3
		C6.3,37.5,6.5,48.5,7.7,56.4c1.2,8,2.7,12.9,3.6,12.9c0.9,0,1.9-4.9,2.6-12.9C14.7,48.5,14.5,37.5,14.7,25.3z"/>
	<path class="st2" d="M24.8,109.3c-0.2,0-0.1,3.5,0.1,7.7c0.1,4.3,0.3,7.7,0.5,7.7c0.2,0,0.3-3.5,0.2-7.7
		C25.4,112.7,25,109.3,24.8,109.3z"/>
	<path class="st2" d="M165.6,29.8c-0.3,7,1,18.7,1.9,18.7c0.9,0,1.6-11.6,1.6-18.6c0.1-7,0.3-11.4,0.3-16.9c0-5.5-0.7-9.9-1-9.9
		c-0.3,0-0.5,4.4-1.1,9.9C166.7,18.5,165.9,22.8,165.6,29.8z M168.2,12.4c0.5,0,0.6,7.3,0.4,14.8c-0.2,7.4-0.6,13.5-1.3,13.5
		c-0.7,0-1.1-6.1-0.8-13.5C167,19.7,167.7,12.4,168.2,12.4z"/>
	<path class="st2" d="M25.7,102.8c-0.6-5.2-0.8-9.4-1.1-9.4c-0.3,0-1,4.2-1,9.4c0,5.3,0.2,9.4,0.3,16.1c0.1,6.7,0.8,17.7,1.6,17.7
		c0.9,0,2.2-11.1,1.9-17.8C27.1,112.2,26.3,108,25.7,102.8z M25.6,129.1c-0.6,0-1.1-5.8-1.3-12.8c-0.2-7.1-0.1-14,0.4-14
		c0.5,0,1.3,7,1.7,14C26.8,123.4,26.3,129.1,25.6,129.1z"/>
	<path class="st2" d="M165,52c0.7,5,1.6,7.5,2.4,7.5c0.8,0,1.5-2.6,2-7.5c0.5-5,0.6-12.4,0.6-21.9c0.1-9.6,0.8-19.7-0.2-27.3
		c-0.1-1-0.2-1.9-0.4-2.8h-0.8c0.5,1.8,1,4.6,1.2,8.1c0.4,6.1-0.2,14.1-0.3,22c-0.1,7.9-0.2,12.4-0.7,15.6c-0.4,3.2-1.1,5.2-1.8,7.9
		s-1.3,1-1.8-3.5c-0.5-4.5-0.6-11.7-0.2-19.9c0.4-8.1,1.5-16.2,1.8-22.2c0.2-3.4,0.3-6.2,0.4-8h-0.7c0,0.9,0,1.8-0.1,2.8
		c-0.2,7.7-1.4,17.8-2,27.3C164,39.7,164.3,47.1,165,52z"/>
	<path class="st2" d="M98.4,48.7c0-2,0-3.6-0.1-3.6c-0.1,0-0.2,1.6-0.2,3.6c0,2,0,3.6,0.1,3.6C98.3,52.3,98.4,50.7,98.4,48.7z"/>
	<path class="st2" d="M167.6,36c0.2,0,0.4-3.7,0.5-8.1c0.1-4.5,0.2-8.1,0.1-8.1c-0.2,0-0.6,3.7-0.7,8.1
		C167.3,32.3,167.4,36,167.6,36z"/>
	<path class="st2" d="M26.5,93.1c-0.2-7.3-0.3-12.3-0.8-12.3c-0.5,0-1.4,5-2.4,12.3c-0.9,7.3-0.2,16.9-0.2,26
		c0.1,9.1,0.2,16.1,0.6,20.9c0.5,4.7,1.2,7.2,2,7.2c0.8,0,1.7-2.4,2.4-7.2c0.7-4.7,1-11.8,0.4-20.9C27.9,110,26.7,100.4,26.5,93.1z
		 M27.7,138.2c-0.5,4.3-1.1,6-1.8,3.3c-0.7-2.7-1.3-4.5-1.8-7.6c-0.4-3.1-0.6-7.3-0.7-14.8c-0.1-7.5-0.7-15.1-0.3-20.9
		c0.4-5.8,1.6-9.7,2.1-9.7c0.5,0,0.4,3.8,0.8,9.5c0.3,5.8,1.4,13.4,1.8,21.2C28.3,127,28.2,133.9,27.7,138.2z"/>
	<path class="st2" d="M29.3,114.6c-0.9-11.5-1.6-24.4-2.1-33.9c-0.5-9.5-1.6-15.6-2-13.6c-0.4,2-0.5,8.2-1.6,16.6
		c-1,8.6-2.1,19.4-1.9,30.9c0.2,11.5,0.1,22,0.8,29.6c0.8,7.6,1.7,12.3,2.6,12.3c0.9,0,2.4-4.7,3.6-12.3
		C29.9,136.6,30.2,126.1,29.3,114.6z M28.3,140.2c-0.8,6.9-2,11.4-3,11.4c-0.9,0-1.7-4.5-2.3-11.4c-0.5-6.9-0.5-16.1-0.7-25.6
		c-0.2-9.5-0.1-18.8,1-25.8c1.1-6.9,1.4-11.6,2-11.6s1.2,4.6,1.4,11.6c0.2,7,0.9,16.4,1.7,25.8C29.2,124.1,29.2,133.3,28.3,140.2z"
		/>
	<path class="st2" d="M20.1,114.3c-0.2-16.6,1.4-29.4,2.5-44.6c0.2-2.8,0.4-8.1,0.5-8.8C27.5,43,25.3,19.8,25.4,0h-1.5
		c1.7,19.7,2.5,39.4-3.2,59.4c-0.2,0.5-0.3,5.4-0.4,8.1c-1,19-1.7,38-1.4,57.2c0.1,8.2-0.8,23.5-0.4,24.9c2.8,8.9,7.9,17.1,4.2,30.4
		h1.7c3.5-11.5-2.5-22.1-3.2-33.1C20.6,136,20.2,125.1,20.1,114.3z"/>
	<path class="st2" d="M6.5,129.5C6.6,105.6,7.9,89,7,85.4c-0.1-0.5-0.5-15.7-1.7-20.6c-2.7-11.7-3.3-29-2.7-46.9
		C2.9,11.1,3.2,5,3.7,0H2.6L2.2,6.8v47.2c1.3,15.7,3.2,31.8,3.3,33c0.8,11.6-0.7,14.8-0.9,29.1c-0.2,13.7,0.5,28,0.4,42
		c-0.1,7.4,0.1,16.2,0.5,21.7H8c-0.5-4.8-1.1-13.1-1-21.7C7,149.1,6.5,139.1,6.5,129.5z"/>
	<path class="st2" d="M124.5,61.2c1.1-11.7,2-24.4,0.6-35.6c-0.3-2.3,0.4-14.8,0.2-25.6h-1.6c0.3,7.7-0.4,15.3-0.3,23.1
		c0.1,11,1.3,22.3-0.1,33.1C121.8,68.8,124.1,61.2,124.5,61.2z"/>
	<path class="st2" d="M2.2,70.2v4.1c0,0.1,0,0.1,0,0.2c0,1,0.3,2.4,0.3,3.6c0,3.3,1.1,6.2,1.1,9.4c0,2.1-0.3,4.4-0.6,6.4
		c-0.3,1.7-0.6-4.7-0.6-5.3c0-0.7-0.1-1.7-0.2-2.8v10.6c0.4,4.2,1.1,9.6,1.4,7.7c0.5-3.4,0.8-10.6,0.8-14.2c0-5.5-1.9-10.5-1.9-16.1
		C2.5,72.7,2.3,71.4,2.2,70.2z"/>
	<path class="st2" d="M9.7,129.5c0-23.9,1.3-40.5,0.5-44.1c-1.8-7.8-1.9-16-2.9-22.3c-1.9-12.7-2-30.4-1.5-45.3C6,11.1,6.3,5,6.8,0
		H5.7L5.3,7.1c-0.1,2-1.2,12.5-1.2,25C4.2,55.7,5,50,5.5,55.5c0.4,3.8,0.7,6.1,0.7,6.3c1.4,4.3,2,20,2.4,25.3
		c0.8,11.6-0.7,14.8-0.9,29.1c-0.2,13.7,1.5,28,1.3,42c-0.1,7.4,0.7,16.2,1.1,21.7c0.7,0,0.3,0,1,0c-0.5-4.8-1.1-13.1-1-21.7
		C10.1,149.1,9.7,139.1,9.7,129.5z"/>
	<path class="st2" d="M14.1,116.3C13.9,101.9,13,89.6,13.9,78c0.4-5.3,1-11.4,2.4-15.8c0.1-0.2,0.4-2.6,0.7-6.3
		c0.5-5.6,1.2-21.6,1.5-23.8c1.5-12,0.4-15.9-0.3-22.3C17.9,7.6,17.5,3.8,17,0h-1.9c2,16.1,2.2,44.5-0.6,63.1
		c-0.9,6.2-0.4,5.4-2.2,13.2c-0.8,3.6-0.2,29.3-0.2,53.2c0,18.6-1.6,39.4,1.6,50.5c0.7,0,0.7,0,1.4,0
		C10.4,159.4,14.4,137.1,14.1,116.3z"/>
	<path class="st2" d="M30.4,69.2c-0.5-3.9-2.4-7.9-2.5-11.9c-0.3-13.1,2-25.6,1.3-31.6c-0.3-2.3,0.4-14.8,0.2-25.6h-1.6
		c0.3,7.7-0.4,15.3-0.3,23.1c0.1,11-0.3,21.1-1.7,31.9c-0.5,3.9,1.6,9.3,2.3,13.5c0.7,4.1,1.5,10.1,2,13.8c0.1-2.7,0.3-6.8,0.6-10.4
		C30.6,71,30.5,70.1,30.4,69.2z"/>
	<path class="st2" d="M17.4,113.9c-0.2-16.6,1.4-34.4,2.5-49.6c0.2-2.8,0.4-12.6,0.5-13.5C25.9,19,23.8,10.2,22.8,0h-2
		c1.9,17.6,3.8,29.2-1.8,49.1c-0.2,0.5-1.2,10.3-1.3,13c-1,19-2.2,43.4-1.9,62.7c0.1,8.2,0.5,30,0.9,31.4c2.8,8.9,3.7,14.3,2.9,23.9
		h1.7c3.5-11.5-2.1-13.5-2.8-24.4C17.7,144.6,17.5,124.7,17.4,113.9z"/>
	<path class="st2" d="M42.8,136c-0.2,0-0.3,3.7-0.2,8.1c0.2,4.5,0.6,8.1,0.7,8.1c0.2,0,0.1-3.7-0.1-8.1C43.2,139.7,43,136,42.8,136z
		"/>
	<path class="st2" d="M188.5,69.2c-0.6-3.9-2.6-7.9-2.7-11.9c-0.3-13.1,2.2-25.6,1.4-31.6c-0.3-2.3,0.5-14.8,0.2-25.6h-1.7
		c0.3,7.7-0.4,15.3-0.4,23.1c0.1,11-0.3,21.1-1.9,31.9c-0.5,3.9,1.7,9.3,2.5,13.5c0.8,4.1,1.6,10.1,2.2,13.8
		c0.1-2.7,0.4-6.7,0.7-10.4C188.7,71,188.6,70.1,188.5,69.2z"/>
	<path class="st2" d="M183.8,80.7c-0.5-9.5-1.6-15.6-2-13.6c-0.4,2-0.5,8.2-1.6,16.6c-1,8.6-2.1,19.4-1.9,30.9
		c0.2,11.5,0.1,22,0.8,29.6c0.8,7.6,1.7,12.3,2.6,12.3c0.9,0,2.4-4.7,3.6-12.3c1.2-7.5,1.5-18.1,0.6-29.6
		C184.9,103.1,184.3,90.2,183.8,80.7z M184.9,140.2c-0.8,6.9-2,11.4-3,11.4c-0.9,0-1.7-4.5-2.3-11.4c-0.5-6.9-0.5-16.1-0.7-25.6
		c-0.2-9.5-0.1-18.8,1-25.8c1.1-6.9,1.4-11.6,2-11.6c0.7,0,1.2,4.6,1.5,11.6c0.2,7,0.9,16.4,1.7,25.8
		C185.8,124.1,185.7,133.3,184.9,140.2z"/>
	<path class="st2" d="M183,93.1c-0.2-7.3-0.3-12.3-0.9-12.3c-0.5,0-1.4,5-2.4,12.3c-0.9,7.3-0.2,16.9-0.2,26
		c0.1,9.1,0.1,16.1,0.6,20.9c0.5,4.7,1.2,7.2,2,7.2c0.8,0,1.7-2.4,2.4-7.2c0.7-4.7,1-11.8,0.4-20.9C184.4,110,183.2,100.4,183,93.1z
		 M184.3,138.2c-0.5,4.3-1.1,6-1.8,3.3c-0.7-2.7-1.3-4.5-1.8-7.6c-0.4-3.1-0.6-7.3-0.7-14.8c-0.1-7.5-0.7-15.1-0.3-20.9
		c0.4-5.8,1.6-9.7,2.1-9.7c0.5,0,0.4,3.8,0.8,9.5c0.3,5.8,1.4,13.4,1.8,21.2C184.9,127,184.7,133.9,184.3,138.2z"/>
	<path class="st2" d="M190.6,116.3c-0.2-14.3-1.9-17.5-1-29.1c0.1-1.9,4.8-37.9,4.9-55c0.1-12.5-1.2-23-1.3-25L192.8,0h-1.2
		c0.5,5,0.9,11.1,1.1,17.9c0.7,18,0,35.2-3,46.9c-0.4,1.6-0.7,4.2-1,7c0.6,5.8,0.3,11,0,14c-0.1,0-0.3-1.5-0.7-3.6
		c-0.1,1.8-0.2,3-0.2,3.2c-0.9,3.6,0.5,20.2,0.5,44.1c0,9.5-0.5,19.6-0.5,28.7c0,8.7-0.6,17-1.1,21.7h2.8c0.5-5.4,0.7-14.3,0.6-21.7
		C190.1,144.3,190.8,130,190.6,116.3z"/>
	<path class="st2" d="M182.3,102.8c-0.6-5.2-0.8-9.4-1.1-9.4c-0.3,0-1,4.2-1,9.4c0,5.3,0.2,9.4,0.3,16.1c0.1,6.7,0.8,17.7,1.6,17.7
		c0.9,0,2.2-11.1,1.9-17.8C183.7,112.2,182.9,108,182.3,102.8z M182.2,129.1c-0.6,0-1.1-5.8-1.3-12.8c-0.2-7.1-0.1-14,0.4-14
		c0.5,0,1.3,7,1.7,14C183.3,123.4,182.8,129.1,182.2,129.1z"/>
	<path class="st2" d="M192.2,104.4c0-1.7,0.5-4.2,0.5-6.2c0-5.6,2.1-10.6,2.1-16.1c0-3.6-0.3-10.8-0.9-14.2
		c-0.5-2.8-1.9,11.2-1.9,12.3c0,4.6-2.5,17.5-0.4,21.2c-0.3,0.2-0.5,1.9-0.6,2.4C190.7,105.6,192.2,105.4,192.2,104.4z M191.7,97.2
		c0.4-2.7,0.1-5.1,0.4-8c0.2-2.3,0.5-4.5,0.5-5.7c0-0.6,0.4-7,0.7-5.3c0.3,2,0.6,4.3,0.6,6.4c0,3.2-1.2,6.1-1.2,9.4
		c0,1.2-0.3,2.6-0.3,3.6C192.4,98.1,191.6,98.2,191.7,97.2z"/>
	<path class="st2" d="M198,108.9c1-6.2,1.2-14.5,3.1-22.3c0.9-3.6-0.5-20.2-0.5-44.1c0-9.5,0.5-19.6,0.5-28.7
		c0-4.9,0.2-9.7,0.5-13.8h-1.1c-0.3,4.4-0.6,9.3-0.6,13.7c0.2,14-1.6,28.3-1.4,42c0.2,14.3,1.9,17.5,1,29.2
		c-0.4,5.3-1.1,20.9-2.6,25.3c-0.1,0.2-0.4,2.6-0.8,6.3c-0.6,5.6-1.4-0.2-1.5,23.4c-0.1,12.5,1.2,23,1.3,25l0.9,15.1h2.2
		c-1.5-5.3-2.1-14.7-2.5-25.9C195.8,139.3,195.9,121.6,198,108.9z"/>
	<path class="st2" d="M202.1,136c-0.2,0-0.4,3.7-0.2,8.1c0.2,4.5,0.6,8.1,0.8,8.1c0.2,0,0.1-3.7-0.1-8.1
		C202.5,139.7,202.3,136,202.1,136z"/>
	<path class="st2" d="M181.4,109.3c-0.2,0-0.1,3.5,0.1,7.7c0.1,4.3,0.3,7.7,0.5,7.7c0.2,0,0.3-3.5,0.2-7.7
		C181.9,112.7,181.5,109.3,181.4,109.3z"/>
	<path class="st2" d="M195.9,107.2c1.3-4.9,1.7-20.1,1.8-20.6c0.9-3.6-0.5-20.2-0.5-44.1c0-9.5,0.5-19.6,0.5-28.7
		c0-4.9,0.2-9.7,0.5-13.8h-2.6c-0.1,4.4-0.2,9.3-0.1,13.7c0.2,14-0.6,28.3-0.4,42c0.2,14.3,1.9,17.5,1,29.2
		c-0.2,1.9-4.8,37.9-4.9,55c-0.1,12.5,1.2,23,1.3,25l0.9,15.1h2.2c-1.5-5.3-2.1-14.7-2.5-25.9C192.2,136.2,192.9,118.9,195.9,107.2z
		"/>
	<path class="st2" d="M166.6,158.2c0-9.1-0.4-19.1-0.4-28.7c0-23.9,1.3-40.5,0.5-44.1c-1.8-7.8-1.9-16-2.9-22.3
		c-1.9-12.7-2-30.4-1.5-45.3c0.2-6.8,0.5-12.9,1-17.9h-1.1l-0.4,7.1c-0.1,2-1.2,12.5-1.2,25c0.1,23.6,0.8,17.9,1.4,23.4
		c0.4,3.8,0.7,6.1,0.7,6.3c1.4,4.3,2,20,2.4,25.3c0.8,11.6-0.7,14.8-0.9,29.1c-0.2,13.7,1.5,28,1.3,42c-0.1,7.4,0.7,16.2,1.1,21.7
		c0.7,0,0.3,0,1,0C167.2,175.2,166.6,166.8,166.6,158.2z"/>
	<path class="st2" d="M156.2,84.8c-0.8-11.6,0.7-14.8,0.9-29.1c0.2-13.7-0.5-28-0.4-42c0.1-4.4,0-9.3-0.1-13.7h-2.3
		c0.2,4.1,0.4,8.9,0.4,13.7c0,9.1,0.4,19.1,0.4,28.7c0,23.9-1.3,40.5-0.5,44.1c0,0.1,0.1,1.4,0.2,3.2c0.3-2.2,0.5-3.6,0.6-3.6
		c0.3,3,0.5,8.1,0,14c0.2,2.8,0.5,5.4,0.9,7c2.7,11.7,3.3,29,2.7,46.9c-0.4,11.2-0.9,20.5-2.3,25.9h2l0.8-15.1
		c0.1-2,1.2-12.5,1.2-25C160.6,122.7,156.4,86.8,156.2,84.8z"/>
	<path class="st2" d="M155.3,112.6c-0.3,0-0.6,1.1-0.7,3.3c-0.2,2.1-0.4,5.3-0.1,9.4c0.3,4.1,1.1,8.5,1.4,11.8
		c0.3,3.3,0.5,5.6,0.7,5.6c0.2,0,0.3-2.3,0.4-5.6c0.1-3.3,0.2-7.6,0.3-11.8c0.1-4.1-0.4-7.3-0.9-9.4
		C155.8,113.8,155.6,112.6,155.3,112.6z M157,125.3c0,3.5-0.1,7-0.2,9.6c0,2.6-0.1,4.3-0.3,4.3c-0.2,0-0.4-1.8-0.6-4.4
		c-0.3-2.6-0.9-6.1-1.1-9.5c-0.2-3.4-0.1-5.7,0-7.3c0.1-1.6,0.3-2.5,0.5-3.1c0.3-0.6,0.6,0.2,1,2.1C156.8,118.8,157,121.8,157,125.3
		z"/>
	<path class="st2" d="M163.1,129.5c0-23.9,1.3-40.5,0.5-44.1c-0.1-0.5-0.5-15.7-1.7-20.6c-2.7-11.7-3.3-29-2.7-46.9
		c0.2-6.8,0.5-12.9,1-17.9h-1.1l-0.4,7.1c-0.1,2-1.2,12.5-1.2,25c0.1,17.2,4.3,53.1,4.5,55c0.8,11.6-0.7,14.8-0.9,29.1
		c-0.2,13.7,0.5,28,0.4,42c-0.1,7.4,0.1,16.2,0.5,21.7h2.6c-0.5-4.8-1.1-13.1-1-21.7C163.5,149.1,163.1,139.1,163.1,129.5z"/>
	<path class="st2" d="M152.8,103.5c-0.7,4.2-2.7,9.6-2.3,13.5c1.4,10.8,1.8,20.8,1.7,31.9c-0.1,10.4,1.1,20.5-0.3,31.1
		c0.6,0,1.2,0,1.8,0c1.1-11.4-0.1-30.7,0.2-33.6c0.7-6.1-1.6-18.5-1.3-31.6c0.1-4,2-8.1,2.5-11.9c0.1-0.9,0.2-1.8,0.3-2.7
		c-0.3-3.6-0.5-7.7-0.6-10.4C154.3,93.5,153.5,99.4,152.8,103.5z"/>
	<path class="st2" d="M157.7,128.5c0.2-5.4-0.5-10.1-1.2-13.8c-0.7-3.4-0.7-5.7-1.1-5.7c-0.4,0-0.9,2.2-1.3,5.7
		c-0.4,3.5-0.6,8.4,0,13.8c0.7,5.4,1.3,10.5,1.5,14.4c0.3,4,0.6,6.8,0.9,7.8c0.2,0.9,0.5-1.9,0.7-6.4
		C157.4,139.9,157.5,133.9,157.7,128.5z M156.5,146c-0.3,0-0.6-2.2-0.8-5.4c-0.2-3.3-0.8-7.6-1.3-12.1c-0.5-4.4-0.3-8.7-0.1-12
		c0.2-3.2,0.6-5.3,0.9-5.3c0.3,0,0.6,2.1,1.3,5.3c0.6,3.2,0.9,7.5,0.7,12c-0.1,4.4-0.1,8.8-0.2,12.1C157,143.8,156.8,146,156.5,146z
		"/>
	<path class="st2" d="M170.6,116.3c-0.2-14.3-1.1-26.6-0.2-38.2c0.4-5.3,1-11.4,2.4-15.8c0.1-0.2,0.4-2.6,0.7-6.3
		c0.5-5.6,1.2-21.6,1.5-23.8c1.5-12,0.4-15.9-0.3-22.3c-0.2-2.2-0.6-5.9-1.1-9.8h-1.9c2,16.1,2.2,44.5-0.6,63.1
		c-0.9,6.2-0.4,5.4-2.2,13.2c-0.8,3.6-0.2,29.3-0.2,53.2c0,18.6-1.6,39.4,1.6,50.5c0.7,0,0.7,0,1.4,0
		C166.9,159.4,170.9,137.1,170.6,116.3z"/>
	<path class="st2" d="M173.9,113.9c-0.2-16.6,1.4-34.4,2.5-49.6c0.2-2.8,0.4-12.6,0.5-13.5c5.6-31.8,3.4-40.5,2.4-50.7h-2
		c1.9,17.6,3.8,29.2-1.8,49.1c-0.2,0.5-1.2,10.3-1.3,13c-1,19-2.2,43.4-1.9,62.7c0.1,8.2,0.5,30,0.9,31.4c2.8,8.9,3.7,14.3,2.9,23.9
		h1.7c3.5-11.5-2.1-13.5-2.8-24.4C174.2,144.6,174,124.7,173.9,113.9z"/>
	<path class="st2" d="M201.9,123.5c-0.9,0-2.4,11.7-2,18.7c0.3,7,1.2,11.3,1.9,16.9c0.7,5.5,0.9,9.9,1.2,9.9c0.4,0,1.1-4.4,1.1-9.9
		c0-5.5-0.3-9.9-0.3-16.9C203.6,135.1,202.8,123.5,201.9,123.5z M202.8,159.6c-0.6,0-1.4-7.3-1.8-14.8c-0.4-7.4,0.1-13.5,0.9-13.5
		c0.7,0,1.2,6.1,1.4,13.5C203.5,152.3,203.4,159.6,202.8,159.6z"/>
	<path class="st2" d="M176.6,114.3c-0.2-16.6,1.4-29.4,2.5-44.6c0.2-2.8,0.4-8.1,0.5-8.8C184,43,181.8,19.8,182,0h-1.5
		c1.7,19.7,2.5,39.4-3.2,59.4c-0.1,0.5-0.3,5.4-0.4,8.1c-1,19-1.7,38-1.4,57.2c0.1,8.2-0.8,23.5-0.4,24.9c2.8,8.9,7.9,17.1,4.2,30.4
		h1.7c3.5-11.5-2.5-22.1-3.2-33.1C177.1,136,176.7,125.1,176.6,114.3z"/>
	<path class="st2" d="M171.3,25.3c0.2-9.1-0.4-17.8-1.1-25.3h-0.3c0.9,7.2,0.9,16.2,0.7,25.3c-0.2,10-0.2,19.7-0.7,26.9
		c-0.5,7.2-1.4,12-2.3,12c-0.9,0-2.1-4.7-3-12c-0.8-7.2-0.9-17-0.2-26.9c0.7-9.2,1.3-18.2,1.6-25.3h-0.8c-0.4,8-0.9,17-1.6,25.3
		c-0.9,12.1-0.6,23.2,0.6,31.1c1.2,8,2.7,12.9,3.6,12.9c0.9,0,1.8-4.9,2.6-12.9C171.2,48.5,171.1,37.5,171.3,25.3z"/>
	<path class="st2" d="M158.6,67.6c0-0.9-1.4-1.2-1.1,0.6c0.1,0.6,0.3,2.2,0.5,2.4c-1.9,3.7,0.4,16.6,0.4,21.2c0,1,1.3,15.1,1.8,12.3
		c0.5-3.4,0.8-10.6,0.8-14.2c0-5.5-1.9-10.5-1.9-16.1C159,71.8,158.6,69.3,158.6,67.6z M160.2,87.5c0,2.1-0.3,4.4-0.6,6.4
		c-0.3,1.7-0.6-4.7-0.6-5.3c0-1.2-0.3-3.4-0.5-5.7c-0.3-2.9,0-5.4-0.3-8.1c-0.1-1.1,0.6-0.9,0.6-0.4c0,1,0.3,2.4,0.3,3.6
		C159,81.4,160.2,84.3,160.2,87.5z"/>
	<path class="st2" d="M223.3,84.8c-0.7-11.6,0.6-14.8,0.7-29.1c0.1-13.7-0.4-28-0.3-42c0-4.4,0-9.3-0.1-13.7h-1.9
		c0.2,4.1,0.4,8.9,0.3,13.7c0,7.1,0.2,14.7,0.3,22.2c0.3,5.2,0.4,11.1,0,17.4c-0.2,17.9-0.9,30.1-0.3,33.1c0,0.1,0.1,1.4,0.1,3.2
		c0.2-2.2,0.4-3.6,0.5-3.6c0.2,3,0.4,8.1,0,14c0.2,2.9,0.4,5.5,0.7,7c2.2,11.7,2.7,29,2.2,46.9c-0.3,11.2-0.7,20.5-1.8,25.9h1.6
		l0.6-15.1c0.1-2,1-12.5,1-25C226.9,122.7,223.4,86.8,223.3,84.8z"/>
	<path class="st2" d="M225.2,67.6c0-0.9-1.1-1.2-0.9,0.6c0.1,0.6,0.2,2.2,0.4,2.4c-1.5,3.7,0.3,16.6,0.3,21.2c0,1,1.1,15.1,1.4,12.3
		c0.4-3.4,0.6-10.6,0.6-14.2c0-5.5-1.5-10.5-1.5-16.1C225.6,71.8,225.2,69.3,225.2,67.6z M226.5,87.5c0,2.1-0.2,4.4-0.5,6.4
		c-0.2,1.7-0.5-4.7-0.5-5.3c0-1.2-0.2-3.4-0.4-5.7c-0.2-2.9,0-5.4-0.3-8.1c-0.1-1.1,0.5-0.9,0.5-0.4c0,1,0.2,2.4,0.2,3.6
		C225.6,81.4,226.5,84.3,226.5,87.5z"/>
	<path class="st2" d="M204.7,141.9c-0.1-9.6-0.2-17-0.7-21.9c-0.5-5-1.3-7.5-2.2-7.5c-0.9,0-1.8,2.6-2.6,7.5
		c-0.7,5-1.1,12.4-0.5,21.9c0.6,9.6,2,19.6,2.2,27.3c0.1,4.7,0.2,8.5,0.4,10.7h1.3c0.5-2.2,1.1-6,1.8-10.7
		C205.5,161.6,204.7,151.5,204.7,141.9z M202.2,174.1c-0.5,0-0.5-4-0.8-10c-0.4-6-1.5-14.1-2-22.2c-0.5-8.2-0.3-15.4,0.2-19.9
		c0.5-4.5,1.2-6.3,1.9-3.5c0.7,2.8,1.4,4.7,1.9,7.9c0.5,3.2,0.6,7.7,0.7,15.6c0.1,7.9,0.8,15.9,0.3,22
		C204,170,202.7,174.1,202.2,174.1z"/>
	<path class="st2" d="M218.1,24.8c-0.9,0-1.6,2.5-2.2,7.2c-0.5,4.7-0.6,11.8-0.7,20.9c-0.1,9.1-0.8,18.7,0.2,26
		c1,7.4,2,12.3,2.6,12.3c0.6,0,0.7-5,0.9-12.3c0.2-7.3,1.5-16.9,2.2-26c0.6-9.1,0.3-16.1-0.5-20.9C219.9,27.3,218.9,24.8,218.1,24.8
		z M220.5,52.8c-0.5,7.8-1.6,15.4-2,21.2c-0.4,5.7-0.3,9.5-0.8,9.5c-0.5,0-1.8-3.9-2.3-9.7c-0.4-5.8,0.2-13.4,0.3-20.9
		c0.1-7.5,0.2-11.8,0.7-14.8c0.5-3.1,1.2-4.9,1.9-7.5c0.7-2.7,1.4-1,1.9,3.3C220.9,38.1,221,45,220.5,52.8z"/>
	<path class="st2" d="M218,35.4c-0.9,0-1.7,11-1.8,17.7c-0.1,6.7-0.3,10.8-0.3,16.1c0,5.3,0.7,9.4,1.1,9.4c0.3,0,0.6-4.2,1.2-9.4
		c0.7-5.3,1.5-9.4,1.9-16.1C220.4,46.5,219,35.4,218,35.4z M218.9,55.7c-0.4,7.1-1.2,14-1.8,14s-0.7-7-0.5-14
		c0.2-7.1,0.7-12.8,1.4-12.8C218.8,42.9,219.3,48.6,218.9,55.7z"/>
	<path class="st2" d="M222.4,36c-0.2-3-0.5-5.7-0.9-8.2c-1.3-7.6-2.9-12.3-3.9-12.3c-1,0-2,4.7-2.9,12.3c-0.8,7.6-0.7,18-0.9,29.6
		c-0.2,11.5,1,22.3,2.1,30.9c1.1,8.4,1.2,14.6,1.7,16.6c0.5,2,1.7-4.1,2.2-13.6c0.5-9.5,1.3-22.4,2.3-33.9c0.1-1.4,0.2-2.7,0.3-4
		c0-3.5,0.1-7.1,0.1-11C222.5,40.3,222.4,38.1,222.4,36z M221.2,57.4c-0.8,9.5-1.6,18.8-1.8,25.8c-0.2,7-0.8,11.6-1.6,11.6
		c-0.8,0-1.1-4.7-2.2-11.6c-1.2-7.1-1.3-16.4-1.1-25.8c0.2-9.5,0.2-18.7,0.8-25.6c0.6-6.9,1.5-11.4,2.5-11.4c1,0,2.3,4.5,3.2,11.4
		C221.9,38.7,222,47.9,221.2,57.4z"/>
	<path class="st2" d="M231.3,129.5c0-23.9,1.1-40.5,0.4-44.1c-1.5-7.8-1.6-16-2.3-22.3c-1.5-12.7-1.6-30.4-1.2-45.3
		C228.4,11.1,228.6,5,229,0h-0.9l-0.3,7.1c-0.1,2-1,12.5-1,25c0.1,23.6,0.7,17.9,1.1,23.4c0.3,3.8,0.5,6.1,0.6,6.3
		c1.1,4.3,1.6,20,1.9,25.3c0.7,11.6-0.6,14.8-0.7,29.1c-0.1,13.7,1.2,28,1,42c-0.1,7.4,0.6,16.2,0.9,21.7c0.6,0,0.2,0,0.8,0
		c-0.4-4.8-0.9-13.1-0.8-21.7C231.7,149.1,231.3,139.1,231.3,129.5z"/>
	<path class="st2" d="M234.9,116.3c-0.2-14.3-0.8-26.6-0.2-38.2c0.3-5.3,0.8-11.4,1.9-15.8c0.1-0.2,0.3-2.6,0.6-6.3
		c0.4-5.6,1-21.6,1.2-23.8c1.2-12,0.3-15.9-0.2-22.3c-0.2-2.2-0.5-5.9-0.9-9.8h-1.6c1.6,16.1,1.8,44.5-0.5,63.1
		c-0.8,6.2-0.3,5.4-1.8,13.2c-0.7,3.6-0.2,29.3-0.2,53.2c0,18.6-1.3,39.4,1.3,50.5c0.6,0,0.5,0,1.1,0
		C231.9,159.4,235.1,137.1,234.9,116.3z"/>
	<path class="st2" d="M240,180v-15.1c-0.7-2.5-1.4-5.3-1.7-9.3c-0.6-10.9-0.7-30.9-0.8-41.7c-0.2-16.6,1.1-34.4,2-49.6
		c0.2-2.8,0.3-12.6,0.4-13.5c0-0.1,0-0.3,0.1-0.4v-7.2c-0.3,1.9-0.7,3.9-1.2,6c-0.1,0.5-1,10.3-1.1,13c-0.8,19-1.8,43.4-1.5,62.7
		c0.1,8.2,0.4,30,0.7,31.4c2.2,8.9,3,14.3,2.3,23.9H240z"/>
	<path class="st2" d="M235.4,25.3c0.1-9.1-0.3-17.8-0.9-25.3h-0.2c0.7,7.2,0.7,16.2,0.6,25.3c-0.2,10-0.1,19.7-0.6,26.9
		c-0.4,7.2-1.1,12-1.8,12c-0.7,0-1.7-4.7-2.4-12c-0.7-7.2-0.7-17-0.2-26.9c0.5-9.2,1.1-18.2,1.3-25.3h-0.7c-0.3,8-0.8,17-1.2,25.3
		c-0.7,12.1-0.5,23.2,0.5,31.1c1,8,2.2,12.9,2.9,12.9c0.7,0,1.5-4.9,2.1-12.9C235.4,48.5,235.3,37.5,235.4,25.3z"/>
	<path class="st2" d="M228.8,129.5c0-23.9,1.1-40.5,0.4-44.1c-0.1-0.5-0.4-15.7-1.3-20.6c-2.2-11.7-2.7-29-2.2-46.9
		c0.2-6.8,0.4-12.9,0.8-17.9h-0.9l-0.3,7.1c-0.1,2-1,12.5-1,25c0.1,17.2,3.5,53.1,3.6,55c0.7,11.6-0.6,14.8-0.7,29.1
		c-0.2,13.7,0.4,28,0.3,42c-0.1,7.4,0.1,16.2,0.4,21.7h2c-0.4-4.8-0.9-13.1-0.8-21.7C229.2,149.1,228.8,139.1,228.8,129.5z"/>
	<path class="st2" d="M215.3,111.1c-0.2-0.7-0.4-5.9-0.6-8.8c-1.2-15.2-2.9-28-2.7-44.6c0.1-10.8,0.6-21.7,1.3-32.6
		c0.6-8.4,4.5-16.5,4.6-25.1h-1.7c0.3,8.8-3.6,15.4-6,22.4c-0.4,1.3,0.6,16.6,0.4,24.9c-0.4,19.2,0.5,38.3,1.5,57.2
		c0.2,2.7,0.3,7.6,0.5,8.1c7,22.7,5,45,2.7,67.4h2.7C216.9,158.7,220.7,131.5,215.3,111.1z"/>
	<path class="st2" d="M212.3,121.3c-0.2-0.9-0.4-10.7-0.6-13.5c-1.2-15.2-2.9-33-2.7-49.6c0.1-10.8,0.4-30.8,1.1-41.7
		c0.6-7.8,3.8-11,4.3-16.4h-2.8c-0.2,5.3-1.4,9.7-3.4,15.9c-0.5,1.3-0.8,23.1-1,31.4c-0.4,19.2,1,43.7,2.1,62.7
		c0.2,2.7,1.3,12.5,1.5,13c7,22.7,3.4,34.7,1.1,57.1h2.7C214.4,164.7,219.8,160.7,212.3,121.3z"/>
	<path class="st2" d="M206.1,146.7c-0.2-12.1-0.1-23.1-0.9-31.1c-0.8-8-1.9-12.9-2.9-12.9c-1,0-2.6,4.9-3.9,12.9
		c-1.3,7.9-1.6,19-0.6,31.1c0.9,11.2,1.6,23.6,2.2,33.3h0.9c-0.1-1.8-0.3-3.8-0.3-6.2c-0.2-7.4-1-17.2-1.8-27.2
		c-0.8-10-0.7-19.7,0.2-26.9c0.9-7.3,2.2-12,3.2-12c1,0,1.9,4.7,2.5,12c0.6,7.2,0.5,17,0.8,26.9c0.2,10,0.1,19.7-1.1,27.2
		c-0.4,2.3-0.7,4.4-0.9,6.2h0.5c0-0.3,0.1-0.5,0.1-0.8C205.2,170.1,206.4,158.8,206.1,146.7z"/>
	<path class="st2" d="M208.6,116.1c-0.4-3.8-0.7-6.1-0.8-6.3c-1.5-4.3-2.2-10.5-2.6-15.8c-0.9-11.6,0-23.9,0.2-38.3
		c0.3-18.2-3-37.5-0.4-55.7h-1.6c-1.3,11.6-0.2,27.7-0.2,42.5c0,23.9-0.7,49.6,0.2,53.2c2,7.8,1.4,6.9,2.4,13.2
		c3.7,22.3,2.7,58.7-0.9,71.1h2.2c1.4-5.2,2.2-14,2.7-17.8c0.8-6.5,2-10.3,0.3-22.3C209.9,137.6,209.1,121.6,208.6,116.1z"/>
	<path class="st2" d="M223.1,126.9c0.1,0,0.1-1.6,0.1-3.6c0-2-0.1-3.6-0.2-3.6c-0.1,0-0.1,1.6-0.1,3.6
		C222.9,125.3,223,126.9,223.1,126.9z"/>
	<path class="st2" d="M224.5,128.5c0.2-5.4-0.4-10.1-1-13.8c-0.5-3.4-0.6-5.7-0.9-5.7s-0.7,2.2-1,5.7c-0.3,3.5-0.5,8.4,0,13.8
		c0.5,5.4,1,10.5,1.2,14.4c0.2,4,0.5,6.8,0.7,7.8c0.2,0.9,0.4-1.9,0.5-6.4C224.3,139.9,224.3,133.9,224.5,128.5z M223.6,146
		c-0.2,0-0.4-2.2-0.6-5.4c-0.2-3.3-0.6-7.6-1-12.1c-0.4-4.4-0.3-8.7-0.1-12c0.2-3.2,0.5-5.3,0.8-5.3c0.3,0,0.5,2.1,1,5.3
		c0.5,3.2,0.7,7.5,0.6,12c-0.1,4.4-0.1,8.8-0.2,12.1C224,143.8,223.8,146,223.6,146z"/>
	<path class="st2" d="M217.8,47.3c-0.2,0-0.4,3.5-0.6,7.7c-0.2,4.3-0.3,7.7-0.1,7.7c0.2,0,0.6-3.5,0.8-7.7
		C218.2,50.8,218,47.3,217.8,47.3z"/>
	<path class="st2" d="M222.6,116c-0.2,0-0.4,3.5-0.3,6.8c0.1,3.3,0.7,9.4,0.9,9.4c0.2,0,0.5-6.1,0.5-9.4
		C223.7,119.5,222.9,116,222.6,116z M222.9,119c0.2,0,0.5,2.1,0.5,4.7c0,2.6-0.1,5.2-0.2,5.2c-0.2,0-0.5-2.6-0.6-5.2
		C222.5,121.1,222.6,119,222.9,119z"/>
	<path class="st2" d="M220.6,103.5c-0.6,4.2-2.2,9.6-1.8,13.5c1.1,10.8,1.4,20.8,1.4,31.9c0,10.4,0.9,20.5-0.2,31.1c0.5,0,1,0,1.4,0
		c0.9-11.4-0.1-30.7,0.2-33.6c0.6-6.1-1.3-18.5-1.1-31.6c0.1-4,1.6-8.1,2-11.9c0.1-0.9,0.2-1.8,0.2-2.7c-0.2-3.6-0.4-7.7-0.5-10.4
		C221.8,93.5,221.2,99.4,220.6,103.5z"/>
	<path class="st2" d="M222.6,112.6c-0.2,0-0.4,1.1-0.6,3.3c-0.1,2.1-0.3,5.3-0.1,9.4c0.2,4.1,0.9,8.5,1.1,11.8
		c0.2,3.3,0.4,5.6,0.6,5.6c0.2,0,0.3-2.3,0.3-5.6c0-3.3,0.2-7.6,0.2-11.8c0.1-4.1-0.3-7.3-0.7-9.4
		C223,113.8,222.8,112.6,222.6,112.6z M223.9,125.3c0,3.5-0.1,7-0.1,9.6c0,2.6-0.1,4.3-0.3,4.3c-0.2,0-0.3-1.8-0.5-4.4
		c-0.2-2.6-0.7-6.1-0.9-9.5c-0.2-3.4-0.1-5.7,0-7.3c0.1-1.6,0.2-2.5,0.4-3.1c0.2-0.6,0.5,0.2,0.8,2.1
		C223.7,118.8,223.9,121.8,223.9,125.3z"/>
	<path class="st2" d="M104.6,108.9c0.8-6.2,0.9-14.5,2.3-22.3c0.7-3.6-0.4-20.2-0.4-44.1c0-9.5,0.3-19.6,0.3-28.7
		c0-4.9,0.1-9.7,0.3-13.8h-0.8c-0.2,4.4-0.5,9.3-0.4,13.7c0.1,14-1.2,28.3-1,42c0.2,14.3,1.4,17.5,0.7,29.2
		c-0.3,5.3-0.8,20.9-1.9,25.3c-0.1,0.2-0.3,2.6-0.6,6.3c-0.4,5.6-1-0.2-1.1,23.4c0,12.5,0.9,23,1,25l0.6,15.1h1.6
		c-1.1-5.3-1.5-14.7-1.8-25.9C103,139.3,103.1,121.6,104.6,108.9z"/>
	<path class="st2" d="M103.1,107.2c0.9-4.9,1.2-20.1,1.3-20.6c0.7-3.6-0.4-20.2-0.4-44.1c0-9.5,0.3-19.6,0.3-28.7
		c0-4.9,0.1-9.7,0.3-13.8h-1.9c-0.1,4.4-0.1,9.3-0.1,13.7c0.1,14-0.4,28.3-0.3,42c0.2,14.3,1.4,17.5,0.7,29.2
		c-0.1,1.9-3.5,37.9-3.6,55c0,12.5,0.9,23,1,25l0.6,15.1h1.6c-1.1-5.3-1.5-14.7-1.8-25.9C100.4,136.2,100.9,118.9,103.1,107.2z"/>
	<path class="st2" d="M67.4,67.6c0-0.9-1.5-1.2-1.2,0.6c0.1,0.6,0.3,2.2,0.6,2.4c-2.1,3.7,0.4,16.6,0.4,21.2c0,1,1.5,15.1,1.9,12.3
		c0.6-3.4,0.9-10.6,0.9-14.2c0-5.5-2.1-10.5-2.1-16.1C67.9,71.8,67.4,69.3,67.4,67.6z M69.2,87.5c0,2.1-0.3,4.4-0.6,6.4
		c-0.3,1.7-0.7-4.7-0.7-5.3c0-1.2-0.3-3.4-0.5-5.7c-0.3-2.9,0-5.4-0.4-8.1c-0.2-1.1,0.7-0.9,0.7-0.4c0,1,0.3,2.4,0.3,3.6
		C67.9,81.4,69.2,84.3,69.2,87.5z"/>
	<path class="st2" d="M100.4,104.4c0-1.7,0.4-4.2,0.4-6.2c0-5.6,1.5-10.6,1.5-16.1c0-3.6-0.2-10.8-0.6-14.2
		c-0.4-2.8-1.4,11.2-1.4,12.3c0,4.6-1.9,17.5-0.3,21.2c-0.2,0.2-0.4,1.9-0.4,2.4C99.3,105.6,100.4,105.4,100.4,104.4z M100.1,97.2
		c0.3-2.7,0.1-5.1,0.3-8c0.2-2.3,0.4-4.5,0.4-5.7c0-0.6,0.3-7,0.5-5.3c0.3,2,0.5,4.3,0.5,6.4c0,3.2-0.9,6.1-0.9,9.4
		c0,1.2-0.2,2.6-0.2,3.6C100.6,98.1,99.9,98.2,100.1,97.2z"/>
	<path class="st2" d="M107.7,136c-0.2,0-0.3,3.7-0.1,8.1c0.1,4.5,0.4,8.1,0.6,8.1c0.1,0,0.1-3.7,0-8.1
		C108,139.7,107.8,136,107.7,136z"/>
	<path class="st2" d="M99.3,116.3c-0.2-14.3-1.4-17.5-0.7-29.1c0.1-1.9,3.5-37.9,3.6-55c0-12.5-0.9-23-1-25L100.9,0H100
		c0.4,5,0.6,11.1,0.8,17.9c0.5,18,0,35.2-2.2,46.9c-0.3,1.6-0.5,4.2-0.7,7c0.4,5.8,0.2,11,0,14c-0.1,0-0.2-1.4-0.5-3.6
		c-0.1,1.8-0.1,3-0.1,3.2c-0.6,3,0.1,15.2,0.3,33.1c0.4,6.3,0.4,12.2,0,17.4c-0.1,7.5-0.3,15.2-0.3,22.2c0,8.7-0.5,17-0.8,21.7h2
		c0.3-5.4,0.5-14.3,0.4-21.7C98.8,144.3,99.4,130,99.3,116.3z"/>
	<path class="st2" d="M97.6,118.6c-0.1-1.3-0.2-2.7-0.3-4c-1-11.5-1.7-24.4-2.3-33.9c-0.5-9.5-1.7-15.6-2.2-13.6
		c-0.5,2-0.6,8.2-1.7,16.6c-1.1,8.6-2.3,19.4-2.1,30.9c0.2,11.5,0.1,22,0.9,29.6c0.8,7.6,1.9,12.3,2.9,12.3c1,0,2.6-4.7,3.9-12.3
		c0.4-2.4,0.7-5.2,0.9-8.2c0-2.2,0-4.3,0-6.4C97.7,125.7,97.6,122.1,97.6,118.6z M96.2,140.2c-0.9,6.9-2.2,11.4-3.2,11.4
		c-1,0-1.9-4.5-2.5-11.4c-0.6-6.9-0.5-16.1-0.8-25.6c-0.2-9.5-0.1-18.8,1.1-25.8c1.2-6.9,1.5-11.6,2.2-11.6c0.8,0,1.3,4.6,1.6,11.6
		c0.2,7,1,16.4,1.8,25.8C97.2,124.1,97.1,133.3,96.2,140.2z"/>
	<path class="st2" d="M107.5,123.5c-0.7,0-1.7,11.7-1.5,18.7c0.3,7,0.9,11.3,1.4,16.9c0.5,5.5,0.6,9.9,0.9,9.9
		c0.3,0,0.8-4.4,0.8-9.9c0-5.5-0.2-9.9-0.2-16.9C108.8,135.1,108.2,123.5,107.5,123.5z M108.2,159.6c-0.4,0-1-7.3-1.3-14.8
		c-0.3-7.4,0.1-13.5,0.6-13.5c0.5,0,0.9,6.1,1,13.5C108.7,152.3,108.6,159.6,108.2,159.6z"/>
	<path class="st2" d="M115.2,121.3c-0.1-0.9-0.3-10.7-0.4-13.5c-0.9-15.3-2.1-33-2-49.6c0.1-10.8,0.3-30.8,0.8-41.7
		c0.4-7.8,2.8-11,3.1-16.4h-2.1c-0.2,5.3-1,9.7-2.5,15.9c-0.3,1.3-0.6,23.1-0.7,31.4c-0.3,19.2,0.8,43.7,1.5,62.7
		c0.1,2.7,0.9,12.5,1.1,13c5.2,22.7,2.5,34.7,0.8,57.1h2C116.7,164.7,120.7,160.7,115.2,121.3z"/>
	<path class="st2" d="M110.6,146.7c-0.2-12.1-0.1-23.1-0.7-31.1c-0.6-8-1.4-12.9-2.1-12.9c-0.7,0-1.9,4.9-2.9,12.9
		c-1,7.9-1.2,19-0.5,31.1c0.7,11.2,1.2,23.6,1.6,33.3h0.6c-0.1-1.8-0.2-3.8-0.2-6.2c-0.2-7.4-0.8-17.2-1.3-27.2
		c-0.6-10-0.5-19.7,0.2-26.9c0.7-7.3,1.6-12,2.4-12c0.7,0,1.4,4.7,1.8,12c0.4,7.2,0.4,17,0.6,26.9c0.2,10,0.1,19.7-0.8,27.2
		c-0.3,2.3-0.5,4.4-0.7,6.2h0.4c0-0.3,0.1-0.5,0.1-0.8C109.9,170.1,110.8,158.8,110.6,146.7z"/>
	<path class="st2" d="M109.6,141.9c-0.1-9.6-0.1-17-0.5-21.9c-0.4-5-1-7.5-1.6-7.5s-1.3,2.6-1.9,7.5c-0.5,5-0.8,12.4-0.4,21.9
		c0.5,9.6,1.4,19.6,1.6,27.3c0.1,4.7,0.2,8.5,0.3,10.7h1c0.4-2.2,0.8-6,1.3-10.7C110.2,161.6,109.6,151.5,109.6,141.9z M107.7,174.1
		c-0.4,0-0.3-4-0.6-10c-0.3-6-1.1-14.1-1.5-22.2c-0.4-8.2-0.2-15.4,0.1-19.9c0.4-4.5,0.9-6.3,1.4-3.5c0.5,2.8,1.1,4.7,1.4,7.9
		c0.3,3.2,0.5,7.7,0.5,15.6c0.1,7.9,0.6,15.9,0.3,22C109.1,170,108.1,174.1,107.7,174.1z"/>
	<path class="st2" d="M112.4,116.1c-0.3-3.8-0.5-6.1-0.6-6.3c-1.1-4.3-1.6-10.5-1.9-15.8c-0.7-11.6,0-23.9,0.2-38.3
		c0.2-18.2-2.2-37.5-0.3-55.7h-1.2c-1,11.6-0.1,27.7-0.1,42.5c0,23.9-0.5,49.6,0.1,53.2c1.5,7.8,1,6.9,1.8,13.2
		c2.7,22.3,2,58.7-0.6,71.1h1.6c1-5.2,1.6-14,2-17.8c0.6-6.5,1.5-10.3,0.2-22.3C113.4,137.6,112.8,121.6,112.4,116.1z"/>
	<path class="st2" d="M81.4,25.3c0.2-9.1-0.5-17.8-1.3-25.3h-0.3c0.9,7.2,1,16.2,0.8,25.3c-0.2,10-0.2,19.7-0.8,26.9
		c-0.6,7.2-1.5,12-2.5,12c-1,0-2.3-4.7-3.2-12c-0.9-7.2-1-17-0.2-26.9c0.7-9.2,1.4-18.2,1.8-25.3h-0.9c-0.5,8-1,17-1.7,25.3
		c-1,12.1-0.7,23.2,0.6,31.1c1.3,8,2.9,12.9,3.9,12.9c1,0,2-4.9,2.9-12.9C81.3,48.5,81.1,37.5,81.4,25.3z"/>
	<path class="st2" d="M84.2,113.9c-0.2-16.6,1.5-34.4,2.7-49.6c0.2-2.8,0.4-12.6,0.6-13.5C93.6,19,91.2,10.2,90.1,0h-2.2
		c2.1,17.6,4.1,29.2-2,49.1c-0.2,0.5-1.3,10.3-1.5,13c-1,19-2.5,43.4-2.1,62.7c0.2,8.2,0.5,30,1,31.4c3,8.9,4.1,14.3,3.2,23.9h1.9
		c3.8-11.5-2.3-13.5-3.1-24.4C84.6,144.6,84.4,124.7,84.2,113.9z"/>
	<path class="st2" d="M80.6,116.3c-0.2-14.3-1.1-26.6-0.2-38.2c0.4-5.3,1.1-11.4,2.6-15.8c0.1-0.2,0.4-2.6,0.8-6.3
		c0.6-5.6,1.3-21.6,1.6-23.8c1.7-12,0.5-15.9-0.3-22.3c-0.3-2.2-0.7-5.9-1.2-9.8h-2.1c2.2,16.1,2.4,44.5-0.7,63.1
		c-1,6.2-0.4,5.4-2.4,13.2c-0.9,3.6-0.2,29.3-0.2,53.2c0,18.6-1.8,39.4,1.8,50.5c0.8,0,0.7,0,1.5,0
		C76.6,159.4,80.9,137.1,80.6,116.3z"/>
	<path class="st2" d="M94.2,93.1c-0.2-7.3-0.4-12.3-0.9-12.3c-0.6,0-1.5,5-2.6,12.3c-1,7.3-0.3,16.9-0.2,26
		c0.1,9.1,0.2,16.1,0.7,20.9c0.5,4.7,1.3,7.2,2.2,7.2c0.9,0,1.8-2.4,2.6-7.2c0.7-4.7,1.1-11.8,0.5-20.9
		C95.7,110,94.4,100.4,94.2,93.1z M95.6,138.2c-0.5,4.3-1.2,6-1.9,3.3c-0.7-2.7-1.4-4.5-1.9-7.6c-0.5-3.1-0.6-7.3-0.7-14.8
		c-0.1-7.5-0.8-15.1-0.3-20.9c0.4-5.8,1.7-9.7,2.3-9.7c0.5,0,0.5,3.8,0.8,9.5c0.4,5.8,1.5,13.4,2,21.2
		C96.2,127,96.1,133.9,95.6,138.2z"/>
	<path class="st2" d="M72.4,129.5c0-23.9,1.5-40.5,0.5-44.1c-0.1-0.5-0.6-15.7-1.8-20.6c-3-11.7-3.6-29-3-46.9
		C68.4,11.1,68.7,5,69.2,0H68l-0.4,7.1c-0.1,2-1.4,12.5-1.3,25c0.1,17.2,4.7,53.1,4.9,55c0.9,11.6-0.8,14.8-1,29.1
		c-0.2,13.7,0.6,28,0.4,42c-0.1,7.4,0.1,16.2,0.6,21.7H74c-0.5-4.8-1.2-13.1-1.1-21.7C72.8,149.1,72.4,139.1,72.4,129.5z"/>
	<path class="st2" d="M75.8,129.5c0-23.9,1.5-40.5,0.5-44.1c-2-7.8-2.1-16-3.1-22.3c-2.1-12.7-2.2-30.4-1.6-45.3
		C71.8,11.1,72.1,5,72.7,0h-1.2L71,7.1c-0.1,2-1.4,12.5-1.3,25c0.1,23.6,0.9,17.9,1.5,23.4c0.4,3.8,0.7,6.1,0.8,6.3
		c1.5,4.3,2.2,20,2.6,25.3c0.9,11.6-0.8,14.8-1,29.1c-0.2,13.7,1.6,28,1.4,42c-0.1,7.4,0.8,16.2,1.2,21.7c0.8,0,0.3,0,1.1,0
		c-0.5-4.8-1.2-13.1-1.1-21.7C76.3,149.1,75.8,139.1,75.8,129.5z"/>
	<path class="st2" d="M92.4,109.3c-0.2,0-0.1,3.5,0.1,7.7c0.2,4.3,0.4,7.7,0.6,7.7c0.2,0,0.4-3.5,0.2-7.7
		C93,112.7,92.6,109.3,92.4,109.3z"/>
	<path class="st2" d="M93.4,102.8c-0.7-5.2-0.9-9.4-1.2-9.4c-0.4,0-1.1,4.2-1.1,9.4c0,5.3,0.3,9.4,0.3,16.1
		c0.1,6.7,0.8,17.7,1.8,17.7c0.9,0,2.4-11.1,2-17.8C94.9,112.2,94.1,108,93.4,102.8z M93.3,129.1c-0.7,0-1.2-5.8-1.4-12.8
		c-0.2-7.1-0.1-14,0.5-14c0.6,0,1.4,7,1.8,14C94.5,123.4,94,129.1,93.3,129.1z"/>
	<path class="st2" d="M87.2,114.3c-0.2-16.6,1.5-29.4,2.7-44.6c0.2-2.8,0.4-8.1,0.6-8.8C95.3,43,92.9,19.8,93.1,0h-1.7
		c1.8,19.7,2.7,39.4-3.5,59.4c-0.2,0.5-0.3,5.4-0.5,8.1c-1,19-1.9,38-1.5,57.2c0.2,8.2-0.9,23.5-0.4,24.9c3,8.9,8.6,17.1,4.6,30.4
		H92c3.8-11.5-2.7-22.1-3.5-33.1C87.7,136,87.3,125.1,87.2,114.3z"/>
	<path class="st2" d="M97.7,69.2c-0.4-3.9-1.9-7.9-2-11.9c-0.3-13.1,1.6-25.6,1.1-31.6c-0.2-2.3,0.3-14.8,0.2-25.6h-1.3
		c0.2,7.7-0.3,15.3-0.3,23.1c0.1,11-0.3,21.1-1.4,31.9c-0.4,3.9,1.3,9.3,1.8,13.5c0.6,4.2,1.2,10.1,1.6,13.8
		c0.1-2.7,0.3-6.7,0.5-10.4C97.8,71,97.8,70.1,97.7,69.2z"/>
	<path class="st2" d="M132.1,108.9c0.9-6.2,1.1-14.5,2.9-22.3c0.8-3.6-0.5-20.2-0.5-44.1c0-9.5,0.4-19.6,0.4-28.7
		c0-4.9,0.2-9.7,0.4-13.8h-1c-0.3,4.4-0.6,9.3-0.5,13.7c0.2,14-1.5,28.3-1.3,42c0.2,14.3,1.7,17.5,0.9,29.2
		c-0.4,5.3-1,20.9-2.4,25.3c-0.1,0.2-0.4,2.6-0.7,6.3c-0.5,5.6-1.3-0.2-1.4,23.4c-0.1,12.5,1.1,23,1.2,25l0.8,15.1h2
		c-1.4-5.3-1.9-14.7-2.3-25.9C130.1,139.3,130.2,121.6,132.1,108.9z"/>
	<path class="st2" d="M145.1,121.3c-0.2-0.9-0.3-10.7-0.5-13.5c-1.1-15.2-2.7-33-2.5-49.6c0.1-10.8,0.3-30.8,1-41.7
		c0.5-7.8,3.5-11,3.9-16.4h-2.6c-0.2,5.3-1.2,9.7-3.1,15.9c-0.4,1.3-0.8,23.1-0.9,31.4c-0.3,19.2,1,43.7,1.9,62.7
		c0.1,2.7,1.2,12.5,1.3,13c6.4,22.7,3.1,34.7,1,57.1h2.4C147.1,164.7,152,160.7,145.1,121.3z"/>
	<path class="st2" d="M147.9,111.1c-0.2-0.7-0.3-5.9-0.5-8.8c-1.1-15.2-2.7-28-2.5-44.6c0.1-10.8,0.5-21.7,1.2-32.6
		c0.5-8.4,4.1-16.5,4.2-25.1h-1.5c0.3,8.8-3.3,15.4-5.4,22.4c-0.4,1.3,0.5,16.6,0.4,24.9c-0.3,19.2,0.4,38.3,1.4,57.2
		c0.1,2.7,0.3,7.6,0.4,8.1c6.4,22.7,4.5,45,2.5,67.4h2.4C149.3,158.7,152.8,131.5,147.9,111.1z"/>
	<path class="st2" d="M139.5,146.7c-0.2-12.1-0.1-23.1-0.8-31.1c-0.8-8-1.7-12.9-2.6-12.9c-0.9,0-2.3,4.9-3.6,12.9
		c-1.2,7.9-1.5,19-0.6,31.1c0.8,11.2,1.5,23.6,2,33.3h0.8c-0.1-1.8-0.2-3.8-0.3-6.2c-0.2-7.4-0.9-17.2-1.7-27.2
		c-0.7-10-0.6-19.7,0.2-26.9c0.8-7.3,2-12,3-12c0.9,0,1.7,4.7,2.3,12c0.5,7.2,0.5,17,0.7,26.9c0.2,10,0.1,19.7-1,27.2
		c-0.3,2.3-0.6,4.4-0.8,6.2h0.4c0-0.3,0.1-0.5,0.1-0.8C138.7,170.1,139.7,158.8,139.5,146.7z"/>
	<path class="st2" d="M141.7,116.1c-0.4-3.8-0.7-6.1-0.7-6.3c-1.4-4.3-2-10.5-2.4-15.8c-0.8-11.6,0-23.9,0.2-38.3
		c0.2-18.2-2.7-37.5-0.4-55.7h-1.4c-1.2,11.6-0.2,27.7-0.2,42.5c0,23.9-0.7,49.6,0.2,53.2c1.8,7.8,1.2,6.9,2.2,13.2
		c3.4,22.3,2.5,58.7-0.8,71.1h2c1.3-5.2,2-14,2.5-17.8c0.7-6.5,1.8-10.3,0.3-22.3C142.9,137.6,142.3,121.6,141.7,116.1z"/>
	<path class="st2" d="M149.6,62.8c0.2,0,0.6-3.5,0.7-7.7c0.2-4.3,0-7.7-0.2-7.7c-0.2,0-0.4,3.5-0.5,7.7
		C149.5,59.3,149.4,62.8,149.6,62.8z"/>
	<path class="st2" d="M138.2,141.9c-0.1-9.6-0.1-17-0.6-21.9c-0.5-5-1.2-7.5-2-7.5c-0.8,0-1.7,2.6-2.4,7.5c-0.7,5-1,12.4-0.4,21.9
		c0.6,9.6,1.8,19.6,2,27.3c0.1,4.7,0.2,8.5,0.4,10.7h1.2c0.5-2.2,1-6,1.6-10.7C139,161.6,138.3,151.5,138.2,141.9z M135.9,174.1
		c-0.5,0-0.4-4-0.8-10c-0.3-6-1.4-14.1-1.8-22.2c-0.4-8.2-0.3-15.4,0.2-19.9c0.5-4.5,1.1-6.3,1.8-3.5c0.7,2.8,1.3,4.7,1.7,7.9
		c0.4,3.2,0.6,7.7,0.7,15.6c0.1,7.9,0.7,15.9,0.3,22C137.6,170,136.4,174.1,135.9,174.1z"/>
	<path class="st2" d="M156,126.9c0.1,0,0.1-1.6,0.1-3.6c0-2-0.2-3.6-0.3-3.6c-0.1,0-0.1,1.6-0.1,3.6
		C155.7,125.3,155.9,126.9,156,126.9z"/>
	<path class="st2" d="M148.5,69.2c0,5.3,0.7,9.4,1,9.4c0.3,0,0.5-4.2,1.1-9.4c0.6-5.3,1.4-9.4,1.7-16.1c0.3-6.7-1-17.8-1.9-17.8
		c-0.9,0-1.6,11-1.6,17.7C148.7,59.8,148.4,63.9,148.5,69.2z M149.1,55.7c0.2-7.1,0.6-12.8,1.3-12.8c0.6,0,1.1,5.8,0.8,12.8
		c-0.4,7.1-1.1,14-1.7,14C149,69.8,148.9,62.8,149.1,55.7z"/>
	<path class="st2" d="M150,15.5c-0.9,0-1.8,4.7-2.6,12.3c-0.8,7.6-0.6,18-0.8,29.6c-0.2,11.5,0.9,22.3,1.9,30.9
		c1,8.4,1.1,14.6,1.6,16.6c0.4,2,1.5-4.1,2-13.6c0.5-9.5,1.2-22.4,2.1-33.9c0.9-11.5,0.6-22-0.6-29.6
		C152.3,20.2,150.8,15.5,150,15.5z M153.1,31.8c0.8,6.9,0.9,16.1,0.2,25.6c-0.7,9.5-1.4,18.8-1.7,25.8c-0.2,7-0.8,11.6-1.4,11.6
		c-0.7,0-1-4.7-2-11.6c-1.1-7.1-1.2-16.4-1-25.8c0.2-9.5,0.2-18.7,0.7-25.6c0.5-6.9,1.4-11.4,2.3-11.4
		C151.1,20.4,152.3,24.9,153.1,31.8z"/>
	<path class="st2" d="M148.5,32c-0.5,4.7-0.6,11.8-0.6,20.9c-0.1,9.1-0.8,18.7,0.2,26c0.9,7.4,1.8,12.3,2.4,12.3
		c0.5,0,0.7-5,0.9-12.3c0.2-7.3,1.4-16.9,2-26c0.6-9.1,0.2-16.1-0.4-20.9c-0.7-4.7-1.6-7.2-2.4-7.2C149.7,24.8,149,27.3,148.5,32z
		 M150.8,30.5c0.7-2.7,1.3-1,1.8,3.3c0.5,4.3,0.6,11.2,0.2,18.9c-0.4,7.8-1.5,15.4-1.8,21.2c-0.3,5.7-0.3,9.5-0.8,9.5
		c-0.5,0-1.7-3.9-2.1-9.7c-0.4-5.8,0.2-13.4,0.3-20.9c0.1-7.5,0.2-11.8,0.7-14.8C149.4,35,150.1,33.2,150.8,30.5z"/>
	<path class="st2" d="M119.4,24.8c-0.6,0-1.2,2.5-1.6,7.2c-0.4,4.7-0.5,11.8-0.5,20.9c-0.1,9.1-0.6,18.7,0.1,26
		c0.8,7.4,1.5,12.3,1.9,12.3s0.5-5,0.7-12.3c0.2-7.3,1.1-16.9,1.6-26c0.5-9.1,0.2-16.1-0.4-20.9C120.8,27.3,120,24.8,119.4,24.8z
		 M121.2,52.8c-0.4,7.8-1.2,15.4-1.5,21.2c-0.3,5.7-0.2,9.5-0.6,9.5c-0.4,0-1.3-3.9-1.7-9.7c-0.3-5.8,0.2-13.4,0.3-20.9
		c0.1-7.5,0.2-11.8,0.5-14.8c0.3-3.1,0.9-4.9,1.4-7.5c0.5-2.7,1.1-1,1.4,3.3C121.5,38.1,121.6,45,121.2,52.8z"/>
	<path class="st2" d="M125.4,116.3c-0.2-14.3-1.7-17.5-0.9-29.1c0.1-1.9,4.4-37.9,4.5-55c0.1-12.5-1.1-23-1.2-25L127.4,0h-1.1
		c0.5,5,0.8,11.1,1,17.9c0.6,18,0,35.2-2.7,46.9c-1.1,4.9-1.5,20.1-1.7,20.6c-0.8,3.6,0.5,20.2,0.5,44.1c0,9.5-0.4,19.6-0.4,28.7
		c0,8.7-0.6,17-1,21.7h2.5c0.4-5.4,0.6-14.3,0.5-21.7C124.9,144.3,125.6,130,125.4,116.3z"/>
	<path class="st2" d="M121.9,27.8c-1-7.6-2.2-12.3-2.9-12.3c-0.7,0-1.5,4.7-2.1,12.3c-0.6,7.6-0.5,18-0.7,29.6
		c-0.2,11.5,0.7,22.3,1.5,30.9c0.8,8.4,0.9,14.6,1.3,16.6c0.4,2,1.2-4.1,1.6-13.6c0.4-9.5,1-22.4,1.7-33.9
		C123.1,45.9,122.9,35.4,121.9,27.8z M121.7,57.4c-0.6,9.5-1.2,18.8-1.3,25.8c-0.2,7-0.6,11.6-1.2,11.6c-0.5,0-0.8-4.7-1.6-11.6
		c-0.9-7.1-0.9-16.4-0.8-25.8c0.2-9.5,0.1-18.7,0.6-25.6c0.4-6.9,1.1-11.4,1.8-11.4c0.7,0,1.7,4.5,2.4,11.4
		C122.2,38.7,122.3,47.9,121.7,57.4z"/>
	<path class="st2" d="M117.3,111.1c-0.1-0.7-0.3-5.9-0.4-8.8c-0.9-15.2-2.1-28-2-44.6c0.1-10.8,0.4-21.7,1-32.6
		c0.4-8.4,3.3-16.5,3.4-25.1h-1.2c0.2,8.8-2.6,15.4-4.4,22.4c-0.3,1.3,0.4,16.6,0.3,24.9c-0.3,19.2,0.3,38.3,1.1,57.2
		c0.1,2.7,0.2,7.6,0.3,8.1c5.2,22.7,3.7,45,2,67.4h2C118.5,158.7,121.3,131.5,117.3,111.1z"/>
	<path class="st2" d="M135.7,123.5c-0.9,0-2.2,11.7-1.9,18.7c0.3,7,1.1,11.3,1.7,16.9c0.6,5.5,0.8,9.9,1.1,9.9s1-4.4,1-9.9
		c0-5.5-0.2-9.9-0.3-16.9C137.2,135.1,136.5,123.5,135.7,123.5z M136.5,159.6c-0.5,0-1.3-7.3-1.7-14.8c-0.4-7.4,0.1-13.5,0.8-13.5
		c0.7,0,1.1,6.1,1.3,13.5C137.1,152.3,137,159.6,136.5,159.6z"/>
	<path class="st2" d="M119.4,35.4c-0.7,0-1.3,11-1.3,17.7c-0.1,6.7-0.2,10.8-0.2,16.1c0,5.3,0.5,9.4,0.8,9.4c0.3,0,0.4-4.2,0.9-9.4
		c0.5-5.3,1.1-9.4,1.4-16.1C121.1,46.5,120,35.4,119.4,35.4z M120,55.7c-0.3,7.1-0.9,14-1.3,14c-0.4,0-0.5-7-0.3-14
		c0.2-7.1,0.5-12.8,1-12.8C119.9,42.9,120.3,48.6,120,55.7z"/>
	<path class="st2" d="M119.2,47.3c-0.2,0-0.3,3.5-0.4,7.7c-0.1,4.3-0.2,7.7,0,7.7c0.1,0,0.4-3.5,0.6-7.7
		C119.5,50.8,119.4,47.3,119.2,47.3z"/>
	<path class="st2" d="M155.4,116c-0.3,0-0.5,3.5-0.4,6.8c0.1,3.3,0.8,9.4,1.1,9.4c0.2,0,0.6-6.1,0.6-9.4
		C156.7,119.5,155.7,116,155.4,116z M155.7,119c0.3,0,0.6,2.1,0.6,4.7c0,2.6-0.1,5.2-0.3,5.2c-0.2,0-0.7-2.6-0.7-5.2
		C155.2,121.1,155.4,119,155.7,119z"/>
	<path class="st2" d="M126.8,104.4c0-1.7,0.5-4.2,0.5-6.2c0-5.6,1.9-10.6,1.9-16.1c0-3.6-0.3-10.8-0.8-14.2
		c-0.4-2.8-1.8,11.2-1.8,12.3c0,4.6-2.3,17.5-0.4,21.2c-0.3,0.2-0.5,1.9-0.5,2.4C125.4,105.6,126.8,105.4,126.8,104.4z M126.4,97.2
		c0.3-2.7,0.1-5.1,0.3-8c0.2-2.3,0.5-4.5,0.5-5.7c0-0.6,0.4-7,0.6-5.3c0.3,2,0.6,4.3,0.6,6.4c0,3.2-1.1,6.1-1.1,9.4
		c0,1.2-0.3,2.6-0.3,3.6C127,98.1,126.2,98.2,126.4,97.2z"/>
	<path class="st2" d="M135.9,136c-0.2,0-0.3,3.7-0.2,8.1c0.2,4.5,0.6,8.1,0.7,8.1c0.2,0,0.1-3.7-0.1-8.1
		C136.2,139.7,136.1,136,135.9,136z"/>
	<path class="st2" d="M130.2,107.2c1.1-4.9,1.5-20.1,1.7-20.6c0.8-3.6-0.5-20.2-0.5-44.1c0-9.5,0.4-19.6,0.4-28.7
		c0-4.9,0.2-9.7,0.4-13.8h-2.3c-0.1,4.4-0.2,9.3-0.1,13.7c0.2,14-0.5,28.3-0.4,42c0.2,14.3,1.7,17.5,0.9,29.2
		c-0.1,1.9-4.4,37.9-4.5,55c-0.1,12.5,1.1,23,1.2,25l0.8,15.1h2c-1.4-5.3-1.9-14.7-2.3-25.9C126.9,136.2,127.4,118.9,130.2,107.2z"
		/>
</g>
<g>
	<polygon class="st3" points="172,136.5 180.2,135.4 172.5,77.4 176.1,21.8 165.1,21.1 163.1,6.5 89.5,16.2 71.4,15 71.2,18.6 
		59.1,20.2 59.8,25.3 53.5,26 64.6,120.6 63,144.8 67.4,145.1 68.6,155.2 123.7,148.8 167.7,151.6 168.2,143.6 172.8,143.1 	"/>
	<g>
		
			<rect x="63.6" y="10.4" transform="matrix(0.9914 -0.1309 0.1309 0.9914 -8.8763 15.8414)" class="st4" width="104.9" height="130.1"/>
		
			<rect x="50.9" y="28.5" transform="matrix(6.505833e-02 -0.9979 0.9979 6.505833e-02 27.6284 191.4029)" class="st5" width="130.1" height="104.9"/>
		<g>
			
				<rect x="57.1" y="17.1" transform="matrix(0.9933 -0.1156 0.1156 0.9933 -8.766 13.2224)" class="st6" width="104.9" height="130.1"/>
			<g>
				<g>
					
						<rect x="61.2" y="31.7" transform="matrix(0.9933 -0.1156 0.1156 0.9933 -4.21 8.3532)" class="st7" width="17.4" height="17.4"/>
					<polyline class="st8" points="64.5,39.3 68.1,44.2 75.6,36.2 					"/>
					<g>
						
							<rect x="84.8" y="28.8" transform="matrix(0.9933 -0.1156 0.1156 0.9933 -2.6653 13.5484)" class="st9" width="61.3" height="1.8"/>
						
							<rect x="85.4" y="34.3" transform="matrix(0.9933 -0.1156 0.1156 0.9933 -3.2899 13.6581)" class="st9" width="61.3" height="1.8"/>
						
							<rect x="86.1" y="41.2" transform="matrix(0.9933 -0.1156 0.1156 0.9933 -4.1847 12.0977)" class="st9" width="32.1" height="1.8"/>
					</g>
				</g>
				<g>
					
						<rect x="63.8" y="54.1" transform="matrix(0.9933 -0.1156 0.1156 0.9933 -6.7784 8.8044)" class="st7" width="17.4" height="17.4"/>
					<polyline class="st8" points="67.1,61.7 70.8,66.6 78.2,58.6 					"/>
					<g>
						
							<rect x="87.4" y="51.2" transform="matrix(0.9933 -0.1156 0.1156 0.9933 -5.2337 13.9997)" class="st9" width="61.3" height="1.8"/>
						
							<rect x="88" y="56.6" transform="matrix(0.9933 -0.1156 0.1156 0.9933 -5.8584 14.1094)" class="st9" width="61.3" height="1.8"/>
						
							<rect x="88.7" y="63.6" transform="matrix(0.9933 -0.1156 0.1156 0.9933 -6.753 12.5488)" class="st9" width="32.1" height="1.8"/>
					</g>
				</g>
				<g>
					
						<rect x="66.4" y="76.5" transform="matrix(0.9933 -0.1157 0.1157 0.9933 -9.3476 9.2565)" class="st7" width="17.4" height="17.4"/>
					<polyline class="st8" points="69.7,84.1 73.4,88.9 80.8,81 					"/>
					<g>
						
							<rect x="90" y="73.5" transform="matrix(0.9933 -0.1156 0.1156 0.9933 -7.802 14.4506)" class="st9" width="61.3" height="1.8"/>
						
							<rect x="90.6" y="79" transform="matrix(0.9933 -0.1156 0.1156 0.9933 -8.4267 14.5605)" class="st9" width="61.3" height="1.8"/>
						
							<rect x="91.3" y="85.9" transform="matrix(0.9933 -0.1156 0.1156 0.9933 -9.3216 13.0003)" class="st9" width="32.1" height="1.8"/>
					</g>
				</g>
				<g>
					
						<rect x="69" y="98.8" transform="matrix(0.9933 -0.1156 0.1156 0.9933 -11.9137 9.7054)" class="st7" width="17.4" height="17.4"/>
					<polyline class="st8" points="72.3,106.4 76,111.3 83.4,103.3 					"/>
					<g>
						
							<rect x="92.6" y="95.9" transform="matrix(0.9933 -0.1156 0.1156 0.9933 -10.3701 14.9014)" class="st9" width="61.3" height="1.8"/>
						
							<rect x="93.2" y="101.3" transform="matrix(0.9933 -0.1157 0.1157 0.9933 -10.9954 15.0121)" class="st9" width="61.3" height="1.8"/>
						
							<rect x="93.9" y="108.3" transform="matrix(0.9933 -0.1156 0.1156 0.9933 -11.8896 13.4509)" class="st9" width="32.1" height="1.8"/>
					</g>
				</g>
				<g>
					
						<rect x="71.6" y="121.2" transform="matrix(0.9933 -0.1157 0.1157 0.9933 -14.4851 10.159)" class="st7" width="17.4" height="17.4"/>
					<polyline class="st8" points="74.9,128.8 78.6,133.7 86,125.7 					"/>
					<g>
						
							<rect x="95.2" y="118.3" transform="matrix(0.9933 -0.1157 0.1157 0.9933 -12.9391 15.3535)" class="st9" width="61.3" height="1.8"/>
						
							<rect x="95.8" y="123.7" transform="matrix(0.9933 -0.1156 0.1156 0.9933 -13.563 15.4622)" class="st9" width="61.3" height="1.8"/>
						
							<rect x="96.5" y="130.6" transform="matrix(0.9933 -0.1157 0.1157 0.9933 -14.4597 13.9039)" class="st9" width="32.1" height="1.8"/>
					</g>
				</g>
			</g>
		</g>
	</g>
	<g>
		<defs>
			<rect id="SVGID_1_" x="30.8" y="-10.2" width="189.9" height="189.9"/>
		</defs>
		<clipPath id="SVGID_2_">
			<use xlink:href="#SVGID_1_"  style="overflow:visible;"/>
		</clipPath>
		<path class="st10" d="M206,163.2c0.4-0.7,0.8-1.3,1.3-1.9c6.9-9.9,3.5-11.8,1.4-14.8c-2-3.1-5.7-9.4-9.8-19.6
			c-4.1-10.1-14.6-14.6-14.6-14.6c-6.7-3.5-20.1-16.7-23.2-8.4c-0.5,1.3-0.3,2.8,0.2,4.3l-14.2-17.5l-14.9-10.6l4,16.6l20.6,24.2
			c-0.8-0.5-1.7-0.8-2.5-0.8c-7,0.2-9.6,4.9-5.1,11.8c4.5,6.8,6.3,14.1,6.3,14.1s2.2,12,3.9,20.3c1.6,8.2-0.4,10.4,5.7,22.1
			c6.1,11.8,4.9,18.6,4.9,18.6l28.5-3.1c-1.9-10.2-0.3-21.5,3-30.8c0.3,0.1,0.6,0.1,0.8-0.1l6.4-5c0.5-0.4,0.3-1.3-0.3-2.1
			L206,163.2z M179.6,126.5c0,1.4,0.3,3.2,0.8,5.2l-10-12.3C175,123.4,179.6,126.5,179.6,126.5z M167.6,144.1
			c-1.1-6.3-3.4-13-6.1-17.6l25.2,29.7C182.7,157.8,169.6,155.6,167.6,144.1z"/>
		<g class="st11">
			<g>
				<path class="st12" d="M169.1,191c0,0,1.2-6.8-4.9-18.6c-6.1-11.8-4.1-13.9-5.7-22.1c-1.6-8.2-3.9-20.3-3.9-20.3
					s-1.8-7.3-6.3-14.1c-4.5-6.8-1.9-11.5,5.1-11.8c5.3-0.2,11.3,12.5,13.4,24c2,11.5,15.3,13.7,19.1,12c3.9-1.6-7.3-21.4-7.1-29.7
					c0,0-21.5-14.3-18.5-22.6c3-8.2,16.5,4.9,23.2,8.4c0,0,10.6,4.5,14.6,14.6c4.1,10.1,7.7,16.5,9.8,19.6c2,3.1,5.5,4.9-1.4,14.8
					c-6.9,9.9-11.8,27.6-8.9,42.6L169.1,191z"/>
				<g>
					<defs>
						<path id="SVGID_3_" d="M169.1,191c0,0,1.2-6.8-4.9-18.6c-6.1-11.8-4.1-13.9-5.7-22.1c-1.6-8.2-3.9-20.3-3.9-20.3
							s-1.8-7.3-6.3-14.1c-4.5-6.8-1.9-11.5,5.1-11.8c5.3-0.2,11.3,12.5,13.4,24c2,11.5,15.3,13.7,19.1,12
							c3.9-1.6-7.3-21.4-7.1-29.7c0,0-21.5-14.3-18.5-22.6c3-8.2,16.5,4.9,23.2,8.4c0,0,10.6,4.5,14.6,14.6
							c4.1,10.1,7.7,16.5,9.8,19.6c2,3.1,5.5,4.9-1.4,14.8c-6.9,9.9-11.8,27.6-8.9,42.6L169.1,191z"/>
					</defs>
					<clipPath id="SVGID_4_">
						<use xlink:href="#SVGID_3_"  style="overflow:visible;"/>
					</clipPath>
					<path class="st13" d="M143.9,116.2c0,0-4.7-7.9,0.5-8.2c5.2-0.3,18,12.1,4.8,14.1L143.9,116.2z"/>
					<g class="st14">
						<g>
							<path class="st15" d="M179.4,91c-0.9,4.8,5.3,10.4,8,13.7c2,2.4,4.4,4.7,6.1,7.4c3,4.5,3.3,10.2,6.2,14.7
								c0.6,1,2.2,0.6,2.2-0.6c0-7.1-4.2-13.9-8.9-18.9c-2.4-2.5-4.8-5.1-7.1-7.7c-1.7-2-5.5-5.5-5.5-8.4
								C180.5,90.6,179.5,90.4,179.4,91L179.4,91z"/>
						</g>
					</g>
					<path class="st13" d="M166.5,82.8c0,0-6.4,3.8,0,8s7.5-0.1,5.2-3.8C169.4,83.4,166.5,82.8,166.5,82.8z"/>
				</g>
			</g>
			<g>
				<path class="st16" d="M189.7,144.4c-0.7-0.8-0.8-1.7-0.3-2.1l6.4-5c0.5-0.4,1.4,0,2,0.8l9.6,11.8c0.7,0.8,0.8,1.8,0.3,2.1
					l-6.4,5c-0.5,0.4-1.4,0-2-0.8L189.7,144.4z"/>
				<g>
					<defs>
						<polygon id="SVGID_5_" points="201.2,142.1 146.3,74.7 131.4,64 135.4,80.6 193.1,148.6 						"/>
					</defs>
					<clipPath id="SVGID_6_">
						<use xlink:href="#SVGID_5_"  style="overflow:visible;"/>
					</clipPath>
					<polygon class="st17" points="201.2,143.4 154.1,85.1 131.4,65.3 144.2,91 193.1,149.9 					"/>
					<path class="st18" d="M154.2,82c0.5,1.3-9.2-4-9.2-4l-5.2-1.9l0.8,5.5l0.7,7.1c0,0-18.6-22.6-18.1-23
						c0.5-0.4,1.2-11.1,4.6-10.4c3.4,0.7,20.7,18.1,22.4,19.1C152,75.5,154.2,82,154.2,82z"/>
					<path class="st19" d="M137.6,66.6l-6,4.3c0,0-10.9-16.8-10.5-17.6C121.5,52.5,137.6,66.6,137.6,66.6z"/>
					<path class="st20" d="M200.7,146.4l-55.6-68.4l-1.1-5.1c0,0,19.9,13.8,21.6,15.3c1.7,1.5,16.6,16,18.1,17.6
						c1.5,1.6,12.5,25.1,13.7,26.1c1.2,1,7.9,12.8,7.9,12.8L200.7,146.4z"/>
					<path class="st21" d="M195.8,148.5l-55.2-66.8c0,0-4.8-3.9-4.9-3.6c-0.1,0.3,0.8,13.2,2,14.6c1.2,1.4,13.2,20.1,18.2,24.4
						c5,4.3,17.5,21.7,21.8,25.5c4.3,3.8,21.9,14.8,21.9,14.8L195.8,148.5z"/>
				</g>
			</g>
		</g>
	</g>
</g>
</svg>
