<?xml version="1.0" encoding="utf-8"?>
<!-- Generator: Adobe Illustrator 21.1.0, SVG Export Plug-In . SVG Version: 6.00 Build 0)  -->
<svg version="1.1" id="Layer_1" xmlns="http://www.w3.org/2000/svg" xmlns:xlink="http://www.w3.org/1999/xlink" x="0px" y="0px"
	 viewBox="0 0 240 180" style="enable-background:new 0 0 240 180;" xml:space="preserve">
<path d="M180.7,62.2c-11.5,8.3-18.1,18.7-17,33.2c1,14.3,8.8,23.8,21.7,30.3c-2.3,5-4.1,10.2-6.8,14.7c-4.2,6.8-8.6,13.6-13.9,19.6
	c-7.8,8.9-15.5,10.6-26.1,5.7c-11.2-5.2-21.8-4.8-32.8,0.3c-6,2.8-12.4,3.8-18.2-0.2c-3.4-2.3-6.8-5.1-9.4-8.3
	c-16.6-20.1-25.5-43-23.7-69.4c1.3-19.8,13.4-36.5,32.7-40.6c6.3-1.3,12.4-0.8,18.4,1.4c17.4,6.6,13.2,6.3,30.1-0.1
	c14.6-5.6,32.3-1.3,41.9,9.4C178.6,59.4,179.6,60.7,180.7,62.2z"/>
<path d="M119.1,44.7c-0.3-13.2,4.9-23,14.8-30.6c4.3-3.3,9.3-5.4,14.6-6.4c2.5-0.5,3.6,0.2,3.5,3c-0.7,15.6-11.8,31.1-27.8,33.8
	C122.7,44.7,121.1,44.6,119.1,44.7z"/>
</svg>
