<?xml version="1.0" encoding="utf-8"?>
<!-- Generator: Adobe Illustrator 21.1.0, SVG Export Plug-In . SVG Version: 6.00 Build 0)  -->
<svg version="1.1" id="Layer_1" xmlns="http://www.w3.org/2000/svg" xmlns:xlink="http://www.w3.org/1999/xlink" x="0px" y="0px"
	 viewBox="0 0 240 180" style="enable-background:new 0 0 240 180;" xml:space="preserve">
<style type="text/css">
	.st0{opacity:0.53;fill:#C1F4D9;}
</style>
<rect class="st0" width="240" height="180"/>
<title>03</title>
<path d="M187,174.7c-44.8,0-88.7,0-134.4,0c16.9-25.4,33.2-49.8,50.1-75.1c4.3,5.9,7.9,10.4,10.9,15.2c0.8,1.2,0.1,4-0.8,5.5
	c-6.6,10-13.4,19.8-20.1,29.7c-1.3,1.9-2.3,3.9-3.9,6.5c21.2,0,41.5,0,63.4,0C118.8,105.9,86.1,56.1,53,6c44.9,0,89,0,134.4,0
	c-17.2,25.9-33.7,50.8-50.7,76.5c-3.7-6-7.3-11.4-10.4-17.1c-0.6-1.2,0.2-3.7,1.1-5.1c6.6-10.3,13.3-20.4,20-30.6
	c1-1.6,2-3.2,3.4-5.4c-20.6,0-40.4,0-61.8,0C121.9,74.7,154.2,124.2,187,174.7z"/>
</svg>
