<?xml version="1.0" encoding="utf-8"?>
<!-- Generator: Adobe Illustrator 21.1.0, SVG Export Plug-In . SVG Version: 6.00 Build 0)  -->
<svg version="1.1" id="Layer_1" xmlns="http://www.w3.org/2000/svg" xmlns:xlink="http://www.w3.org/1999/xlink" x="0px" y="0px"
	 viewBox="0 0 240 180" style="enable-background:new 0 0 240 180;" xml:space="preserve">
<style type="text/css">
	.st0{fill:#FFEBB7;}
	.st1{fill:#5C546A;}
	.st2{fill:#00C37A;}
	.st3{fill:#009BCA;}
	.st4{fill:#E6BE94;}
	.st5{fill:#FF4F19;}
</style>
<g>
	<g>
		<path class="st0" d="M197.6,168.5H65.4c-14.2,0-25.7-11.5-25.7-25.7v-4.9c0-14.2,11.5-25.7,25.7-25.7h132.3V168.5z"/>
	</g>
	<g>
		<rect x="45.3" y="117.7" class="st1" width="14.1" height="45.1"/>
	</g>
	<g>
		<path class="st0" d="M184.2,103.6H34V64.1h150.2c4.3,0,7.8,3.5,7.8,7.8v24C192,100.1,188.5,103.6,184.2,103.6z"/>
	</g>
	<g>
		<rect x="53.7" y="13.3" class="st0" width="143.9" height="42.3"/>
	</g>
	<g>
		<path class="st2" d="M197.7,174.2H67.9c-18.7,0-33.9-15.2-33.9-33.9s15.2-33.9,33.9-33.9h129.8c3.1,0,5.6,2.5,5.6,5.6
			c0,3.1-2.5,5.6-5.6,5.6H67.9c-12.4,0-22.6,10.1-22.6,22.6c0,12.4,10.1,22.6,22.6,22.6h129.8c3.1,0,5.6,2.5,5.6,5.6
			S200.8,174.2,197.7,174.2z"/>
	</g>
	<g>
		<g>
			<path class="st3" d="M180.8,106.4H31.3c-1.6,0-2.8-1.3-2.8-2.8s1.3-2.8,2.8-2.8h149.5c4.7,0,8.5-3.8,8.5-8.5V75.4
				c0-4.7-3.8-8.5-8.5-8.5H31.3c-1.6,0-2.8-1.3-2.8-2.8s1.3-2.8,2.8-2.8h149.5c7.8,0,14.1,6.3,14.1,14.1v16.9
				C194.9,100.1,188.6,106.4,180.8,106.4z"/>
		</g>
	</g>
	<g>
		<path class="st4" d="M197.6,27.4H67.9c-1.6,0-2.8-1.3-2.8-2.8l0,0c0-1.6,1.3-2.8,2.8-2.8h129.8V27.4z"/>
	</g>
	<g>
		<path class="st4" d="M197.6,38.7H67.9c-1.6,0-2.8-1.3-2.8-2.8l0,0c0-1.6,1.3-2.8,2.8-2.8h129.8V38.7z"/>
	</g>
	<g>
		<path class="st4" d="M197.6,50H67.9c-1.6,0-2.8-1.3-2.8-2.8l0,0c0-1.6,1.3-2.8,2.8-2.8h129.8V50z"/>
	</g>
	<g>
		<path class="st4" d="M34,72.6h146.7c1.6,0,2.8,1.3,2.8,2.8l0,0c0,1.6-1.3,2.8-2.8,2.8H34C34,78.2,34,72.6,34,72.6z"/>
	</g>
	<g>
		<path class="st4" d="M34,83.9h146.7c1.6,0,2.8,1.3,2.8,2.8l0,0c0,1.6-1.3,2.8-2.8,2.8H34C34,89.5,34,83.9,34,83.9z"/>
	</g>
	<g>
		<path class="st4" d="M34,95.2h146.7c1.6,0,2.8,1.3,2.8,2.8l0,0c0,1.6-1.3,2.8-2.8,2.8H34C34,100.8,34,95.2,34,95.2z"/>
	</g>
	<g>
		<path class="st5" d="M200.5,61.3H65.1c-9.3,0-16.9-7.6-16.9-16.9V21.8c0-9.3,7.6-16.9,16.9-16.9h135.4c3.1,0,5.6,2.5,5.6,5.6
			s-2.5,5.6-5.6,5.6H65.1c-3.1,0-5.6,2.5-5.6,5.6v22.6c0,3.1,2.5,5.6,5.6,5.6h135.4c3.1,0,5.6,2.5,5.6,5.6S203.7,61.3,200.5,61.3z"
			/>
	</g>
	<g>
		<path class="st4" d="M67.9,157.2c-1.6,0-2.8,1.3-2.8,2.8c0,1.6,1.3,2.8,2.8,2.8h129.8v-5.6H67.9z"/>
	</g>
	<g>
		<path class="st4" d="M67.9,145.9c-1.6,0-2.8,1.3-2.8,2.8c0,1.6,1.3,2.8,2.8,2.8h129.8v-5.6H67.9z"/>
	</g>
	<g>
		<path class="st4" d="M67.9,134.7c-1.6,0-2.8,1.3-2.8,2.8c0,1.6,1.3,2.8,2.8,2.8h129.8v-5.6H67.9z"/>
	</g>
	<g>
		<path class="st4" d="M67.9,123.4c-1.6,0-2.8,1.3-2.8,2.8s1.3,2.8,2.8,2.8h129.8v-5.6H67.9z"/>
	</g>
</g>
</svg>
