<?xml version="1.0" encoding="utf-8"?>
<!-- Generator: Adobe Illustrator 21.1.0, SVG Export Plug-In . SVG Version: 6.00 Build 0)  -->
<svg version="1.1" id="Layer_1" xmlns="http://www.w3.org/2000/svg" xmlns:xlink="http://www.w3.org/1999/xlink" x="0px" y="0px"
	 viewBox="0 0 240 180" style="enable-background:new 0 0 240 180;" xml:space="preserve">
<style type="text/css">
	.st0{opacity:0.53;fill:#D2D8D5;}
	.st1{fill:#062C50;}
	.st2{fill:#86C146;}
	.st3{fill:#87C146;}
	.st4{fill:#062B50;}
	.st5{fill:#072C50;}
	.st6{fill:#082D52;}
	.st7{fill:#072D51;}
	.st8{fill:#082D51;}
	.st9{fill:#072C51;}
	.st10{fill:#0A2F53;}
	.st11{fill:#89C24A;}
	.st12{fill:#88C249;}
	.st13{fill:#FBFCFC;}
	.st14{fill:#F8F9FA;}
	.st15{fill:#FCFCFC;}
	.st16{fill:#FBFBFC;}
</style>
<rect class="st0" width="240" height="180"/>
<title>03</title>
<path class="st1" d="M131.1,51.3c-3.2-4.1-6.7-8-10.6-11.4c-9.6-8.4-20.7-13.8-33.1-16.4c-25.3-5.3-48.6-0.4-69.6,14.8
	c-6,4.3-11.2,9.5-15.6,15.4c-0.3,0.4-0.6,0.7-0.8,1c0,0-0.1,0-0.3,0c0.1-0.2,0.2-0.5,0.3-0.7C12.6,35,28.4,21.8,50,16.3
	c23.6-6,45.3-1.5,64.3,14.1c6.8,5.6,12.2,12.3,16.5,20C130.9,50.7,131,51,131.1,51.3z"/>
<path class="st1" d="M130.2,125.4c-0.1,0.3-0.3,0.5-0.4,0.8c-11.6,20-28.4,33.3-51.1,38.7c-30.1,7.1-60.9-5.8-76.9-32.2
	c-0.2-0.3-0.4-0.6-0.4-1c0.2,0.2,0.4,0.3,0.6,0.5c11.6,14.2,26.7,22.6,44.5,25.6c27.4,4.6,51.9-2.2,72.9-20.6
	c3.8-3.3,7-7.1,9.9-11.1c0.2-0.3,0.4-0.6,0.7-0.9C130,125.3,130.1,125.4,130.2,125.4z"/>
<path class="st2" d="M165.8,97.5c-1.6,7.3-3.1,14.3-4.6,21.4c-2.1,0-4.1,0-6.2,0c0.3-1.5,0.6-2.9,0.9-4.3c1.9-9,3.8-18,5.7-27.1
	c0.2-1,0.5-1.3,1.5-1.1c0.1,0,0.1,0,0.2,0c2.3-0.5,3.5,0.7,4.7,2.5c4,6.2,8.1,12.3,12.2,18.4c0.2,0.3,0.4,0.6,0.7,1
	c0.4-1.6,0.7-3.1,1-4.6c1.1-5.4,2.3-10.7,3.4-16.1c0.1-0.6,0.3-0.8,0.9-0.8c1.8,0,3.6,0,5.5,0c-0.4,1.8-0.7,3.4-1.1,5.1
	c-1.9,8.9-3.8,17.7-5.6,26.6c-0.2,0.7-0.4,0.9-1.2,1c-2.4,0.4-3.9-0.6-5.2-2.7c-3.9-6.2-8-12.3-12.1-18.4
	C166.4,98.4,166.2,98.1,165.8,97.5z"/>
<path class="st1" d="M79.5,105.6c2.4,4.4,4.7,8.8,7.1,13.3c-2.5,0-4.9,0-7.3,0c-0.2,0-0.6-0.4-0.7-0.7c-1.7-3.7-3.4-7.4-5.1-11.1
	c-0.1-0.1-0.1-0.3-0.2-0.4c-0.2-0.2-0.4-0.4-0.6-0.6c-0.2,0.2-0.4,0.5-0.5,0.7c-0.3,1.2-0.5,2.4-0.8,3.6c-0.6,2.8-1.2,5.6-1.8,8.4
	c-2.1,0-4.1,0-6.3,0c0.8-3.6,1.5-7.1,2.3-10.7c1.5-6.8,2.9-13.6,4.4-20.4c0.1-0.4,0.1-0.8,0.7-0.8c3.6,0.1,7.2,0.1,10.8,0.2
	c1,0,2,0.3,2.9,0.6c3.6,1.3,5.2,4.4,4.3,8.4c-1,4.8-3.8,7.9-8.6,9.2C79.9,105.5,79.8,105.5,79.5,105.6z M73.2,101.9
	c1.6-0.2,3.1-0.2,4.5-0.5c2.6-0.6,4.2-2.4,4.6-5c0.3-1.7-0.5-3.3-2.1-3.7c-1.6-0.4-3.2-0.5-4.8-0.8C74.6,95.3,73.9,98.5,73.2,101.9z
	"/>
<path class="st1" d="M100.5,104.6c-0.3,0.6-0.6,1.3-0.8,1.9c-0.9,3.9-1.7,7.8-2.5,11.8c0,0.2-0.1,0.4-0.2,0.6c-2,0-4,0-6.1,0
	c2.3-10.6,4.5-21.2,6.7-31.8c2.1,0,4.1,0,6.2,0c-0.9,4.4-1.9,8.8-2.8,13.4c0.3-0.3,0.5-0.5,0.7-0.6c4.4-4.1,8.9-8.2,13.3-12.4
	c0.2-0.2,0.5-0.4,0.8-0.4c2.4,0,4.9,0,7.6,0c-5.6,5-11.1,9.9-16.6,14.8c3.5,5.7,6.9,11.3,10.5,17.1c-2.7,0-5.3,0-7.8,0
	c-0.3,0-0.6-0.4-0.8-0.7c-2.5-4.3-5-8.7-7.5-13.1c-0.1-0.1-0.2-0.3-0.2-0.4C100.7,104.7,100.6,104.6,100.5,104.6z"/>
<path class="st3" d="M192.2,118.9c2.3-10.7,4.5-21.2,6.8-31.8c2,0,4,0,6.2,0c-0.9,4.4-1.9,8.8-2.8,13.4c1.9-1.7,3.6-3.3,5.3-4.9
	c2.9-2.7,5.7-5.3,8.7-8c0.4-0.4,1.1-0.6,1.6-0.6c2.2-0.1,4.4,0,6.7,0.2c-5.5,4.9-10.9,9.7-16.4,14.6c3.5,5.7,6.9,11.3,10.5,17.1
	c-0.9,0-1.7,0-2.4,0c-0.8,0-1.7,0-2.5,0c-1.1,0-2.4,0.3-3.3-0.2c-0.8-0.5-1.2-1.8-1.8-2.8c-2-3.4-4-6.9-6-10.3
	c-0.2-0.3-0.4-0.6-0.7-1.2c-0.4,0.6-0.7,1.1-0.8,1.5c-0.9,4-1.8,8-2.6,12c-0.1,0.7-0.4,0.9-1.1,0.9
	C195.9,118.9,194.1,118.9,192.2,118.9z"/>
<path class="st1" d="M51.6,112.3c-4.2,0-8.3,0-12.3,0c-0.4,0-0.8,0.3-1,0.6c-1.2,1.8-2.3,3.6-3.5,5.4c-0.3,0.4-0.6,0.6-1.1,0.6
	c-1.9,0-3.8,0-5.8,0c0.2-0.3,0.3-0.5,0.4-0.7c6.6-10.4,13.2-20.7,19.8-31.1c0.3-0.5,0.6-0.7,1.2-0.7c1.3,0,2.6,0,4,0
	c2.1,10.8,4.3,21.6,6.4,32.5c-2.1,0-4.2,0-6.3,0c-0.2,0-0.5-0.4-0.5-0.6C52.4,116.3,52,114.3,51.6,112.3z M48.8,96.1
	c-0.1,0-0.1,0-0.2-0.1c-2.3,3.7-4.5,7.4-6.8,11.1c3.1,0,6,0,9,0C50.1,103.4,49.4,99.8,48.8,96.1z"/>
<path class="st4" d="M14.6,86.9c4.3,0.2,8.6,0.1,12.8,0.5c4,0.4,6.3,3.5,6.2,7.5c0,5.2-3.4,10.1-8.2,11.5c-2,0.6-4.3,0.5-6.4,0.7
	c-0.8,0.1-1.6,0-2.5,0c-0.4,2-0.8,3.9-1.3,5.9c-0.4,2-0.8,3.9-1.2,5.9c-2.1,0-4.1,0-6.2,0C10,108.3,12.3,97.7,14.6,86.9z
	 M17.6,101.9c1.7-0.1,3.3-0.1,4.9-0.3c2.3-0.4,3.8-1.8,4.4-4.1c0.7-2.6-0.3-4.2-2.8-4.7c-1.4-0.3-2.9-0.3-4.4-0.4
	C18.9,95.5,18.3,98.6,17.6,101.9z"/>
<path class="st3" d="M128.6,113.6c3.3,0,6.5,0,9.8,0c-0.4,1.7-0.7,3.4-1.1,5c-0.1,0.2-0.6,0.4-0.9,0.4c-4,0-8,0-12,0c-1,0-2,0-3.2,0
	c2.3-10.7,4.5-21.3,6.8-31.9c2.1,0,4.1,0,6.2,0C132.3,95.9,130.5,104.7,128.6,113.6z"/>
<path class="st5" d="M42.6,73c2.4,3.2,4.7,6.3,7.1,9.5c-1.9,0-3.6,0-5.2,0c-0.2,0-0.5-0.4-0.7-0.7c-1.8-2.6-3.5-5.1-5.3-7.7
	c-0.2-0.3-0.4-0.5-0.8-1c0,3.3,0,6.3,0,9.3c-1.5,0-3,0-4.5,0c0-7.5,0-15,0-22.6c2.1,0,4.2-0.1,6.3,0c1.5,0.1,3,0.3,4.4,0.8
	c2.6,0.8,4,3.2,3.9,6.2c0,2.8-1.6,5-4.1,5.9C43.4,72.8,43.1,72.9,42.6,73z M37.7,70.4c1-0.1,1.8-0.2,2.7-0.3c0.3,0,0.6-0.2,0.9-0.3
	c1.3-0.5,2-1.7,2-3.3c-0.1-1.4-0.9-2.6-2.2-2.9c-1.1-0.2-2.2-0.2-3.3-0.4C37.7,65.8,37.7,68.1,37.7,70.4z"/>
<path class="st6" d="M15.1,59.9c2.9,0,5.7-0.1,8.5,0c4,0.2,6.7,3.6,6.4,7.7c-0.3,4.1-2.7,6.3-7.2,6.5c-1,0.1-2,0-3.2,0
	c0,2.8,0,5.5,0,8.4c-1.5,0-3,0-4.5,0C15.1,75,15.1,67.5,15.1,59.9z M19.6,70.5c1.3-0.2,2.5-0.2,3.6-0.5c1.5-0.3,2.2-1.4,2.3-3
	c0-1.5-0.7-2.6-2.2-3c-1.2-0.3-2.4-0.3-3.7-0.5C19.6,65.9,19.6,68.1,19.6,70.5z"/>
<path class="st3" d="M148.3,87.1c2.1,0,4.1,0,6.2,0c-0.3,1.5-0.6,3-0.9,4.4c-1.9,8.9-3.8,17.7-5.7,26.6c-0.1,0.7-0.4,0.9-1.1,0.8
	c-1.7,0-3.4,0-5.3,0C143.8,108.3,146,97.7,148.3,87.1z"/>
<path class="st7" d="M130.3,78.7c0,1.4,0,2.6,0,3.9c-4.2,0-8.3,0-12.5,0c0-7.5,0-15,0-22.6c4.1,0,8.3,0,12.5,0c0,1.2,0,2.4,0,3.7
	c-2.7,0-5.4,0-8.1,0c0,1.7,0,3.3,0,5c2.6,0,5.1,0,7.7,0c0,1.3,0,2.6,0,3.9c-2.5,0-5.1,0-7.7,0c0,2,0,4,0,6.1
	C124.8,78.7,127.5,78.7,130.3,78.7z"/>
<path class="st8" d="M57.2,72.6c0,2.1,0,4,0,6.1c1.3,0,2.6,0,4,0c1.3,0,2.7,0,4,0c0,1.3,0,2.6,0,3.8c-4.1,0-8.2,0-12.4,0
	c0-7.5,0-15,0-22.6c4.1,0,8.2,0,12.4,0c0,1.2,0,2.4,0,3.7c-2.6,0-5.3,0-7.9,0c0,1.7,0,3.3,0,5c2.5,0,5.1,0,7.7,0c0,1.3,0,2.6,0,3.9
	C62.4,72.6,59.9,72.6,57.2,72.6z"/>
<path class="st9" d="M98.1,78.8c0.9-0.9,1.8-1.7,2.8-2.6c0.4,0.5,0.8,1,1.3,1.5c1.5,1.3,3.3,1.8,5.2,1c1.2-0.5,1.7-1.4,1.8-2.6
	c0.1-1.2-0.4-2.1-1.5-2.6c-1.4-0.6-2.8-1.1-4.1-1.7c-1.9-0.8-3.5-1.8-4.1-3.9c-1.1-3.9,1.8-7.9,6-8.3c2.7-0.2,5.4,0.6,7.6,2.5
	c-0.7,1-1.4,1.9-2.2,2.9c-0.4-0.3-0.9-0.6-1.3-0.9c-1.3-0.9-2.7-1.1-4.2-0.4c-0.9,0.4-1.4,1.1-1.5,2.1c-0.1,1,0.4,1.6,1.2,1.9
	c1.4,0.6,2.9,1.3,4.4,1.9c2,0.9,3.6,2.1,4.2,4.4c1,4-1.4,7.9-5.4,9C104.4,83.8,100.1,82.1,98.1,78.8z"/>
<path class="st1" d="M85.9,76.5c0,1.8,0,3.3,0,4.8c0,0.2-0.2,0.6-0.4,0.7c-4.5,1.8-8.8,1.6-12.6-1.4c-3.7-2.9-5.2-6.9-4.2-11.6
	c1-4.8,4-8,8.8-9.2c2.6-0.7,5.2-0.5,7.7,0.6c0.6,0.2,0.9,0.6,0.8,1.2c0,1.4,0,2.8,0,4.3c-1.7-1.4-3.5-2.5-5.7-2.4
	c-2.2,0.1-4,1-5.4,2.8c-2.4,3-2.4,7.5,0.1,10.3c1.5,1.6,3.3,2.4,5.5,2.6C82.5,79.1,84.2,78.1,85.9,76.5z"/>
<path class="st10" d="M90.1,82.5c0-7.6,0-15.1,0-22.6c1.4,0,2.8,0,4.3,0c0,7.5,0,15,0,22.6C92.9,82.5,91.6,82.5,90.1,82.5z"/>
<path class="st11" d="M233.9,98.3c-0.3-1.8-0.6-3.3-0.8-4.7c-0.1,0-0.1,0-0.2,0c-0.4,1-0.7,1.9-1.1,2.9c-0.6,1.6-0.6,1.6-2.4,1.4
	c0.6-1.5,1.1-2.9,1.6-4.4c0.4-1.1,0.9-2.2,1.3-3.3c0.3-0.9,0.8-1.2,1.8-0.9c0.3,1.6,0.7,3.2,1,5c1-1.5,1.9-2.9,2.7-4.2
	c0.4-0.7,0.9-1.1,2-0.8c-0.1,2.8-0.3,5.6-0.4,8.6c-0.8,0-1.3,0-2,0c0.2-1.5,0.3-2.9,0.5-4.3c0,0-0.1-0.1-0.1-0.1
	c-0.3,0.6-0.7,1.1-1,1.7c-0.3,0.6-0.6,1.2-1.1,1.7C235.1,97.3,234.5,97.7,233.9,98.3z"/>
<path class="st12" d="M227.2,97.9c-0.6,0-1.1,0-1.9,0c0.5-2.3,0.9-4.5,1.3-6.8c-0.6,0-1.1-0.1-1.7-0.1c0.1-0.6,0.2-1.1,0.2-1.7
	c1.9,0,3.7,0,5.6,0c-0.1,0.6-0.2,1.1-0.3,1.7c-0.6,0-1.2,0-1.8,0C228.1,93.3,227.7,95.6,227.2,97.9z"/>
<path class="st1" d="M0.8,55c0.1,0,0.1-0.1,0.2-0.1c0,0,0.1,0.1,0.1,0.1C1.1,55,1,55,1,55.1C0.9,55.1,0.9,55,0.8,55z"/>
<path class="st13" d="M73.2,101.9c0.7-3.4,1.4-6.6,2.1-10.1c1.6,0.3,3.3,0.4,4.8,0.8c1.6,0.5,2.3,2,2.1,3.7c-0.4,2.6-1.9,4.4-4.6,5
	C76.3,101.7,74.8,101.7,73.2,101.9z"/>
<path class="st14" d="M48.8,96.1c0.6,3.7,1.3,7.3,1.9,11c-3,0-5.9,0-9,0c2.3-3.7,4.6-7.4,6.8-11.1C48.6,96.1,48.7,96.1,48.8,96.1z"
	/>
<path class="st13" d="M17.6,101.9c0.7-3.2,1.3-6.3,2-9.5c1.5,0.1,3,0.1,4.4,0.4c2.6,0.5,3.5,2.2,2.8,4.7c-0.6,2.3-2.1,3.7-4.4,4.1
	C20.9,101.8,19.3,101.7,17.6,101.9z"/>
<path class="st15" d="M37.7,70.4c0-2.4,0-4.6,0-7.1c1.1,0.1,2.2,0.1,3.3,0.4c1.3,0.3,2.2,1.5,2.2,2.9c0.1,1.6-0.6,2.7-2,3.3
	c-0.3,0.1-0.6,0.2-0.9,0.3C39.5,70.3,38.7,70.3,37.7,70.4z"/>
<path class="st16" d="M19.6,70.5c0-2.4,0-4.6,0-6.9c1.3,0.2,2.5,0.2,3.7,0.5c1.4,0.4,2.2,1.5,2.2,3c0,1.6-0.8,2.6-2.3,3
	C22,70.3,20.8,70.3,19.6,70.5z"/>
</svg>
